<?xml version="1.0"?>
<Project_Data Version="8.00">
<Project_Settings>
<ProfileName>MP4 with video player (up to 720p)</ProfileName>
<ProjectWidth>456</ProjectWidth>
<ProjectHeight>256</ProjectHeight>
<IsCustomProject>1</IsCustomProject>
<SavedProjectSettings>1</SavedProjectSettings>
<LastFlashTemplate>-1</LastFlashTemplate>
</Project_Settings>


<AutoSaveFile>C:\Users\leopi\AppData\Local\TechSmith\Camtasia Studio\8.0\Auto-Saves\screen title doppelganger1940561e.autosave.camproj</AutoSaveFile>

<ProjectID>BC2AE949-9595-4A07-9AA9-4677018714C9</ProjectID>

<PowerPointProject>0</PowerPointProject>

<PowerPointFilename></PowerPointFilename>


<Project_Notes>
</Project_Notes>

<Project_MetaData>
<Project_MetaData_Object>
<FieldArrayKey>8</FieldArrayKey>
<Value>screen title doppelganger</Value>
</Project_MetaData_Object>
<Project_MetaData_Object>
<FieldArrayKey>13</FieldArrayKey>
<Value>2020-02-20 08:24:12 p. m.</Value>
</Project_MetaData_Object>
<Project_MetaData_Object>
<FieldArrayKey>16</FieldArrayKey>
<Value>ENU</Value>
</Project_MetaData_Object>
</Project_MetaData>

<CSMLData>
<GoProject id="1" version="3.0" >
 <Project id="2" editRate="30/1" version="3.0" >
  <Author></Author>
  <Comment></Comment>
  <System></System>
  <SourceBin id="3"  >
    <Source id="4" src="D:\leo 2016\freelance\Doppelganger\screen title\storyboard screen title\black squere.png" lastMod="20200220T234137" rect="(0,0,455,256)" >
      <SourceTrack range="(0,1)" type="1" editRate="10000000/1" trackRect="(0,0,455,256)" sampleRate="0/1" bitDepth="32" numChannels="0" filename="" metaData="" />
    </Source>
    <Source id="5" src="D:\leo 2016\freelance\Doppelganger\screen title\storyboard screen title\capsula con fondo sin lentes.jpg" lastMod="20200220T230658" rect="(0,0,455,256)" >
      <SourceTrack range="(0,1)" type="1" editRate="10000000/1" trackRect="(0,0,455,256)" sampleRate="0/1" bitDepth="24" numChannels="0" filename="" metaData="" />
    </Source>
    <Source id="6" src="D:\leo 2016\freelance\Doppelganger\screen title\storyboard screen title\capsula sin lentes.png" lastMod="20200221T185743" rect="(0,0,195,256)" >
      <SourceTrack range="(0,1)" type="1" editRate="10000000/1" trackRect="(0,0,195,256)" sampleRate="0/1" bitDepth="32" numChannels="0" filename="" metaData="" />
    </Source>
    <Source id="7" src="D:\leo 2016\freelance\Doppelganger\screen title\storyboard screen title\fondo solo.png" lastMod="20200220T232216" rect="(0,0,455,256)" >
      <SourceTrack range="(0,1)" type="1" editRate="10000000/1" trackRect="(0,0,455,256)" sampleRate="0/1" bitDepth="32" numChannels="0" filename="" metaData="" />
    </Source>
    <Source id="8" src="D:\leo 2016\freelance\Doppelganger\screen title\storyboard screen title\rayos.png" lastMod="20200221T190245" rect="(0,0,308,256)" >
      <SourceTrack range="(0,1)" type="1" editRate="10000000/1" trackRect="(0,0,308,256)" sampleRate="0/1" bitDepth="32" numChannels="0" filename="" metaData="" />
    </Source>
    <Source id="9" src="D:\leo 2016\freelance\Doppelganger\screen title\storyboard screen title\solo lentes.png" lastMod="20200221T190304" rect="(0,0,64,46)" >
      <SourceTrack range="(0,1)" type="1" editRate="10000000/1" trackRect="(0,0,64,46)" sampleRate="0/1" bitDepth="32" numChannels="0" filename="" metaData="" />
    </Source>
    <Source id="10" src="D:\leo 2016\freelance\Doppelganger\screen title\storyboard screen title\destello 1.png" lastMod="20200221T204527" rect="(0,0,777,1075)" >
      <SourceTrack range="(0,1)" type="1" editRate="10000000/1" trackRect="(0,0,777,1075)" sampleRate="0/1" bitDepth="32" numChannels="0" filename="" metaData="" />
    </Source>
    <Source id="11" src="D:\leo 2016\freelance\Doppelganger\screen title\storyboard screen title\destello 2.png" lastMod="20200221T204553" rect="(0,0,723,708)" >
      <SourceTrack range="(0,1)" type="1" editRate="10000000/1" trackRect="(0,0,723,708)" sampleRate="0/1" bitDepth="32" numChannels="0" filename="" metaData="" />
    </Source>
    <Source id="12" src="D:\leo 2016\freelance\Doppelganger\screen title\storyboard screen title\destello 3.png" lastMod="20200221T205429" rect="(0,0,723,708)" >
      <SourceTrack range="(0,1)" type="1" editRate="10000000/1" trackRect="(0,0,723,708)" sampleRate="0/1" bitDepth="32" numChannels="0" filename="" metaData="" />
    </Source>
    <Source id="13" src="D:\leo 2016\freelance\Doppelganger\screen title\storyboard screen title\destello 4.png" lastMod="20200221T205507" rect="(0,0,723,708)" >
      <SourceTrack range="(0,1)" type="1" editRate="10000000/1" trackRect="(0,0,723,708)" sampleRate="0/1" bitDepth="32" numChannels="0" filename="" metaData="" />
    </Source>
    <Source id="14" src="D:\leo 2016\freelance\Doppelganger\screen title\storyboard screen title\destello 5.png" lastMod="20200221T205533" rect="(0,0,723,708)" >
      <SourceTrack range="(0,1)" type="1" editRate="10000000/1" trackRect="(0,0,723,708)" sampleRate="0/1" bitDepth="32" numChannels="0" filename="" metaData="" />
    </Source>
    <Source id="15" src="D:\leo 2016\freelance\Doppelganger\screen title\storyboard screen title\destello 6.png" lastMod="20200221T210948" rect="(0,0,363,1329)" >
      <SourceTrack range="(0,1)" type="1" editRate="10000000/1" trackRect="(0,0,363,1329)" sampleRate="0/1" bitDepth="32" numChannels="0" filename="" metaData="" />
    </Source>
    <Source id="16" src="D:\leo 2016\freelance\Doppelganger\screen title\storyboard screen title\capsula destruida.png" lastMod="20200221T203122" rect="(0,0,1240,1045)" >
      <SourceTrack range="(0,1)" type="1" editRate="10000000/1" trackRect="(0,0,1240,1045)" sampleRate="0/1" bitDepth="32" numChannels="0" filename="" metaData="" />
    </Source>
    <Source id="17" src="D:\leo 2016\freelance\Doppelganger\screen title\storyboard screen title\blax levantandose 1.png" lastMod="20200221T215155" rect="(0,0,455,256)" >
      <SourceTrack range="(0,1)" type="1" editRate="10000000/1" trackRect="(0,0,455,256)" sampleRate="0/1" bitDepth="32" numChannels="0" filename="" metaData="" />
    </Source>
    <Source id="18" src="D:\leo 2016\freelance\Doppelganger\screen title\storyboard screen title\blax levantandose 2.png" lastMod="20200221T215308" rect="(0,0,455,256)" >
      <SourceTrack range="(0,1)" type="1" editRate="10000000/1" trackRect="(0,0,455,256)" sampleRate="0/1" bitDepth="32" numChannels="0" filename="" metaData="" />
    </Source>
    <Source id="19" src="D:\leo 2016\freelance\Doppelganger\screen title\storyboard screen title\blax levantandose 3.png" lastMod="20200221T215649" rect="(0,0,455,256)" >
      <SourceTrack range="(0,1)" type="1" editRate="10000000/1" trackRect="(0,0,455,256)" sampleRate="0/1" bitDepth="32" numChannels="0" filename="" metaData="" />
    </Source>
    <Source id="20" src="D:\leo 2016\freelance\Doppelganger\screen title\storyboard screen title\blax solo.png" lastMod="20200221T221653" rect="(0,0,265,256)" >
      <SourceTrack range="(0,1)" type="1" editRate="10000000/1" trackRect="(0,0,265,256)" sampleRate="0/1" bitDepth="32" numChannels="0" filename="" metaData="" />
    </Source>
    <Source id="21" src="D:\leo 2016\freelance\Doppelganger\screen title\storyboard screen title\logo.png" lastMod="20200221T224522" rect="(0,0,218,153)" >
      <SourceTrack range="(0,1)" type="1" editRate="10000000/1" trackRect="(0,0,218,153)" sampleRate="0/1" bitDepth="32" numChannels="0" filename="" metaData="" />
    </Source>
    <Source id="22" src="D:\leo 2016\freelance\Doppelganger\screen title\storyboard screen title\fr2.png" lastMod="20200226T162138" rect="(0,0,230,260)" >
      <SourceTrack range="(0,1)" type="1" editRate="10000000/1" trackRect="(0,0,230,260)" sampleRate="0/1" bitDepth="32" numChannels="0" filename="" metaData="" />
    </Source>
    <Source id="23" src="D:\leo 2016\freelance\Doppelganger\screen title\storyboard screen title\fr3.png" lastMod="20200226T162148" rect="(0,0,293,265)" >
      <SourceTrack range="(0,1)" type="1" editRate="10000000/1" trackRect="(0,0,293,265)" sampleRate="0/1" bitDepth="32" numChannels="0" filename="" metaData="" />
    </Source>
    <Source id="24" src="D:\leo 2016\freelance\Doppelganger\screen title\storyboard screen title\fr4.png" lastMod="20200226T162346" rect="(0,0,300,261)" >
      <SourceTrack range="(0,1)" type="1" editRate="10000000/1" trackRect="(0,0,300,261)" sampleRate="0/1" bitDepth="32" numChannels="0" filename="" metaData="" />
    </Source>
    <Source id="25" src="D:\leo 2016\freelance\Doppelganger\screen title\storyboard screen title\fr5.png" lastMod="20200226T162827" rect="(0,0,251,310)" >
      <SourceTrack range="(0,1)" type="1" editRate="10000000/1" trackRect="(0,0,251,310)" sampleRate="0/1" bitDepth="32" numChannels="0" filename="" metaData="" />
    </Source>
    <Source id="26" src="D:\leo 2016\freelance\Doppelganger\screen title\storyboard screen title\fr6.png" lastMod="20200226T163033" rect="(0,0,276,309)" >
      <SourceTrack range="(0,1)" type="1" editRate="10000000/1" trackRect="(0,0,276,309)" sampleRate="0/1" bitDepth="32" numChannels="0" filename="" metaData="" />
    </Source>
    <Source id="27" src="D:\leo 2016\freelance\Doppelganger\screen title\storyboard screen title\fr7.png" lastMod="20200226T163136" rect="(0,0,453,795)" >
      <SourceTrack range="(0,1)" type="1" editRate="10000000/1" trackRect="(0,0,453,795)" sampleRate="0/1" bitDepth="32" numChannels="0" filename="" metaData="" />
    </Source>
  </SourceBin>
  <Timeline id="28"  >
   <Attributes>
    <Attribute id="29" value="456" name="width"/>
    <Attribute id="30" value="256" name="height"/>
    <Attribute id="31" value="(0,0,0,255)" name="backgroundColor"/>
   </Attributes>
    <GenericMixer id="32"  name="Unified Mixer">
     <MetaData>
      <entry key="MixerType" val="TimelineMixer"/>
     </MetaData>
     <Tracks>
      <GenericTrack id="33"  >
       <Attributes>
        <Attribute id="34" value="fondo" name="ident"/>
       </Attributes>
       <MetaData>
        <entry key="IsLocked" val="False"/>
        <entry key="WinTrackHeight" val="40"/>
       </MetaData>
       <Medias>
        <IMFile id="35" start="0" duration="504" scalar="1/1" mediaStart="0/1" mediaDuration="1/1" trackNumber="0" src="7" trimStartSum="0/1" >
         <Transformer>
          <VectorParam id="36"  name="translation">
           <InterpolatingParam id="37" interp="linr"  time="-9999999/1" value="-0.50000000004567369" leadInLength="0/1"  />
           <InterpolatingParam id="38" interp="linr"  time="-9999999/1" value="5.1727511163335294e-011" leadInLength="0/1"  />
           <InterpolatingParam id="39" interp="linr"  time="-9999999/1" value="0" leadInLength="0/1"  />
          </VectorParam>
          <VectorParam id="40"  name="rotation">
           <InterpolatingParam id="41" interp="linr"  time="-9999999/1" value="0" leadInLength="0/1"  />
           <InterpolatingParam id="42" interp="linr"  time="-9999999/1" value="0" leadInLength="0/1"  />
           <InterpolatingParam id="43" interp="linr"  time="-9999999/1" value="0" leadInLength="0/1"  />
          </VectorParam>
          <VectorParam id="44"  name="shear">
           <InterpolatingParam id="45" interp="linr"  time="-9999999/1" value="0" leadInLength="0/1"  />
           <InterpolatingParam id="46" interp="linr"  time="-9999999/1" value="0" leadInLength="0/1"  />
           <InterpolatingParam id="47" interp="linr"  time="-9999999/1" value="0" leadInLength="0/1"  />
          </VectorParam>
          <VectorParam id="48"  name="scale">
           <InterpolatingParam id="49" interp="linr"  time="-9999999/1" value="1" leadInLength="0/1"  />
           <InterpolatingParam id="50" interp="linr"  time="-9999999/1" value="1" leadInLength="0/1"  />
           <InterpolatingParam id="51" interp="linr"  time="-9999999/1" value="1" leadInLength="0/1"  />
          </VectorParam>
          <VectorParam id="52"  name="anchor">
           <InterpolatingParam id="53" interp="linr"  time="0/1" value="0" leadInLength="0/1"  />
           <InterpolatingParam id="54" interp="linr"  time="0/1" value="0" leadInLength="0/1"  />
           <InterpolatingParam id="55" interp="linr"  time="0/1" value="0" leadInLength="0/1"  />
          </VectorParam>
         </Transformer>
         <Parameters>
          <VectorParam id="56"  name="sourceCrop">
           <InterpolatingParam id="57" interp="linr"  time="0/1" value="0" leadInLength="0/1"  />
           <InterpolatingParam id="58" interp="linr"  time="0/1" value="0" leadInLength="0/1"  />
           <InterpolatingParam id="59" interp="linr"  time="0/1" value="0" leadInLength="0/1"  />
           <InterpolatingParam id="60" interp="linr"  time="0/1" value="0" leadInLength="0/1"  />
          </VectorParam>
          <VectorParam id="61"  name="geometryCrop">
           <InterpolatingParam id="62" interp="linr"  time="-9999999/1" value="0" leadInLength="0/1"  />
           <InterpolatingParam id="63" interp="linr"  time="-9999999/1" value="0" leadInLength="0/1"  />
           <InterpolatingParam id="64" interp="linr"  time="-9999999/1" value="0" leadInLength="0/1"  />
           <InterpolatingParam id="65" interp="linr"  time="-9999999/1" value="0" leadInLength="0/1"  />
          </VectorParam>
          <InterpolatingParam id="66" interp="linr"  time="-9999999/1" value="1" leadInLength="0/1"  name="opacity"/>
         </Parameters>
         <Attributes>
          <Attribute id="67" value="" name="ident"/>
         </Attributes>
         <MetaData>
          <entry key="WinSubProjectDisplayName" val=""/>
         </MetaData>
         <ExtraData>
          <Entry key="ZoomPanBin">
           <ZoomPanBin id="68"  >
            <ZoomPanKeyframes>
             <ZoomPanKeyframe id="69" timeRangeEnd="-9999999/1" timeRangeDuration="0/1" interpolaterName="linr"  />
            </ZoomPanKeyframes>
           </ZoomPanBin>
          </Entry>
         </ExtraData>
        </IMFile>
       </Medias>
      </GenericTrack>
      <GenericTrack id="70"  >
       <Attributes>
        <Attribute id="71" value="capsula" name="ident"/>
       </Attributes>
       <MetaData>
        <entry key="IsLocked" val="False"/>
        <entry key="WinTrackHeight" val="40"/>
       </MetaData>
       <Medias>
        <IMFile id="72" start="0" duration="130" scalar="1/1" mediaStart="0/1" mediaDuration="1/1" trackNumber="0" src="6" trimStartSum="0/1" >
         <Transformer>
          <VectorParam id="73"  name="translation">
           <InterpolatingParam id="74" interp="linr"  >
            <Keyframes>
            <Keyframe id="75"  time="-9999999/1" value="-130.50000000007753" leadInLength="0/1"  />
            <Keyframe id="76"  time="124/1" value="-130.50000000009067" leadInLength="3/1"  interpolater="leadin-linr"  />
            <Keyframe id="77"  time="125/1" value="-130.50000000008862" leadInLength="1/1"  interpolater="leadin-linr"  />
            <Keyframe id="78"  time="128/1" value="-130.5" leadInLength="3/1"  interpolater="leadin-linr"  />
            <Keyframe id="79"  time="129/1" value="-130.5" leadInLength="1/1"  interpolater="leadin-linr"  />
            </Keyframes>
           </InterpolatingParam>
           <InterpolatingParam id="80" interp="linr"  >
            <Keyframes>
            <Keyframe id="81"  time="-9999999/1" value="5.1094643686464085e-011" leadInLength="0/1"  />
            <Keyframe id="82"  time="124/1" value="-1.4999999998835205" leadInLength="3/1"  interpolater="leadin-linr"  />
            <Keyframe id="83"  time="125/1" value="6.63225592641423e-011" leadInLength="1/1"  interpolater="leadin-linr"  />
            <Keyframe id="84"  time="128/1" value="-1.5" leadInLength="3/1"  interpolater="leadin-linr"  />
            <Keyframe id="85"  time="129/1" value="6.6322599999999999e-011" leadInLength="1/1"  interpolater="leadin-linr"  />
            </Keyframes>
           </InterpolatingParam>
           <InterpolatingParam id="86" interp="linr"  >
            <Keyframes>
            <Keyframe id="87"  time="-9999999/1" value="0" leadInLength="0/1"  />
            <Keyframe id="88"  time="124/1" value="0" leadInLength="3/1"  interpolater="leadin-linr"  />
            <Keyframe id="89"  time="125/1" value="0" leadInLength="1/1"  interpolater="leadin-linr"  />
            <Keyframe id="90"  time="128/1" value="0" leadInLength="3/1"  interpolater="leadin-linr"  />
            <Keyframe id="91"  time="129/1" value="0" leadInLength="1/1"  interpolater="leadin-linr"  />
            </Keyframes>
           </InterpolatingParam>
          </VectorParam>
          <VectorParam id="92"  name="rotation">
           <InterpolatingParam id="93" interp="linr"  >
            <Keyframes>
            <Keyframe id="94"  time="-9999999/1" value="0" leadInLength="0/1"  />
            <Keyframe id="95"  time="124/1" value="0" leadInLength="3/1"  interpolater="leadin-linr"  />
            <Keyframe id="96"  time="125/1" value="0" leadInLength="1/1"  interpolater="leadin-linr"  />
            <Keyframe id="97"  time="128/1" value="0" leadInLength="3/1"  interpolater="leadin-linr"  />
            <Keyframe id="98"  time="129/1" value="0" leadInLength="1/1"  interpolater="leadin-linr"  />
            </Keyframes>
           </InterpolatingParam>
           <InterpolatingParam id="99" interp="linr"  >
            <Keyframes>
            <Keyframe id="100"  time="-9999999/1" value="0" leadInLength="0/1"  />
            <Keyframe id="101"  time="124/1" value="0" leadInLength="3/1"  interpolater="leadin-linr"  />
            <Keyframe id="102"  time="125/1" value="0" leadInLength="1/1"  interpolater="leadin-linr"  />
            <Keyframe id="103"  time="128/1" value="0" leadInLength="3/1"  interpolater="leadin-linr"  />
            <Keyframe id="104"  time="129/1" value="0" leadInLength="1/1"  interpolater="leadin-linr"  />
            </Keyframes>
           </InterpolatingParam>
           <InterpolatingParam id="105" interp="linr"  >
            <Keyframes>
            <Keyframe id="106"  time="-9999999/1" value="0" leadInLength="0/1"  />
            <Keyframe id="107"  time="124/1" value="0" leadInLength="3/1"  interpolater="leadin-linr"  />
            <Keyframe id="108"  time="125/1" value="0" leadInLength="1/1"  interpolater="leadin-linr"  />
            <Keyframe id="109"  time="128/1" value="0" leadInLength="3/1"  interpolater="leadin-linr"  />
            <Keyframe id="110"  time="129/1" value="0" leadInLength="1/1"  interpolater="leadin-linr"  />
            </Keyframes>
           </InterpolatingParam>
          </VectorParam>
          <VectorParam id="111"  name="shear">
           <InterpolatingParam id="112" interp="linr"  >
            <Keyframes>
            <Keyframe id="113"  time="-9999999/1" value="0" leadInLength="0/1"  />
            <Keyframe id="114"  time="124/1" value="0" leadInLength="3/1"  interpolater="leadin-linr"  />
            <Keyframe id="115"  time="125/1" value="0" leadInLength="1/1"  interpolater="leadin-linr"  />
            <Keyframe id="116"  time="128/1" value="0" leadInLength="3/1"  interpolater="leadin-linr"  />
            <Keyframe id="117"  time="129/1" value="0" leadInLength="1/1"  interpolater="leadin-linr"  />
            </Keyframes>
           </InterpolatingParam>
           <InterpolatingParam id="118" interp="linr"  >
            <Keyframes>
            <Keyframe id="119"  time="-9999999/1" value="0" leadInLength="0/1"  />
            <Keyframe id="120"  time="124/1" value="0" leadInLength="3/1"  interpolater="leadin-linr"  />
            <Keyframe id="121"  time="125/1" value="0" leadInLength="1/1"  interpolater="leadin-linr"  />
            <Keyframe id="122"  time="128/1" value="0" leadInLength="3/1"  interpolater="leadin-linr"  />
            <Keyframe id="123"  time="129/1" value="0" leadInLength="1/1"  interpolater="leadin-linr"  />
            </Keyframes>
           </InterpolatingParam>
           <InterpolatingParam id="124" interp="linr"  >
            <Keyframes>
            <Keyframe id="125"  time="-9999999/1" value="0" leadInLength="0/1"  />
            <Keyframe id="126"  time="124/1" value="0" leadInLength="3/1"  interpolater="leadin-linr"  />
            <Keyframe id="127"  time="125/1" value="0" leadInLength="1/1"  interpolater="leadin-linr"  />
            <Keyframe id="128"  time="128/1" value="0" leadInLength="3/1"  interpolater="leadin-linr"  />
            <Keyframe id="129"  time="129/1" value="0" leadInLength="1/1"  interpolater="leadin-linr"  />
            </Keyframes>
           </InterpolatingParam>
          </VectorParam>
          <VectorParam id="130"  name="scale">
           <InterpolatingParam id="131" interp="linr"  >
            <Keyframes>
            <Keyframe id="132"  time="-9999999/1" value="1" leadInLength="0/1"  />
            <Keyframe id="133"  time="124/1" value="1" leadInLength="3/1"  interpolater="leadin-linr"  />
            <Keyframe id="134"  time="125/1" value="1" leadInLength="1/1"  interpolater="leadin-linr"  />
            <Keyframe id="135"  time="128/1" value="1" leadInLength="3/1"  interpolater="leadin-linr"  />
            <Keyframe id="136"  time="129/1" value="1" leadInLength="1/1"  interpolater="leadin-linr"  />
            </Keyframes>
           </InterpolatingParam>
           <InterpolatingParam id="137" interp="linr"  >
            <Keyframes>
            <Keyframe id="138"  time="-9999999/1" value="1" leadInLength="0/1"  />
            <Keyframe id="139"  time="124/1" value="1" leadInLength="3/1"  interpolater="leadin-linr"  />
            <Keyframe id="140"  time="125/1" value="1" leadInLength="1/1"  interpolater="leadin-linr"  />
            <Keyframe id="141"  time="128/1" value="1" leadInLength="3/1"  interpolater="leadin-linr"  />
            <Keyframe id="142"  time="129/1" value="1" leadInLength="1/1"  interpolater="leadin-linr"  />
            </Keyframes>
           </InterpolatingParam>
           <InterpolatingParam id="143" interp="linr"  >
            <Keyframes>
            <Keyframe id="144"  time="-9999999/1" value="1" leadInLength="0/1"  />
            <Keyframe id="145"  time="124/1" value="1" leadInLength="3/1"  interpolater="leadin-linr"  />
            <Keyframe id="146"  time="125/1" value="1" leadInLength="1/1"  interpolater="leadin-linr"  />
            <Keyframe id="147"  time="128/1" value="1" leadInLength="3/1"  interpolater="leadin-linr"  />
            <Keyframe id="148"  time="129/1" value="1" leadInLength="1/1"  interpolater="leadin-linr"  />
            </Keyframes>
           </InterpolatingParam>
          </VectorParam>
          <VectorParam id="149"  name="anchor">
           <InterpolatingParam id="150" interp="linr"  time="0/1" value="0" leadInLength="0/1"  />
           <InterpolatingParam id="151" interp="linr"  time="0/1" value="0" leadInLength="0/1"  />
           <InterpolatingParam id="152" interp="linr"  time="0/1" value="0" leadInLength="0/1"  />
          </VectorParam>
         </Transformer>
         <Parameters>
          <VectorParam id="153"  name="sourceCrop">
           <InterpolatingParam id="154" interp="linr"  time="0/1" value="0" leadInLength="0/1"  />
           <InterpolatingParam id="155" interp="linr"  time="0/1" value="0" leadInLength="0/1"  />
           <InterpolatingParam id="156" interp="linr"  time="0/1" value="0" leadInLength="0/1"  />
           <InterpolatingParam id="157" interp="linr"  time="0/1" value="0" leadInLength="0/1"  />
          </VectorParam>
          <VectorParam id="158"  name="geometryCrop">
           <InterpolatingParam id="159" interp="linr"  >
            <Keyframes>
            <Keyframe id="160"  time="-9999999/1" value="0" leadInLength="0/1"  />
            <Keyframe id="161"  time="124/1" value="0" leadInLength="3/1"  interpolater="leadin-linr"  />
            <Keyframe id="162"  time="125/1" value="0" leadInLength="1/1"  interpolater="leadin-linr"  />
            <Keyframe id="163"  time="128/1" value="0" leadInLength="3/1"  interpolater="leadin-linr"  />
            <Keyframe id="164"  time="129/1" value="0" leadInLength="1/1"  interpolater="leadin-linr"  />
            </Keyframes>
           </InterpolatingParam>
           <InterpolatingParam id="165" interp="linr"  >
            <Keyframes>
            <Keyframe id="166"  time="-9999999/1" value="0" leadInLength="0/1"  />
            <Keyframe id="167"  time="124/1" value="0" leadInLength="3/1"  interpolater="leadin-linr"  />
            <Keyframe id="168"  time="125/1" value="0" leadInLength="1/1"  interpolater="leadin-linr"  />
            <Keyframe id="169"  time="128/1" value="0" leadInLength="3/1"  interpolater="leadin-linr"  />
            <Keyframe id="170"  time="129/1" value="0" leadInLength="1/1"  interpolater="leadin-linr"  />
            </Keyframes>
           </InterpolatingParam>
           <InterpolatingParam id="171" interp="linr"  >
            <Keyframes>
            <Keyframe id="172"  time="-9999999/1" value="0" leadInLength="0/1"  />
            <Keyframe id="173"  time="124/1" value="0" leadInLength="3/1"  interpolater="leadin-linr"  />
            <Keyframe id="174"  time="125/1" value="0" leadInLength="1/1"  interpolater="leadin-linr"  />
            <Keyframe id="175"  time="128/1" value="0" leadInLength="3/1"  interpolater="leadin-linr"  />
            <Keyframe id="176"  time="129/1" value="0" leadInLength="1/1"  interpolater="leadin-linr"  />
            </Keyframes>
           </InterpolatingParam>
           <InterpolatingParam id="177" interp="linr"  >
            <Keyframes>
            <Keyframe id="178"  time="-9999999/1" value="0" leadInLength="0/1"  />
            <Keyframe id="179"  time="124/1" value="0" leadInLength="3/1"  interpolater="leadin-linr"  />
            <Keyframe id="180"  time="125/1" value="0" leadInLength="1/1"  interpolater="leadin-linr"  />
            <Keyframe id="181"  time="128/1" value="0" leadInLength="3/1"  interpolater="leadin-linr"  />
            <Keyframe id="182"  time="129/1" value="0" leadInLength="1/1"  interpolater="leadin-linr"  />
            </Keyframes>
           </InterpolatingParam>
          </VectorParam>
          <InterpolatingParam id="183" interp="linr"  name="opacity">
           <Keyframes>
           <Keyframe id="184"  time="-9999999/1" value="1" leadInLength="0/1"  />
           <Keyframe id="185"  time="124/1" value="1" leadInLength="3/1"  interpolater="leadin-linr"  />
           <Keyframe id="186"  time="125/1" value="1" leadInLength="1/1"  interpolater="leadin-linr"  />
           <Keyframe id="187"  time="128/1" value="1" leadInLength="3/1"  interpolater="leadin-linr"  />
           <Keyframe id="188"  time="129/1" value="1" leadInLength="1/1"  interpolater="leadin-linr"  />
           </Keyframes>
          </InterpolatingParam>
         </Parameters>
         <Attributes>
          <Attribute id="189" value="" name="ident"/>
         </Attributes>
         <MetaData>
          <entry key="WinSubProjectDisplayName" val=""/>
         </MetaData>
         <ExtraData>
          <Entry key="ZoomPanBin">
           <ZoomPanBin id="190"  >
            <ZoomPanKeyframes>
             <ZoomPanKeyframe id="191" timeRangeEnd="-9999999/1" timeRangeDuration="0/1" interpolaterName="linr"  />
             <ZoomPanKeyframe id="192" timeRangeEnd="124/1" timeRangeDuration="3/1" interpolaterName="linr"  />
             <ZoomPanKeyframe id="193" timeRangeEnd="125/1" timeRangeDuration="1/1" interpolaterName="linr"  />
             <ZoomPanKeyframe id="194" timeRangeEnd="128/1" timeRangeDuration="3/1" interpolaterName="linr"  />
             <ZoomPanKeyframe id="195" timeRangeEnd="129/1" timeRangeDuration="1/1" interpolaterName="linr"  />
            </ZoomPanKeyframes>
           </ZoomPanBin>
          </Entry>
         </ExtraData>
        </IMFile>
        <IMFile id="196" start="232" duration="272" scalar="1/1" mediaStart="0/1" mediaDuration="1/1" trackNumber="0" src="16" trimStartSum="0/1" >
         <Transformer>
          <VectorParam id="197"  name="translation">
           <InterpolatingParam id="198" interp="linr"  time="-9999999/1" value="-76.114832535954804" leadInLength="0/1"  />
           <InterpolatingParam id="199" interp="linr"  time="-9999999/1" value="5.1245119259135663e-011" leadInLength="0/1"  />
           <InterpolatingParam id="200" interp="linr"  time="-9999999/1" value="0" leadInLength="0/1"  />
          </VectorParam>
          <VectorParam id="201"  name="rotation">
           <InterpolatingParam id="202" interp="linr"  time="-9999999/1" value="0" leadInLength="0/1"  />
           <InterpolatingParam id="203" interp="linr"  time="-9999999/1" value="0" leadInLength="0/1"  />
           <InterpolatingParam id="204" interp="linr"  time="-9999999/1" value="0" leadInLength="0/1"  />
          </VectorParam>
          <VectorParam id="205"  name="shear">
           <InterpolatingParam id="206" interp="linr"  time="-9999999/1" value="0" leadInLength="0/1"  />
           <InterpolatingParam id="207" interp="linr"  time="-9999999/1" value="0" leadInLength="0/1"  />
           <InterpolatingParam id="208" interp="linr"  time="-9999999/1" value="0" leadInLength="0/1"  />
          </VectorParam>
          <VectorParam id="209"  name="scale">
           <InterpolatingParam id="210" interp="linr"  time="-9999999/1" value="0.24497607655502393" leadInLength="0/1"  />
           <InterpolatingParam id="211" interp="linr"  time="-9999999/1" value="0.24497607655502393" leadInLength="0/1"  />
           <InterpolatingParam id="212" interp="linr"  time="-9999999/1" value="1" leadInLength="0/1"  />
          </VectorParam>
          <VectorParam id="213"  name="anchor">
           <InterpolatingParam id="214" interp="linr"  time="0/1" value="0" leadInLength="0/1"  />
           <InterpolatingParam id="215" interp="linr"  time="0/1" value="0" leadInLength="0/1"  />
           <InterpolatingParam id="216" interp="linr"  time="0/1" value="0" leadInLength="0/1"  />
          </VectorParam>
         </Transformer>
         <Parameters>
          <VectorParam id="217"  name="sourceCrop">
           <InterpolatingParam id="218" interp="linr"  time="0/1" value="0" leadInLength="0/1"  />
           <InterpolatingParam id="219" interp="linr"  time="0/1" value="0" leadInLength="0/1"  />
           <InterpolatingParam id="220" interp="linr"  time="0/1" value="0" leadInLength="0/1"  />
           <InterpolatingParam id="221" interp="linr"  time="0/1" value="0" leadInLength="0/1"  />
          </VectorParam>
          <VectorParam id="222"  name="geometryCrop">
           <InterpolatingParam id="223" interp="linr"  time="-9999999/1" value="0" leadInLength="0/1"  />
           <InterpolatingParam id="224" interp="linr"  time="-9999999/1" value="0" leadInLength="0/1"  />
           <InterpolatingParam id="225" interp="linr"  time="-9999999/1" value="0" leadInLength="0/1"  />
           <InterpolatingParam id="226" interp="linr"  time="-9999999/1" value="0" leadInLength="0/1"  />
          </VectorParam>
          <InterpolatingParam id="227" interp="linr"  time="-9999999/1" value="1" leadInLength="0/1"  name="opacity"/>
         </Parameters>
         <Attributes>
          <Attribute id="228" value="" name="ident"/>
         </Attributes>
         <MetaData>
          <entry key="WinSubProjectDisplayName" val=""/>
         </MetaData>
         <ExtraData>
          <Entry key="ZoomPanBin">
           <ZoomPanBin id="229"  >
            <ZoomPanKeyframes>
             <ZoomPanKeyframe id="230" timeRangeEnd="-9999999/1" timeRangeDuration="0/1" interpolaterName="linr"  />
            </ZoomPanKeyframes>
           </ZoomPanBin>
          </Entry>
         </ExtraData>
        </IMFile>
       </Medias>
      </GenericTrack>
      <GenericTrack id="231"  >
       <Attributes>
        <Attribute id="232" value="lentes" name="ident"/>
       </Attributes>
       <MetaData>
        <entry key="IsLocked" val="False"/>
        <entry key="WinTrackHeight" val="40"/>
       </MetaData>
       <Medias>
        <UnifiedMedia id="233"  >
         <AudioTransition id="234" start="45" duration="44" >
          <Parameters>
           <InterpolatingParam id="235" interp="linr"  time="0/1" value="1" leadInLength="0/1"  name="volume"/>
           <Parameter id="236"  name="captions"/>
          </Parameters>
          <Effects>
           <GenericEffect id="237" name = "AudioTransition" >
            <Parameters>
            <Parameter id="238"   name="audioEdgeModType">
             <Keyframes>
             <Keyframe id="239"  time="0/1" value="0" leadInLength="0/1"  />
             </Keyframes>
            </Parameter>
            <Parameter id="240"   name="audioTransitionType">
             <Keyframes>
             <Keyframe id="241"  time="0/1" value="" leadInLength="0/1"  />
             </Keyframes>
            </Parameter>
            </Parameters>
            <MetaData>
            </MetaData>
           </GenericEffect>
          </Effects>
          <Attributes>
           <Attribute id="242" value="" name="ident"/>
           <Attribute id="243" value="0" name="sampleRate"/>
           <Attribute id="244" value="0" name="bitDepth"/>
           <Attribute id="245" value="1" name="gain"/>
          </Attributes>
         </AudioTransition>
         <ImageTransition id="246" start="45" duration="44" >
          <Transformer>
           <VectorParam id="247"  name="translation">
            <InterpolatingParam id="248" interp="linr"  time="0/1" value="0" leadInLength="0/1"  />
            <InterpolatingParam id="249" interp="linr"  time="0/1" value="0" leadInLength="0/1"  />
            <InterpolatingParam id="250" interp="linr"  time="0/1" value="0" leadInLength="0/1"  />
           </VectorParam>
           <VectorParam id="251"  name="rotation">
            <InterpolatingParam id="252" interp="linr"  time="0/1" value="0" leadInLength="0/1"  />
            <InterpolatingParam id="253" interp="linr"  time="0/1" value="0" leadInLength="0/1"  />
            <InterpolatingParam id="254" interp="linr"  time="0/1" value="0" leadInLength="0/1"  />
           </VectorParam>
           <VectorParam id="255"  name="shear">
            <InterpolatingParam id="256" interp="linr"  time="0/1" value="0" leadInLength="0/1"  />
            <InterpolatingParam id="257" interp="linr"  time="0/1" value="0" leadInLength="0/1"  />
            <InterpolatingParam id="258" interp="linr"  time="0/1" value="0" leadInLength="0/1"  />
           </VectorParam>
           <VectorParam id="259"  name="scale">
            <InterpolatingParam id="260" interp="linr"  time="0/1" value="1" leadInLength="0/1"  />
            <InterpolatingParam id="261" interp="linr"  time="0/1" value="1" leadInLength="0/1"  />
            <InterpolatingParam id="262" interp="linr"  time="0/1" value="1" leadInLength="0/1"  />
           </VectorParam>
           <VectorParam id="263"  name="anchor">
            <InterpolatingParam id="264" interp="linr"  time="0/1" value="0" leadInLength="0/1"  />
            <InterpolatingParam id="265" interp="linr"  time="0/1" value="0" leadInLength="0/1"  />
            <InterpolatingParam id="266" interp="linr"  time="0/1" value="0" leadInLength="0/1"  />
           </VectorParam>
          </Transformer>
          <Parameters>
           <VectorParam id="267"  name="sourceCrop">
            <InterpolatingParam id="268" interp="linr"  time="0/1" value="0" leadInLength="0/1"  />
            <InterpolatingParam id="269" interp="linr"  time="0/1" value="0" leadInLength="0/1"  />
            <InterpolatingParam id="270" interp="linr"  time="0/1" value="0" leadInLength="0/1"  />
            <InterpolatingParam id="271" interp="linr"  time="0/1" value="0" leadInLength="0/1"  />
           </VectorParam>
           <VectorParam id="272"  name="geometryCrop">
            <InterpolatingParam id="273" interp="linr"  time="0/1" value="0" leadInLength="0/1"  />
            <InterpolatingParam id="274" interp="linr"  time="0/1" value="0" leadInLength="0/1"  />
            <InterpolatingParam id="275" interp="linr"  time="0/1" value="0" leadInLength="0/1"  />
            <InterpolatingParam id="276" interp="linr"  time="0/1" value="0" leadInLength="0/1"  />
           </VectorParam>
           <InterpolatingParam id="277" interp="linr"  time="0/1" value="1" leadInLength="0/1"  name="opacity"/>
          </Parameters>
          <Effects>
           <GenericEffect id="278" name = "VisualTransition" >
            <Parameters>
            <InterpolatingParam id="279" interp="linr"  time="0/1" value="0.5" leadInLength="0/1"   name="leftFramePercentage"/>
            <InterpolatingParam id="280" interp="linr"  time="0/1" value="0.5" leadInLength="0/1"   name="rightFramePercentage"/>
            <Parameter id="281"   name="visualEdgeModType">
             <Keyframes>
             <Keyframe id="282"  time="0/1" value="1" leadInLength="0/1"  />
             </Keyframes>
            </Parameter>
            <Parameter id="283"   name="visualTransitionType">
             <Keyframes>
             <Keyframe id="284"  time="0/1" value="Fade" leadInLength="0/1"  />
             </Keyframes>
            </Parameter>
            </Parameters>
            <MetaData>
            </MetaData>
           </GenericEffect>
          </Effects>
          <Attributes>
           <Attribute id="285" value="" name="ident"/>
          </Attributes>
          <ExtraData>
           <Entry key="ZoomPanBin">
            <ZoomPanBin id="286"  >
             <ZoomPanKeyframes>
             </ZoomPanKeyframes>
            </ZoomPanBin>
           </Entry>
          </ExtraData>
         </ImageTransition>
         <MetaData>
          <entry key="WinSubProjectDisplayName" val=""/>
         </MetaData>
        </UnifiedMedia>
        <IMFile id="287" start="89" duration="41" scalar="1/1" mediaStart="0/1" mediaDuration="1/1" trackNumber="0" src="9" trimStartSum="59/1" >
         <Transformer>
          <VectorParam id="288"  name="translation">
           <InterpolatingParam id="289" interp="linr"  time="-9999999/1" value="-118.00000000002458" leadInLength="0/1"  />
           <InterpolatingParam id="290" interp="linr"  time="-9999999/1" value="23.000000000050431" leadInLength="0/1"  />
           <InterpolatingParam id="291" interp="linr"  time="-9999999/1" value="0" leadInLength="0/1"  />
          </VectorParam>
          <VectorParam id="292"  name="rotation">
           <InterpolatingParam id="293" interp="linr"  time="-9999999/1" value="0" leadInLength="0/1"  />
           <InterpolatingParam id="294" interp="linr"  time="-9999999/1" value="0" leadInLength="0/1"  />
           <InterpolatingParam id="295" interp="linr"  time="-9999999/1" value="0" leadInLength="0/1"  />
          </VectorParam>
          <VectorParam id="296"  name="shear">
           <InterpolatingParam id="297" interp="linr"  time="-9999999/1" value="0" leadInLength="0/1"  />
           <InterpolatingParam id="298" interp="linr"  time="-9999999/1" value="0" leadInLength="0/1"  />
           <InterpolatingParam id="299" interp="linr"  time="-9999999/1" value="0" leadInLength="0/1"  />
          </VectorParam>
          <VectorParam id="300"  name="scale">
           <InterpolatingParam id="301" interp="linr"  time="-9999999/1" value="1" leadInLength="0/1"  />
           <InterpolatingParam id="302" interp="linr"  time="-9999999/1" value="1" leadInLength="0/1"  />
           <InterpolatingParam id="303" interp="linr"  time="-9999999/1" value="1" leadInLength="0/1"  />
          </VectorParam>
          <VectorParam id="304"  name="anchor">
           <InterpolatingParam id="305" interp="linr"  time="0/1" value="0" leadInLength="0/1"  />
           <InterpolatingParam id="306" interp="linr"  time="0/1" value="0" leadInLength="0/1"  />
           <InterpolatingParam id="307" interp="linr"  time="0/1" value="0" leadInLength="0/1"  />
          </VectorParam>
         </Transformer>
         <Parameters>
          <VectorParam id="308"  name="sourceCrop">
           <InterpolatingParam id="309" interp="linr"  time="0/1" value="0" leadInLength="0/1"  />
           <InterpolatingParam id="310" interp="linr"  time="0/1" value="0" leadInLength="0/1"  />
           <InterpolatingParam id="311" interp="linr"  time="0/1" value="0" leadInLength="0/1"  />
           <InterpolatingParam id="312" interp="linr"  time="0/1" value="0" leadInLength="0/1"  />
          </VectorParam>
          <VectorParam id="313"  name="geometryCrop">
           <InterpolatingParam id="314" interp="linr"  time="-9999999/1" value="0" leadInLength="0/1"  />
           <InterpolatingParam id="315" interp="linr"  time="-9999999/1" value="0" leadInLength="0/1"  />
           <InterpolatingParam id="316" interp="linr"  time="-9999999/1" value="0" leadInLength="0/1"  />
           <InterpolatingParam id="317" interp="linr"  time="-9999999/1" value="0" leadInLength="0/1"  />
          </VectorParam>
          <InterpolatingParam id="318" interp="linr"  time="-9999999/1" value="1" leadInLength="0/1"  name="opacity"/>
         </Parameters>
         <Attributes>
          <Attribute id="319" value="" name="ident"/>
         </Attributes>
         <MetaData>
          <entry key="WinSubProjectDisplayName" val=""/>
         </MetaData>
         <ExtraData>
          <Entry key="ZoomPanBin">
           <ZoomPanBin id="320"  >
            <ZoomPanKeyframes>
             <ZoomPanKeyframe id="321" timeRangeEnd="-9999999/1" timeRangeDuration="0/1" interpolaterName="linr"  />
            </ZoomPanKeyframes>
           </ZoomPanBin>
          </Entry>
         </ExtraData>
        </IMFile>
        <IMFile id="322" start="180" duration="34" scalar="1/1" mediaStart="0/1" mediaDuration="1/1" trackNumber="0" src="17" trimStartSum="-18/1" >
         <Transformer>
          <VectorParam id="323"  name="translation">
           <InterpolatingParam id="324" interp="linr"  time="-9999999/1" value="-0.5" leadInLength="0/1"  />
           <InterpolatingParam id="325" interp="linr"  time="-9999999/1" value="0" leadInLength="0/1"  />
           <InterpolatingParam id="326" interp="linr"  time="-9999999/1" value="0" leadInLength="0/1"  />
          </VectorParam>
          <VectorParam id="327"  name="rotation">
           <InterpolatingParam id="328" interp="linr"  time="-9999999/1" value="0" leadInLength="0/1"  />
           <InterpolatingParam id="329" interp="linr"  time="-9999999/1" value="0" leadInLength="0/1"  />
           <InterpolatingParam id="330" interp="linr"  time="-9999999/1" value="0" leadInLength="0/1"  />
          </VectorParam>
          <VectorParam id="331"  name="shear">
           <InterpolatingParam id="332" interp="linr"  time="-9999999/1" value="0" leadInLength="0/1"  />
           <InterpolatingParam id="333" interp="linr"  time="-9999999/1" value="0" leadInLength="0/1"  />
           <InterpolatingParam id="334" interp="linr"  time="-9999999/1" value="0" leadInLength="0/1"  />
          </VectorParam>
          <VectorParam id="335"  name="scale">
           <InterpolatingParam id="336" interp="linr"  time="-9999999/1" value="1" leadInLength="0/1"  />
           <InterpolatingParam id="337" interp="linr"  time="-9999999/1" value="1" leadInLength="0/1"  />
           <InterpolatingParam id="338" interp="linr"  time="-9999999/1" value="1" leadInLength="0/1"  />
          </VectorParam>
          <VectorParam id="339"  name="anchor">
           <InterpolatingParam id="340" interp="linr"  time="0/1" value="0" leadInLength="0/1"  />
           <InterpolatingParam id="341" interp="linr"  time="0/1" value="0" leadInLength="0/1"  />
           <InterpolatingParam id="342" interp="linr"  time="0/1" value="0" leadInLength="0/1"  />
          </VectorParam>
         </Transformer>
         <Parameters>
          <VectorParam id="343"  name="sourceCrop">
           <InterpolatingParam id="344" interp="linr"  time="0/1" value="0" leadInLength="0/1"  />
           <InterpolatingParam id="345" interp="linr"  time="0/1" value="0" leadInLength="0/1"  />
           <InterpolatingParam id="346" interp="linr"  time="0/1" value="0" leadInLength="0/1"  />
           <InterpolatingParam id="347" interp="linr"  time="0/1" value="0" leadInLength="0/1"  />
          </VectorParam>
          <VectorParam id="348"  name="geometryCrop">
           <InterpolatingParam id="349" interp="linr"  time="-9999999/1" value="0" leadInLength="0/1"  />
           <InterpolatingParam id="350" interp="linr"  time="-9999999/1" value="0" leadInLength="0/1"  />
           <InterpolatingParam id="351" interp="linr"  time="-9999999/1" value="0" leadInLength="0/1"  />
           <InterpolatingParam id="352" interp="linr"  time="-9999999/1" value="0" leadInLength="0/1"  />
          </VectorParam>
          <InterpolatingParam id="353" interp="linr"  time="-9999999/1" value="1" leadInLength="0/1"  name="opacity"/>
         </Parameters>
         <Effects>
          <GenericEffect id="354" name = "ChromaKey" >
           <Parameters>
           <InterpolatingParam id="355" interp="linr"  time="0/1" value="0" leadInLength="0/1"   name="clrCompensation"/>
           <InterpolatingParam id="356" interp="linr"  time="0/1" value="255" leadInLength="0/1"   name="color-alpha"/>
           <InterpolatingParam id="357" interp="linr"  time="0/1" value="0" leadInLength="0/1"   name="color-blue"/>
           <InterpolatingParam id="358" interp="linr"  time="0/1" value="0" leadInLength="0/1"   name="color-green"/>
           <InterpolatingParam id="359" interp="linr"  time="0/1" value="192" leadInLength="0/1"   name="color-red"/>
           <InterpolatingParam id="360" interp="linr"  time="0/1" value="0.040000000000000001" leadInLength="0/1"   name="defringe"/>
           <Parameter id="361"   name="enabled">
            <Keyframes>
            <Keyframe id="362"  time="0/1" value="0" leadInLength="0/1"  />
            </Keyframes>
           </Parameter>
           <InterpolatingParam id="363" interp="linr"  time="0/1" value="0" leadInLength="0/1"   name="invertEffect"/>
           <InterpolatingParam id="364" interp="linr"  time="0/1" value="0.10000000000000001" leadInLength="0/1"   name="softness"/>
           <InterpolatingParam id="365" interp="linr"  time="0/1" value="0.14999999999999999" leadInLength="0/1"   name="tolerance"/>
           </Parameters>
          </GenericEffect>
          <GenericEffect id="366" name = "Colorize" >
           <Parameters>
           <InterpolatingParam id="367" interp="linr"  time="0/1" value="0.14000000000000001" leadInLength="0/1"   name="amount"/>
           <InterpolatingParam id="368" interp="linr"  time="0/1" value="255" leadInLength="0/1"   name="color-alpha"/>
           <InterpolatingParam id="369" interp="linr"  time="0/1" value="0" leadInLength="0/1"   name="color-blue"/>
           <InterpolatingParam id="370" interp="linr"  time="0/1" value="127" leadInLength="0/1"   name="color-green"/>
           <InterpolatingParam id="371" interp="linr"  time="0/1" value="255" leadInLength="0/1"   name="color-red"/>
           <Parameter id="372"   name="enabled">
            <Keyframes>
            <Keyframe id="373"  time="0/1" value="0" leadInLength="0/1"  />
            </Keyframes>
           </Parameter>
           <Parameter id="374"   name="mode">
            <Keyframes>
            <Keyframe id="375"  time="0/1" value="0" leadInLength="0/1"  />
            </Keyframes>
           </Parameter>
           </Parameters>
          </GenericEffect>
          <GenericEffect id="376" name = "DropShadow" >
           <Parameters>
           <InterpolatingParam id="377" interp="linr"  time="0/1" value="315" leadInLength="0/1"   name="angle"/>
           <InterpolatingParam id="378" interp="linr"  time="0/1" value="8" leadInLength="0/1"   name="blur"/>
           <Parameter id="379"   name="enabled">
            <Keyframes>
            <Keyframe id="380"  time="0/1" value="1" leadInLength="0/1"  />
            </Keyframes>
           </Parameter>
           <InterpolatingParam id="381" interp="linr"  time="0/1" value="6" leadInLength="0/1"   name="offset"/>
           <InterpolatingParam id="382" interp="linr"  time="0/1" value="0.80000000000000004" leadInLength="0/1"   name="opacity"/>
           </Parameters>
          </GenericEffect>
         </Effects>
         <Attributes>
          <Attribute id="383" value="" name="ident"/>
         </Attributes>
         <MetaData>
          <entry key="WinSubProjectDisplayName" val=""/>
         </MetaData>
         <ExtraData>
          <Entry key="ZoomPanBin">
           <ZoomPanBin id="384"  >
            <ZoomPanKeyframes>
             <ZoomPanKeyframe id="385" timeRangeEnd="-9999999/1" timeRangeDuration="0/1" interpolaterName="linr"  />
            </ZoomPanKeyframes>
           </ZoomPanBin>
          </Entry>
         </ExtraData>
        </IMFile>
        <IMFile id="386" start="214" duration="18" scalar="1/1" mediaStart="0/1" mediaDuration="1/1" trackNumber="0" src="18" trimStartSum="7/1" >
         <Transformer>
          <VectorParam id="387"  name="translation">
           <InterpolatingParam id="388" interp="linr"  time="-9999999/1" value="-0.5" leadInLength="0/1"  />
           <InterpolatingParam id="389" interp="linr"  time="-9999999/1" value="0" leadInLength="0/1"  />
           <InterpolatingParam id="390" interp="linr"  time="-9999999/1" value="0" leadInLength="0/1"  />
          </VectorParam>
          <VectorParam id="391"  name="rotation">
           <InterpolatingParam id="392" interp="linr"  time="-9999999/1" value="0" leadInLength="0/1"  />
           <InterpolatingParam id="393" interp="linr"  time="-9999999/1" value="0" leadInLength="0/1"  />
           <InterpolatingParam id="394" interp="linr"  time="-9999999/1" value="0" leadInLength="0/1"  />
          </VectorParam>
          <VectorParam id="395"  name="shear">
           <InterpolatingParam id="396" interp="linr"  time="-9999999/1" value="0" leadInLength="0/1"  />
           <InterpolatingParam id="397" interp="linr"  time="-9999999/1" value="0" leadInLength="0/1"  />
           <InterpolatingParam id="398" interp="linr"  time="-9999999/1" value="0" leadInLength="0/1"  />
          </VectorParam>
          <VectorParam id="399"  name="scale">
           <InterpolatingParam id="400" interp="linr"  time="-9999999/1" value="1" leadInLength="0/1"  />
           <InterpolatingParam id="401" interp="linr"  time="-9999999/1" value="1" leadInLength="0/1"  />
           <InterpolatingParam id="402" interp="linr"  time="-9999999/1" value="1" leadInLength="0/1"  />
          </VectorParam>
          <VectorParam id="403"  name="anchor">
           <InterpolatingParam id="404" interp="linr"  time="0/1" value="0" leadInLength="0/1"  />
           <InterpolatingParam id="405" interp="linr"  time="0/1" value="0" leadInLength="0/1"  />
           <InterpolatingParam id="406" interp="linr"  time="0/1" value="0" leadInLength="0/1"  />
          </VectorParam>
         </Transformer>
         <Parameters>
          <VectorParam id="407"  name="sourceCrop">
           <InterpolatingParam id="408" interp="linr"  time="0/1" value="0" leadInLength="0/1"  />
           <InterpolatingParam id="409" interp="linr"  time="0/1" value="0" leadInLength="0/1"  />
           <InterpolatingParam id="410" interp="linr"  time="0/1" value="0" leadInLength="0/1"  />
           <InterpolatingParam id="411" interp="linr"  time="0/1" value="0" leadInLength="0/1"  />
          </VectorParam>
          <VectorParam id="412"  name="geometryCrop">
           <InterpolatingParam id="413" interp="linr"  time="-9999999/1" value="0" leadInLength="0/1"  />
           <InterpolatingParam id="414" interp="linr"  time="-9999999/1" value="0" leadInLength="0/1"  />
           <InterpolatingParam id="415" interp="linr"  time="-9999999/1" value="0" leadInLength="0/1"  />
           <InterpolatingParam id="416" interp="linr"  time="-9999999/1" value="0" leadInLength="0/1"  />
          </VectorParam>
          <InterpolatingParam id="417" interp="linr"  time="-9999999/1" value="1" leadInLength="0/1"  name="opacity"/>
         </Parameters>
         <Attributes>
          <Attribute id="418" value="" name="ident"/>
         </Attributes>
         <MetaData>
          <entry key="WinSubProjectDisplayName" val=""/>
         </MetaData>
         <ExtraData>
          <Entry key="ZoomPanBin">
           <ZoomPanBin id="419"  >
            <ZoomPanKeyframes>
             <ZoomPanKeyframe id="420" timeRangeEnd="-9999999/1" timeRangeDuration="0/1" interpolaterName="linr"  />
            </ZoomPanKeyframes>
           </ZoomPanBin>
          </Entry>
         </ExtraData>
        </IMFile>
        <IMFile id="421" start="232" duration="33" scalar="1/1" mediaStart="0/1" mediaDuration="1/1" trackNumber="0" src="19" trimStartSum="0/1" >
         <Transformer>
          <VectorParam id="422"  name="translation">
           <InterpolatingParam id="423" interp="linr"  time="-9999999/1" value="-0.5" leadInLength="0/1"  />
           <InterpolatingParam id="424" interp="linr"  time="-9999999/1" value="0" leadInLength="0/1"  />
           <InterpolatingParam id="425" interp="linr"  time="-9999999/1" value="0" leadInLength="0/1"  />
          </VectorParam>
          <VectorParam id="426"  name="rotation">
           <InterpolatingParam id="427" interp="linr"  time="-9999999/1" value="0" leadInLength="0/1"  />
           <InterpolatingParam id="428" interp="linr"  time="-9999999/1" value="0" leadInLength="0/1"  />
           <InterpolatingParam id="429" interp="linr"  time="-9999999/1" value="0" leadInLength="0/1"  />
          </VectorParam>
          <VectorParam id="430"  name="shear">
           <InterpolatingParam id="431" interp="linr"  time="-9999999/1" value="0" leadInLength="0/1"  />
           <InterpolatingParam id="432" interp="linr"  time="-9999999/1" value="0" leadInLength="0/1"  />
           <InterpolatingParam id="433" interp="linr"  time="-9999999/1" value="0" leadInLength="0/1"  />
          </VectorParam>
          <VectorParam id="434"  name="scale">
           <InterpolatingParam id="435" interp="linr"  time="-9999999/1" value="1" leadInLength="0/1"  />
           <InterpolatingParam id="436" interp="linr"  time="-9999999/1" value="1" leadInLength="0/1"  />
           <InterpolatingParam id="437" interp="linr"  time="-9999999/1" value="1" leadInLength="0/1"  />
          </VectorParam>
          <VectorParam id="438"  name="anchor">
           <InterpolatingParam id="439" interp="linr"  time="0/1" value="0" leadInLength="0/1"  />
           <InterpolatingParam id="440" interp="linr"  time="0/1" value="0" leadInLength="0/1"  />
           <InterpolatingParam id="441" interp="linr"  time="0/1" value="0" leadInLength="0/1"  />
          </VectorParam>
         </Transformer>
         <Parameters>
          <VectorParam id="442"  name="sourceCrop">
           <InterpolatingParam id="443" interp="linr"  time="0/1" value="0" leadInLength="0/1"  />
           <InterpolatingParam id="444" interp="linr"  time="0/1" value="0" leadInLength="0/1"  />
           <InterpolatingParam id="445" interp="linr"  time="0/1" value="0" leadInLength="0/1"  />
           <InterpolatingParam id="446" interp="linr"  time="0/1" value="0" leadInLength="0/1"  />
          </VectorParam>
          <VectorParam id="447"  name="geometryCrop">
           <InterpolatingParam id="448" interp="linr"  time="-9999999/1" value="0" leadInLength="0/1"  />
           <InterpolatingParam id="449" interp="linr"  time="-9999999/1" value="0" leadInLength="0/1"  />
           <InterpolatingParam id="450" interp="linr"  time="-9999999/1" value="0" leadInLength="0/1"  />
           <InterpolatingParam id="451" interp="linr"  time="-9999999/1" value="0" leadInLength="0/1"  />
          </VectorParam>
          <InterpolatingParam id="452" interp="linr"  time="-9999999/1" value="1" leadInLength="0/1"  name="opacity"/>
         </Parameters>
         <Attributes>
          <Attribute id="453" value="" name="ident"/>
         </Attributes>
         <MetaData>
          <entry key="WinSubProjectDisplayName" val=""/>
         </MetaData>
         <ExtraData>
          <Entry key="ZoomPanBin">
           <ZoomPanBin id="454"  >
            <ZoomPanKeyframes>
             <ZoomPanKeyframe id="455" timeRangeEnd="-9999999/1" timeRangeDuration="0/1" interpolaterName="linr"  />
            </ZoomPanKeyframes>
           </ZoomPanBin>
          </Entry>
         </ExtraData>
        </IMFile>
        <IMFile id="456" start="265" duration="117" scalar="1/1" mediaStart="0/1" mediaDuration="1/1" trackNumber="0" src="20" trimStartSum="-3/1" >
         <Transformer>
          <VectorParam id="457"  name="translation">
           <InterpolatingParam id="458" interp="linr"  time="-9999999/1" value="84.999999999937273" leadInLength="0/1"  />
           <InterpolatingParam id="459" interp="linr"  time="-9999999/1" value="6.5014438277444242e-011" leadInLength="0/1"  />
           <InterpolatingParam id="460" interp="linr"  time="-9999999/1" value="0" leadInLength="0/1"  />
          </VectorParam>
          <VectorParam id="461"  name="rotation">
           <InterpolatingParam id="462" interp="linr"  time="-9999999/1" value="0" leadInLength="0/1"  />
           <InterpolatingParam id="463" interp="linr"  time="-9999999/1" value="0" leadInLength="0/1"  />
           <InterpolatingParam id="464" interp="linr"  time="-9999999/1" value="0" leadInLength="0/1"  />
          </VectorParam>
          <VectorParam id="465"  name="shear">
           <InterpolatingParam id="466" interp="linr"  time="-9999999/1" value="0" leadInLength="0/1"  />
           <InterpolatingParam id="467" interp="linr"  time="-9999999/1" value="0" leadInLength="0/1"  />
           <InterpolatingParam id="468" interp="linr"  time="-9999999/1" value="0" leadInLength="0/1"  />
          </VectorParam>
          <VectorParam id="469"  name="scale">
           <InterpolatingParam id="470" interp="linr"  time="-9999999/1" value="1" leadInLength="0/1"  />
           <InterpolatingParam id="471" interp="linr"  time="-9999999/1" value="1" leadInLength="0/1"  />
           <InterpolatingParam id="472" interp="linr"  time="-9999999/1" value="1" leadInLength="0/1"  />
          </VectorParam>
          <VectorParam id="473"  name="anchor">
           <InterpolatingParam id="474" interp="linr"  time="0/1" value="0" leadInLength="0/1"  />
           <InterpolatingParam id="475" interp="linr"  time="0/1" value="0" leadInLength="0/1"  />
           <InterpolatingParam id="476" interp="linr"  time="0/1" value="0" leadInLength="0/1"  />
          </VectorParam>
         </Transformer>
         <Parameters>
          <VectorParam id="477"  name="sourceCrop">
           <InterpolatingParam id="478" interp="linr"  time="0/1" value="0" leadInLength="0/1"  />
           <InterpolatingParam id="479" interp="linr"  time="0/1" value="0" leadInLength="0/1"  />
           <InterpolatingParam id="480" interp="linr"  time="0/1" value="0" leadInLength="0/1"  />
           <InterpolatingParam id="481" interp="linr"  time="0/1" value="0" leadInLength="0/1"  />
          </VectorParam>
          <VectorParam id="482"  name="geometryCrop">
           <InterpolatingParam id="483" interp="linr"  time="-9999999/1" value="0" leadInLength="0/1"  />
           <InterpolatingParam id="484" interp="linr"  time="-9999999/1" value="0" leadInLength="0/1"  />
           <InterpolatingParam id="485" interp="linr"  time="-9999999/1" value="0" leadInLength="0/1"  />
           <InterpolatingParam id="486" interp="linr"  time="-9999999/1" value="0" leadInLength="0/1"  />
          </VectorParam>
          <InterpolatingParam id="487" interp="linr"  time="-9999999/1" value="1" leadInLength="0/1"  name="opacity"/>
         </Parameters>
         <Attributes>
          <Attribute id="488" value="" name="ident"/>
         </Attributes>
         <MetaData>
          <entry key="WinSubProjectDisplayName" val=""/>
         </MetaData>
         <ExtraData>
          <Entry key="ZoomPanBin">
           <ZoomPanBin id="489"  >
            <ZoomPanKeyframes>
             <ZoomPanKeyframe id="490" timeRangeEnd="-9999999/1" timeRangeDuration="0/1" interpolaterName="linr"  />
            </ZoomPanKeyframes>
           </ZoomPanBin>
          </Entry>
         </ExtraData>
        </IMFile>
        <IMFile id="491" start="382" duration="18" scalar="1/1" mediaStart="0/1" mediaDuration="1/1" trackNumber="0" src="22" trimStartSum="0/1" >
         <Transformer>
          <VectorParam id="492"  name="translation">
           <InterpolatingParam id="493" interp="linr"  time="-9999999/1" value="101.26923076919688" leadInLength="0/1"  />
           <InterpolatingParam id="494" interp="linr"  time="-9999999/1" value="16.500000000181235" leadInLength="0/1"  />
           <InterpolatingParam id="495" interp="linr"  time="-9999999/1" value="0" leadInLength="0/1"  />
          </VectorParam>
          <VectorParam id="496"  name="rotation">
           <InterpolatingParam id="497" interp="linr"  time="-9999999/1" value="0" leadInLength="0/1"  />
           <InterpolatingParam id="498" interp="linr"  time="-9999999/1" value="0" leadInLength="0/1"  />
           <InterpolatingParam id="499" interp="linr"  time="-9999999/1" value="0" leadInLength="0/1"  />
          </VectorParam>
          <VectorParam id="500"  name="shear">
           <InterpolatingParam id="501" interp="linr"  time="-9999999/1" value="0" leadInLength="0/1"  />
           <InterpolatingParam id="502" interp="linr"  time="-9999999/1" value="0" leadInLength="0/1"  />
           <InterpolatingParam id="503" interp="linr"  time="-9999999/1" value="0" leadInLength="0/1"  />
          </VectorParam>
          <VectorParam id="504"  name="scale">
           <InterpolatingParam id="505" interp="linr"  time="-9999999/1" value="0.98461538461538467" leadInLength="0/1"  />
           <InterpolatingParam id="506" interp="linr"  time="-9999999/1" value="0.98461538461538467" leadInLength="0/1"  />
           <InterpolatingParam id="507" interp="linr"  time="-9999999/1" value="1" leadInLength="0/1"  />
          </VectorParam>
          <VectorParam id="508"  name="anchor">
           <InterpolatingParam id="509" interp="linr"  time="0/1" value="0" leadInLength="0/1"  />
           <InterpolatingParam id="510" interp="linr"  time="0/1" value="0" leadInLength="0/1"  />
           <InterpolatingParam id="511" interp="linr"  time="0/1" value="0" leadInLength="0/1"  />
          </VectorParam>
         </Transformer>
         <Parameters>
          <VectorParam id="512"  name="sourceCrop">
           <InterpolatingParam id="513" interp="linr"  time="0/1" value="0" leadInLength="0/1"  />
           <InterpolatingParam id="514" interp="linr"  time="0/1" value="0" leadInLength="0/1"  />
           <InterpolatingParam id="515" interp="linr"  time="0/1" value="0" leadInLength="0/1"  />
           <InterpolatingParam id="516" interp="linr"  time="0/1" value="0" leadInLength="0/1"  />
          </VectorParam>
          <VectorParam id="517"  name="geometryCrop">
           <InterpolatingParam id="518" interp="linr"  time="-9999999/1" value="0" leadInLength="0/1"  />
           <InterpolatingParam id="519" interp="linr"  time="-9999999/1" value="0" leadInLength="0/1"  />
           <InterpolatingParam id="520" interp="linr"  time="-9999999/1" value="0" leadInLength="0/1"  />
           <InterpolatingParam id="521" interp="linr"  time="-9999999/1" value="0" leadInLength="0/1"  />
          </VectorParam>
          <InterpolatingParam id="522" interp="linr"  time="-9999999/1" value="1" leadInLength="0/1"  name="opacity"/>
         </Parameters>
         <Attributes>
          <Attribute id="523" value="" name="ident"/>
         </Attributes>
         <MetaData>
          <entry key="WinSubProjectDisplayName" val=""/>
         </MetaData>
         <ExtraData>
          <Entry key="ZoomPanBin">
           <ZoomPanBin id="524"  >
            <ZoomPanKeyframes>
             <ZoomPanKeyframe id="525" timeRangeEnd="-9999999/1" timeRangeDuration="0/1" interpolaterName="linr"  />
            </ZoomPanKeyframes>
           </ZoomPanBin>
          </Entry>
         </ExtraData>
        </IMFile>
        <IMFile id="526" start="400" duration="18" scalar="1/1" mediaStart="0/1" mediaDuration="1/1" trackNumber="0" src="23" trimStartSum="0/1" >
         <Transformer>
          <VectorParam id="527"  name="translation">
           <InterpolatingParam id="528" interp="linr"  time="-9999999/1" value="131.06298984036755" leadInLength="0/1"  />
           <InterpolatingParam id="529" interp="linr"  time="-9999999/1" value="10.000000000059632" leadInLength="0/1"  />
           <InterpolatingParam id="530" interp="linr"  time="-9999999/1" value="0" leadInLength="0/1"  />
          </VectorParam>
          <VectorParam id="531"  name="rotation">
           <InterpolatingParam id="532" interp="linr"  time="-9999999/1" value="0" leadInLength="0/1"  />
           <InterpolatingParam id="533" interp="linr"  time="-9999999/1" value="0" leadInLength="0/1"  />
           <InterpolatingParam id="534" interp="linr"  time="-9999999/1" value="0" leadInLength="0/1"  />
          </VectorParam>
          <VectorParam id="535"  name="shear">
           <InterpolatingParam id="536" interp="linr"  time="-9999999/1" value="0" leadInLength="0/1"  />
           <InterpolatingParam id="537" interp="linr"  time="-9999999/1" value="0" leadInLength="0/1"  />
           <InterpolatingParam id="538" interp="linr"  time="-9999999/1" value="0" leadInLength="0/1"  />
          </VectorParam>
          <VectorParam id="539"  name="scale">
           <InterpolatingParam id="540" interp="linr"  time="-9999999/1" value="0.96603773584905661" leadInLength="0/1"  />
           <InterpolatingParam id="541" interp="linr"  time="-9999999/1" value="0.96603773584905661" leadInLength="0/1"  />
           <InterpolatingParam id="542" interp="linr"  time="-9999999/1" value="1" leadInLength="0/1"  />
          </VectorParam>
          <VectorParam id="543"  name="anchor">
           <InterpolatingParam id="544" interp="linr"  time="0/1" value="0" leadInLength="0/1"  />
           <InterpolatingParam id="545" interp="linr"  time="0/1" value="0" leadInLength="0/1"  />
           <InterpolatingParam id="546" interp="linr"  time="0/1" value="0" leadInLength="0/1"  />
          </VectorParam>
         </Transformer>
         <Parameters>
          <VectorParam id="547"  name="sourceCrop">
           <InterpolatingParam id="548" interp="linr"  time="0/1" value="0" leadInLength="0/1"  />
           <InterpolatingParam id="549" interp="linr"  time="0/1" value="0" leadInLength="0/1"  />
           <InterpolatingParam id="550" interp="linr"  time="0/1" value="0" leadInLength="0/1"  />
           <InterpolatingParam id="551" interp="linr"  time="0/1" value="0" leadInLength="0/1"  />
          </VectorParam>
          <VectorParam id="552"  name="geometryCrop">
           <InterpolatingParam id="553" interp="linr"  time="-9999999/1" value="0" leadInLength="0/1"  />
           <InterpolatingParam id="554" interp="linr"  time="-9999999/1" value="0" leadInLength="0/1"  />
           <InterpolatingParam id="555" interp="linr"  time="-9999999/1" value="0" leadInLength="0/1"  />
           <InterpolatingParam id="556" interp="linr"  time="-9999999/1" value="0" leadInLength="0/1"  />
          </VectorParam>
          <InterpolatingParam id="557" interp="linr"  time="-9999999/1" value="1" leadInLength="0/1"  name="opacity"/>
         </Parameters>
         <Attributes>
          <Attribute id="558" value="" name="ident"/>
         </Attributes>
         <MetaData>
          <entry key="WinSubProjectDisplayName" val=""/>
         </MetaData>
         <ExtraData>
          <Entry key="ZoomPanBin">
           <ZoomPanBin id="559"  >
            <ZoomPanKeyframes>
             <ZoomPanKeyframe id="560" timeRangeEnd="-9999999/1" timeRangeDuration="0/1" interpolaterName="linr"  />
            </ZoomPanKeyframes>
           </ZoomPanBin>
          </Entry>
         </ExtraData>
        </IMFile>
        <IMFile id="561" start="418" duration="32" scalar="1/1" mediaStart="0/1" mediaDuration="1/1" trackNumber="0" src="24" trimStartSum="0/1" >
         <Transformer>
          <VectorParam id="562"  name="translation">
           <InterpolatingParam id="563" interp="linr"  time="-9999999/1" value="119.46108136073637" leadInLength="0/1"  />
           <InterpolatingParam id="564" interp="linr"  time="-9999999/1" value="12.500000000109182" leadInLength="0/1"  />
           <InterpolatingParam id="565" interp="linr"  time="-9999999/1" value="0" leadInLength="0/1"  />
          </VectorParam>
          <VectorParam id="566"  name="rotation">
           <InterpolatingParam id="567" interp="linr"  time="-9999999/1" value="0" leadInLength="0/1"  />
           <InterpolatingParam id="568" interp="linr"  time="-9999999/1" value="0" leadInLength="0/1"  />
           <InterpolatingParam id="569" interp="linr"  time="-9999999/1" value="0" leadInLength="0/1"  />
          </VectorParam>
          <VectorParam id="570"  name="shear">
           <InterpolatingParam id="571" interp="linr"  time="-9999999/1" value="0" leadInLength="0/1"  />
           <InterpolatingParam id="572" interp="linr"  time="-9999999/1" value="0" leadInLength="0/1"  />
           <InterpolatingParam id="573" interp="linr"  time="-9999999/1" value="0" leadInLength="0/1"  />
          </VectorParam>
          <VectorParam id="574"  name="scale">
           <InterpolatingParam id="575" interp="linr"  time="-9999999/1" value="0.98084291187739459" leadInLength="0/1"  />
           <InterpolatingParam id="576" interp="linr"  time="-9999999/1" value="0.98084291187739459" leadInLength="0/1"  />
           <InterpolatingParam id="577" interp="linr"  time="-9999999/1" value="1" leadInLength="0/1"  />
          </VectorParam>
          <VectorParam id="578"  name="anchor">
           <InterpolatingParam id="579" interp="linr"  time="0/1" value="0" leadInLength="0/1"  />
           <InterpolatingParam id="580" interp="linr"  time="0/1" value="0" leadInLength="0/1"  />
           <InterpolatingParam id="581" interp="linr"  time="0/1" value="0" leadInLength="0/1"  />
          </VectorParam>
         </Transformer>
         <Parameters>
          <VectorParam id="582"  name="sourceCrop">
           <InterpolatingParam id="583" interp="linr"  time="0/1" value="0" leadInLength="0/1"  />
           <InterpolatingParam id="584" interp="linr"  time="0/1" value="0" leadInLength="0/1"  />
           <InterpolatingParam id="585" interp="linr"  time="0/1" value="0" leadInLength="0/1"  />
           <InterpolatingParam id="586" interp="linr"  time="0/1" value="0" leadInLength="0/1"  />
          </VectorParam>
          <VectorParam id="587"  name="geometryCrop">
           <InterpolatingParam id="588" interp="linr"  time="-9999999/1" value="0" leadInLength="0/1"  />
           <InterpolatingParam id="589" interp="linr"  time="-9999999/1" value="0" leadInLength="0/1"  />
           <InterpolatingParam id="590" interp="linr"  time="-9999999/1" value="0" leadInLength="0/1"  />
           <InterpolatingParam id="591" interp="linr"  time="-9999999/1" value="0" leadInLength="0/1"  />
          </VectorParam>
          <InterpolatingParam id="592" interp="linr"  time="-9999999/1" value="1" leadInLength="0/1"  name="opacity"/>
         </Parameters>
         <Attributes>
          <Attribute id="593" value="" name="ident"/>
         </Attributes>
         <MetaData>
          <entry key="WinSubProjectDisplayName" val=""/>
         </MetaData>
         <ExtraData>
          <Entry key="ZoomPanBin">
           <ZoomPanBin id="594"  >
            <ZoomPanKeyframes>
             <ZoomPanKeyframe id="595" timeRangeEnd="-9999999/1" timeRangeDuration="0/1" interpolaterName="linr"  />
            </ZoomPanKeyframes>
           </ZoomPanBin>
          </Entry>
         </ExtraData>
        </IMFile>
        <IMFile id="596" start="450" duration="18" scalar="1/1" mediaStart="0/1" mediaDuration="1/1" trackNumber="0" src="25" trimStartSum="0/1" >
         <Transformer>
          <VectorParam id="597"  name="translation">
           <InterpolatingParam id="598" interp="linr"  time="-9999999/1" value="107.99999999997853" leadInLength="0/1"  />
           <InterpolatingParam id="599" interp="linr"  time="-9999999/1" value="10.9999999999979" leadInLength="0/1"  />
           <InterpolatingParam id="600" interp="linr"  time="-9999999/1" value="0" leadInLength="0/1"  />
          </VectorParam>
          <VectorParam id="601"  name="rotation">
           <InterpolatingParam id="602" interp="linr"  time="-9999999/1" value="0" leadInLength="0/1"  />
           <InterpolatingParam id="603" interp="linr"  time="-9999999/1" value="0" leadInLength="0/1"  />
           <InterpolatingParam id="604" interp="linr"  time="-9999999/1" value="0" leadInLength="0/1"  />
          </VectorParam>
          <VectorParam id="605"  name="shear">
           <InterpolatingParam id="606" interp="linr"  time="-9999999/1" value="0" leadInLength="0/1"  />
           <InterpolatingParam id="607" interp="linr"  time="-9999999/1" value="0" leadInLength="0/1"  />
           <InterpolatingParam id="608" interp="linr"  time="-9999999/1" value="0" leadInLength="0/1"  />
          </VectorParam>
          <VectorParam id="609"  name="scale">
           <InterpolatingParam id="610" interp="linr"  time="-9999999/1" value="0.82580645161290323" leadInLength="0/1"  />
           <InterpolatingParam id="611" interp="linr"  time="-9999999/1" value="0.82580645161290323" leadInLength="0/1"  />
           <InterpolatingParam id="612" interp="linr"  time="-9999999/1" value="1" leadInLength="0/1"  />
          </VectorParam>
          <VectorParam id="613"  name="anchor">
           <InterpolatingParam id="614" interp="linr"  time="0/1" value="0" leadInLength="0/1"  />
           <InterpolatingParam id="615" interp="linr"  time="0/1" value="0" leadInLength="0/1"  />
           <InterpolatingParam id="616" interp="linr"  time="0/1" value="0" leadInLength="0/1"  />
          </VectorParam>
         </Transformer>
         <Parameters>
          <VectorParam id="617"  name="sourceCrop">
           <InterpolatingParam id="618" interp="linr"  time="0/1" value="0" leadInLength="0/1"  />
           <InterpolatingParam id="619" interp="linr"  time="0/1" value="0" leadInLength="0/1"  />
           <InterpolatingParam id="620" interp="linr"  time="0/1" value="0" leadInLength="0/1"  />
           <InterpolatingParam id="621" interp="linr"  time="0/1" value="0" leadInLength="0/1"  />
          </VectorParam>
          <VectorParam id="622"  name="geometryCrop">
           <InterpolatingParam id="623" interp="linr"  time="-9999999/1" value="0" leadInLength="0/1"  />
           <InterpolatingParam id="624" interp="linr"  time="-9999999/1" value="0" leadInLength="0/1"  />
           <InterpolatingParam id="625" interp="linr"  time="-9999999/1" value="0" leadInLength="0/1"  />
           <InterpolatingParam id="626" interp="linr"  time="-9999999/1" value="0" leadInLength="0/1"  />
          </VectorParam>
          <InterpolatingParam id="627" interp="linr"  time="-9999999/1" value="1" leadInLength="0/1"  name="opacity"/>
         </Parameters>
         <Attributes>
          <Attribute id="628" value="" name="ident"/>
         </Attributes>
         <MetaData>
          <entry key="WinSubProjectDisplayName" val=""/>
         </MetaData>
         <ExtraData>
          <Entry key="ZoomPanBin">
           <ZoomPanBin id="629"  >
            <ZoomPanKeyframes>
             <ZoomPanKeyframe id="630" timeRangeEnd="-9999999/1" timeRangeDuration="0/1" interpolaterName="linr"  />
            </ZoomPanKeyframes>
           </ZoomPanBin>
          </Entry>
         </ExtraData>
        </IMFile>
        <IMFile id="631" start="468" duration="18" scalar="1/1" mediaStart="0/1" mediaDuration="1/1" trackNumber="0" src="26" trimStartSum="0/1" >
         <Transformer>
          <VectorParam id="632"  name="translation">
           <InterpolatingParam id="633" interp="linr"  time="-9999999/1" value="160.999999999929" leadInLength="0/1"  />
           <InterpolatingParam id="634" interp="linr"  time="-9999999/1" value="6.4999999999968612" leadInLength="0/1"  />
           <InterpolatingParam id="635" interp="linr"  time="-9999999/1" value="0" leadInLength="0/1"  />
          </VectorParam>
          <VectorParam id="636"  name="rotation">
           <InterpolatingParam id="637" interp="linr"  time="-9999999/1" value="0" leadInLength="0/1"  />
           <InterpolatingParam id="638" interp="linr"  time="-9999999/1" value="0" leadInLength="0/1"  />
           <InterpolatingParam id="639" interp="linr"  time="-9999999/1" value="0" leadInLength="0/1"  />
          </VectorParam>
          <VectorParam id="640"  name="shear">
           <InterpolatingParam id="641" interp="linr"  time="-9999999/1" value="0" leadInLength="0/1"  />
           <InterpolatingParam id="642" interp="linr"  time="-9999999/1" value="0" leadInLength="0/1"  />
           <InterpolatingParam id="643" interp="linr"  time="-9999999/1" value="0" leadInLength="0/1"  />
          </VectorParam>
          <VectorParam id="644"  name="scale">
           <InterpolatingParam id="645" interp="linr"  time="-9999999/1" value="0.82847896440129454" leadInLength="0/1"  />
           <InterpolatingParam id="646" interp="linr"  time="-9999999/1" value="0.82847896440129454" leadInLength="0/1"  />
           <InterpolatingParam id="647" interp="linr"  time="-9999999/1" value="1" leadInLength="0/1"  />
          </VectorParam>
          <VectorParam id="648"  name="anchor">
           <InterpolatingParam id="649" interp="linr"  time="0/1" value="0" leadInLength="0/1"  />
           <InterpolatingParam id="650" interp="linr"  time="0/1" value="0" leadInLength="0/1"  />
           <InterpolatingParam id="651" interp="linr"  time="0/1" value="0" leadInLength="0/1"  />
          </VectorParam>
         </Transformer>
         <Parameters>
          <VectorParam id="652"  name="sourceCrop">
           <InterpolatingParam id="653" interp="linr"  time="0/1" value="0" leadInLength="0/1"  />
           <InterpolatingParam id="654" interp="linr"  time="0/1" value="0" leadInLength="0/1"  />
           <InterpolatingParam id="655" interp="linr"  time="0/1" value="0" leadInLength="0/1"  />
           <InterpolatingParam id="656" interp="linr"  time="0/1" value="0" leadInLength="0/1"  />
          </VectorParam>
          <VectorParam id="657"  name="geometryCrop">
           <InterpolatingParam id="658" interp="linr"  time="-9999999/1" value="0" leadInLength="0/1"  />
           <InterpolatingParam id="659" interp="linr"  time="-9999999/1" value="0" leadInLength="0/1"  />
           <InterpolatingParam id="660" interp="linr"  time="-9999999/1" value="0" leadInLength="0/1"  />
           <InterpolatingParam id="661" interp="linr"  time="-9999999/1" value="0" leadInLength="0/1"  />
          </VectorParam>
          <InterpolatingParam id="662" interp="linr"  time="-9999999/1" value="1" leadInLength="0/1"  name="opacity"/>
         </Parameters>
         <Attributes>
          <Attribute id="663" value="" name="ident"/>
         </Attributes>
         <MetaData>
          <entry key="WinSubProjectDisplayName" val=""/>
         </MetaData>
         <ExtraData>
          <Entry key="ZoomPanBin">
           <ZoomPanBin id="664"  >
            <ZoomPanKeyframes>
             <ZoomPanKeyframe id="665" timeRangeEnd="-9999999/1" timeRangeDuration="0/1" interpolaterName="linr"  />
            </ZoomPanKeyframes>
           </ZoomPanBin>
          </Entry>
         </ExtraData>
        </IMFile>
        <IMFile id="666" start="486" duration="18" scalar="1/1" mediaStart="0/1" mediaDuration="1/1" trackNumber="0" src="27" trimStartSum="0/1" >
         <Transformer>
          <VectorParam id="667"  name="translation">
           <InterpolatingParam id="668" interp="linr"  time="-9999999/1" value="202.92641509439571" leadInLength="0/1"  />
           <InterpolatingParam id="669" interp="linr"  time="-9999999/1" value="-30.999999999996177" leadInLength="0/1"  />
           <InterpolatingParam id="670" interp="linr"  time="-9999999/1" value="3.4106051316482875e-010" leadInLength="0/1"  />
          </VectorParam>
          <VectorParam id="671"  name="rotation">
           <InterpolatingParam id="672" interp="linr"  time="-9999999/1" value="0" leadInLength="0/1"  />
           <InterpolatingParam id="673" interp="linr"  time="-9999999/1" value="0" leadInLength="0/1"  />
           <InterpolatingParam id="674" interp="linr"  time="-9999999/1" value="0" leadInLength="0/1"  />
          </VectorParam>
          <VectorParam id="675"  name="shear">
           <InterpolatingParam id="676" interp="linr"  time="-9999999/1" value="0" leadInLength="0/1"  />
           <InterpolatingParam id="677" interp="linr"  time="-9999999/1" value="0" leadInLength="0/1"  />
           <InterpolatingParam id="678" interp="linr"  time="-9999999/1" value="0" leadInLength="0/1"  />
          </VectorParam>
          <VectorParam id="679"  name="scale">
           <InterpolatingParam id="680" interp="linr"  time="-9999999/1" value="0.20754716981127427" leadInLength="0/1"  />
           <InterpolatingParam id="681" interp="linr"  time="-9999999/1" value="0.20754716981127427" leadInLength="0/1"  />
           <InterpolatingParam id="682" interp="linr"  time="-9999999/1" value="1" leadInLength="0/1"  />
          </VectorParam>
          <VectorParam id="683"  name="anchor">
           <InterpolatingParam id="684" interp="linr"  time="0/1" value="0" leadInLength="0/1"  />
           <InterpolatingParam id="685" interp="linr"  time="0/1" value="0" leadInLength="0/1"  />
           <InterpolatingParam id="686" interp="linr"  time="0/1" value="0" leadInLength="0/1"  />
          </VectorParam>
         </Transformer>
         <Parameters>
          <VectorParam id="687"  name="sourceCrop">
           <InterpolatingParam id="688" interp="linr"  time="0/1" value="0" leadInLength="0/1"  />
           <InterpolatingParam id="689" interp="linr"  time="0/1" value="0" leadInLength="0/1"  />
           <InterpolatingParam id="690" interp="linr"  time="0/1" value="0" leadInLength="0/1"  />
           <InterpolatingParam id="691" interp="linr"  time="0/1" value="0" leadInLength="0/1"  />
          </VectorParam>
          <VectorParam id="692"  name="geometryCrop">
           <InterpolatingParam id="693" interp="linr"  time="-9999999/1" value="0" leadInLength="0/1"  />
           <InterpolatingParam id="694" interp="linr"  time="-9999999/1" value="0" leadInLength="0/1"  />
           <InterpolatingParam id="695" interp="linr"  time="-9999999/1" value="0" leadInLength="0/1"  />
           <InterpolatingParam id="696" interp="linr"  time="-9999999/1" value="0" leadInLength="0/1"  />
          </VectorParam>
          <InterpolatingParam id="697" interp="linr"  time="-9999999/1" value="1" leadInLength="0/1"  name="opacity"/>
         </Parameters>
         <Attributes>
          <Attribute id="698" value="" name="ident"/>
         </Attributes>
         <MetaData>
          <entry key="WinSubProjectDisplayName" val=""/>
         </MetaData>
         <ExtraData>
          <Entry key="ZoomPanBin">
           <ZoomPanBin id="699"  >
            <ZoomPanKeyframes>
             <ZoomPanKeyframe id="700" timeRangeEnd="-9999999/1" timeRangeDuration="0/1" interpolaterName="linr"  />
            </ZoomPanKeyframes>
           </ZoomPanBin>
          </Entry>
         </ExtraData>
        </IMFile>
       </Medias>
      </GenericTrack>
      <GenericTrack id="701"  >
       <Attributes>
        <Attribute id="702" value="" name="ident"/>
       </Attributes>
       <MetaData>
        <entry key="IsLocked" val="False"/>
        <entry key="WinTrackHeight" val="63"/>
       </MetaData>
       <Medias>
        <IMFile id="703" start="0" duration="9" scalar="1/1" mediaStart="0/1" mediaDuration="1/1" trackNumber="0" src="4" trimStartSum="0/1" >
         <Transformer>
          <VectorParam id="704"  name="translation">
           <InterpolatingParam id="705" interp="linr"  time="-9999999/1" value="-0.5" leadInLength="0/1"  />
           <InterpolatingParam id="706" interp="linr"  time="-9999999/1" value="0" leadInLength="0/1"  />
           <InterpolatingParam id="707" interp="linr"  time="-9999999/1" value="0" leadInLength="0/1"  />
          </VectorParam>
          <VectorParam id="708"  name="rotation">
           <InterpolatingParam id="709" interp="linr"  time="-9999999/1" value="0" leadInLength="0/1"  />
           <InterpolatingParam id="710" interp="linr"  time="-9999999/1" value="0" leadInLength="0/1"  />
           <InterpolatingParam id="711" interp="linr"  time="-9999999/1" value="0" leadInLength="0/1"  />
          </VectorParam>
          <VectorParam id="712"  name="shear">
           <InterpolatingParam id="713" interp="linr"  time="-9999999/1" value="0" leadInLength="0/1"  />
           <InterpolatingParam id="714" interp="linr"  time="-9999999/1" value="0" leadInLength="0/1"  />
           <InterpolatingParam id="715" interp="linr"  time="-9999999/1" value="0" leadInLength="0/1"  />
          </VectorParam>
          <VectorParam id="716"  name="scale">
           <InterpolatingParam id="717" interp="linr"  time="-9999999/1" value="1" leadInLength="0/1"  />
           <InterpolatingParam id="718" interp="linr"  time="-9999999/1" value="1" leadInLength="0/1"  />
           <InterpolatingParam id="719" interp="linr"  time="-9999999/1" value="1" leadInLength="0/1"  />
          </VectorParam>
          <VectorParam id="720"  name="anchor">
           <InterpolatingParam id="721" interp="linr"  time="0/1" value="0" leadInLength="0/1"  />
           <InterpolatingParam id="722" interp="linr"  time="0/1" value="0" leadInLength="0/1"  />
           <InterpolatingParam id="723" interp="linr"  time="0/1" value="0" leadInLength="0/1"  />
          </VectorParam>
         </Transformer>
         <Parameters>
          <VectorParam id="724"  name="sourceCrop">
           <InterpolatingParam id="725" interp="linr"  time="0/1" value="0" leadInLength="0/1"  />
           <InterpolatingParam id="726" interp="linr"  time="0/1" value="0" leadInLength="0/1"  />
           <InterpolatingParam id="727" interp="linr"  time="0/1" value="0" leadInLength="0/1"  />
           <InterpolatingParam id="728" interp="linr"  time="0/1" value="0" leadInLength="0/1"  />
          </VectorParam>
          <VectorParam id="729"  name="geometryCrop">
           <InterpolatingParam id="730" interp="linr"  time="-9999999/1" value="0" leadInLength="0/1"  />
           <InterpolatingParam id="731" interp="linr"  time="-9999999/1" value="0" leadInLength="0/1"  />
           <InterpolatingParam id="732" interp="linr"  time="-9999999/1" value="0" leadInLength="0/1"  />
           <InterpolatingParam id="733" interp="linr"  time="-9999999/1" value="0" leadInLength="0/1"  />
          </VectorParam>
          <InterpolatingParam id="734" interp="linr"  time="-9999999/1" value="1" leadInLength="0/1"  name="opacity"/>
         </Parameters>
         <Attributes>
          <Attribute id="735" value="" name="ident"/>
         </Attributes>
         <MetaData>
          <entry key="WinSubProjectDisplayName" val=""/>
         </MetaData>
         <ExtraData>
          <Entry key="ZoomPanBin">
           <ZoomPanBin id="736"  >
            <ZoomPanKeyframes>
             <ZoomPanKeyframe id="737" timeRangeEnd="-9999999/1" timeRangeDuration="0/1" interpolaterName="linr"  />
            </ZoomPanKeyframes>
           </ZoomPanBin>
          </Entry>
         </ExtraData>
        </IMFile>
        <UnifiedMedia id="738"  >
         <AudioTransition id="739" start="9" duration="36" >
          <Parameters>
           <InterpolatingParam id="740" interp="linr"  time="0/1" value="1" leadInLength="0/1"  name="volume"/>
           <Parameter id="741"  name="captions"/>
          </Parameters>
          <Effects>
           <GenericEffect id="742" name = "AudioTransition" >
            <Parameters>
            <Parameter id="743"   name="audioEdgeModType">
             <Keyframes>
             <Keyframe id="744"  time="0/1" value="0" leadInLength="0/1"  />
             </Keyframes>
            </Parameter>
            <Parameter id="745"   name="audioTransitionType">
             <Keyframes>
             <Keyframe id="746"  time="0/1" value="" leadInLength="0/1"  />
             </Keyframes>
            </Parameter>
            </Parameters>
            <MetaData>
            </MetaData>
           </GenericEffect>
          </Effects>
          <Attributes>
           <Attribute id="747" value="" name="ident"/>
           <Attribute id="748" value="0" name="sampleRate"/>
           <Attribute id="749" value="0" name="bitDepth"/>
           <Attribute id="750" value="1" name="gain"/>
          </Attributes>
         </AudioTransition>
         <ImageTransition id="751" start="9" duration="36" >
          <Transformer>
           <VectorParam id="752"  name="translation">
            <InterpolatingParam id="753" interp="linr"  time="0/1" value="0" leadInLength="0/1"  />
            <InterpolatingParam id="754" interp="linr"  time="0/1" value="0" leadInLength="0/1"  />
            <InterpolatingParam id="755" interp="linr"  time="0/1" value="0" leadInLength="0/1"  />
           </VectorParam>
           <VectorParam id="756"  name="rotation">
            <InterpolatingParam id="757" interp="linr"  time="0/1" value="0" leadInLength="0/1"  />
            <InterpolatingParam id="758" interp="linr"  time="0/1" value="0" leadInLength="0/1"  />
            <InterpolatingParam id="759" interp="linr"  time="0/1" value="0" leadInLength="0/1"  />
           </VectorParam>
           <VectorParam id="760"  name="shear">
            <InterpolatingParam id="761" interp="linr"  time="0/1" value="0" leadInLength="0/1"  />
            <InterpolatingParam id="762" interp="linr"  time="0/1" value="0" leadInLength="0/1"  />
            <InterpolatingParam id="763" interp="linr"  time="0/1" value="0" leadInLength="0/1"  />
           </VectorParam>
           <VectorParam id="764"  name="scale">
            <InterpolatingParam id="765" interp="linr"  time="0/1" value="1" leadInLength="0/1"  />
            <InterpolatingParam id="766" interp="linr"  time="0/1" value="1" leadInLength="0/1"  />
            <InterpolatingParam id="767" interp="linr"  time="0/1" value="1" leadInLength="0/1"  />
           </VectorParam>
           <VectorParam id="768"  name="anchor">
            <InterpolatingParam id="769" interp="linr"  time="0/1" value="0" leadInLength="0/1"  />
            <InterpolatingParam id="770" interp="linr"  time="0/1" value="0" leadInLength="0/1"  />
            <InterpolatingParam id="771" interp="linr"  time="0/1" value="0" leadInLength="0/1"  />
           </VectorParam>
          </Transformer>
          <Parameters>
           <VectorParam id="772"  name="sourceCrop">
            <InterpolatingParam id="773" interp="linr"  time="0/1" value="0" leadInLength="0/1"  />
            <InterpolatingParam id="774" interp="linr"  time="0/1" value="0" leadInLength="0/1"  />
            <InterpolatingParam id="775" interp="linr"  time="0/1" value="0" leadInLength="0/1"  />
            <InterpolatingParam id="776" interp="linr"  time="0/1" value="0" leadInLength="0/1"  />
           </VectorParam>
           <VectorParam id="777"  name="geometryCrop">
            <InterpolatingParam id="778" interp="linr"  time="0/1" value="0" leadInLength="0/1"  />
            <InterpolatingParam id="779" interp="linr"  time="0/1" value="0" leadInLength="0/1"  />
            <InterpolatingParam id="780" interp="linr"  time="0/1" value="0" leadInLength="0/1"  />
            <InterpolatingParam id="781" interp="linr"  time="0/1" value="0" leadInLength="0/1"  />
           </VectorParam>
           <InterpolatingParam id="782" interp="linr"  time="0/1" value="1" leadInLength="0/1"  name="opacity"/>
          </Parameters>
          <Effects>
           <GenericEffect id="783" name = "VisualTransition" >
            <Parameters>
            <InterpolatingParam id="784" interp="linr"  time="0/1" value="0.5" leadInLength="0/1"   name="leftFramePercentage"/>
            <InterpolatingParam id="785" interp="linr"  time="0/1" value="0.5" leadInLength="0/1"   name="rightFramePercentage"/>
            <Parameter id="786"   name="visualEdgeModType">
             <Keyframes>
             <Keyframe id="787"  time="0/1" value="2" leadInLength="0/1"  />
             </Keyframes>
            </Parameter>
            <Parameter id="788"   name="visualTransitionType">
             <Keyframes>
             <Keyframe id="789"  time="0/1" value="Fade" leadInLength="0/1"  />
             </Keyframes>
            </Parameter>
            </Parameters>
            <MetaData>
            </MetaData>
           </GenericEffect>
          </Effects>
          <Attributes>
           <Attribute id="790" value="" name="ident"/>
          </Attributes>
          <ExtraData>
           <Entry key="ZoomPanBin">
            <ZoomPanBin id="791"  >
             <ZoomPanKeyframes>
             </ZoomPanKeyframes>
            </ZoomPanBin>
           </Entry>
          </ExtraData>
         </ImageTransition>
         <MetaData>
          <entry key="WinSubProjectDisplayName" val=""/>
         </MetaData>
        </UnifiedMedia>
        <IMFile id="792" start="298" duration="77" scalar="1/1" mediaStart="0/1" mediaDuration="1/1" trackNumber="0" src="21" trimStartSum="0/1" >
         <Transformer>
          <VectorParam id="793"  name="translation">
           <InterpolatingParam id="794" interp="linr"  time="-9999999/1" value="-111.99999999997709" leadInLength="0/1"  />
           <InterpolatingParam id="795" interp="linr"  time="-9999999/1" value="-25.00000000000302" leadInLength="0/1"  />
           <InterpolatingParam id="796" interp="linr"  time="-9999999/1" value="0" leadInLength="0/1"  />
          </VectorParam>
          <VectorParam id="797"  name="rotation">
           <InterpolatingParam id="798" interp="linr"  time="-9999999/1" value="0" leadInLength="0/1"  />
           <InterpolatingParam id="799" interp="linr"  time="-9999999/1" value="0" leadInLength="0/1"  />
           <InterpolatingParam id="800" interp="linr"  time="-9999999/1" value="0" leadInLength="0/1"  />
          </VectorParam>
          <VectorParam id="801"  name="shear">
           <InterpolatingParam id="802" interp="linr"  time="-9999999/1" value="0" leadInLength="0/1"  />
           <InterpolatingParam id="803" interp="linr"  time="-9999999/1" value="0" leadInLength="0/1"  />
           <InterpolatingParam id="804" interp="linr"  time="-9999999/1" value="0" leadInLength="0/1"  />
          </VectorParam>
          <VectorParam id="805"  name="scale">
           <InterpolatingParam id="806" interp="linr"  time="-9999999/1" value="1" leadInLength="0/1"  />
           <InterpolatingParam id="807" interp="linr"  time="-9999999/1" value="1" leadInLength="0/1"  />
           <InterpolatingParam id="808" interp="linr"  time="-9999999/1" value="1" leadInLength="0/1"  />
          </VectorParam>
          <VectorParam id="809"  name="anchor">
           <InterpolatingParam id="810" interp="linr"  time="0/1" value="0" leadInLength="0/1"  />
           <InterpolatingParam id="811" interp="linr"  time="0/1" value="0" leadInLength="0/1"  />
           <InterpolatingParam id="812" interp="linr"  time="0/1" value="0" leadInLength="0/1"  />
          </VectorParam>
         </Transformer>
         <Parameters>
          <VectorParam id="813"  name="sourceCrop">
           <InterpolatingParam id="814" interp="linr"  time="0/1" value="0" leadInLength="0/1"  />
           <InterpolatingParam id="815" interp="linr"  time="0/1" value="0" leadInLength="0/1"  />
           <InterpolatingParam id="816" interp="linr"  time="0/1" value="0" leadInLength="0/1"  />
           <InterpolatingParam id="817" interp="linr"  time="0/1" value="0" leadInLength="0/1"  />
          </VectorParam>
          <VectorParam id="818"  name="geometryCrop">
           <InterpolatingParam id="819" interp="linr"  time="-9999999/1" value="0" leadInLength="0/1"  />
           <InterpolatingParam id="820" interp="linr"  time="-9999999/1" value="0" leadInLength="0/1"  />
           <InterpolatingParam id="821" interp="linr"  time="-9999999/1" value="0" leadInLength="0/1"  />
           <InterpolatingParam id="822" interp="linr"  time="-9999999/1" value="0" leadInLength="0/1"  />
          </VectorParam>
          <InterpolatingParam id="823" interp="linr"  time="-9999999/1" value="1" leadInLength="0/1"  name="opacity"/>
         </Parameters>
         <Attributes>
          <Attribute id="824" value="" name="ident"/>
         </Attributes>
         <MetaData>
          <entry key="WinSubProjectDisplayName" val=""/>
         </MetaData>
         <ExtraData>
          <Entry key="ZoomPanBin">
           <ZoomPanBin id="825"  >
            <ZoomPanKeyframes>
             <ZoomPanKeyframe id="826" timeRangeEnd="-9999999/1" timeRangeDuration="0/1" interpolaterName="linr"  />
            </ZoomPanKeyframes>
           </ZoomPanBin>
          </Entry>
         </ExtraData>
        </IMFile>
        <IMFile id="827" start="377" duration="2" scalar="1/1" mediaStart="0/1" mediaDuration="1/1" trackNumber="0" src="21" trimStartSum="0/1" >
         <Transformer>
          <VectorParam id="828"  name="translation">
           <InterpolatingParam id="829" interp="linr"  time="-9999999/1" value="-111.99999999997709" leadInLength="0/1"  />
           <InterpolatingParam id="830" interp="linr"  time="-9999999/1" value="-25.00000000000302" leadInLength="0/1"  />
           <InterpolatingParam id="831" interp="linr"  time="-9999999/1" value="0" leadInLength="0/1"  />
          </VectorParam>
          <VectorParam id="832"  name="rotation">
           <InterpolatingParam id="833" interp="linr"  time="-9999999/1" value="0" leadInLength="0/1"  />
           <InterpolatingParam id="834" interp="linr"  time="-9999999/1" value="0" leadInLength="0/1"  />
           <InterpolatingParam id="835" interp="linr"  time="-9999999/1" value="0" leadInLength="0/1"  />
          </VectorParam>
          <VectorParam id="836"  name="shear">
           <InterpolatingParam id="837" interp="linr"  time="-9999999/1" value="0" leadInLength="0/1"  />
           <InterpolatingParam id="838" interp="linr"  time="-9999999/1" value="0" leadInLength="0/1"  />
           <InterpolatingParam id="839" interp="linr"  time="-9999999/1" value="0" leadInLength="0/1"  />
          </VectorParam>
          <VectorParam id="840"  name="scale">
           <InterpolatingParam id="841" interp="linr"  time="-9999999/1" value="1" leadInLength="0/1"  />
           <InterpolatingParam id="842" interp="linr"  time="-9999999/1" value="1" leadInLength="0/1"  />
           <InterpolatingParam id="843" interp="linr"  time="-9999999/1" value="1" leadInLength="0/1"  />
          </VectorParam>
          <VectorParam id="844"  name="anchor">
           <InterpolatingParam id="845" interp="linr"  time="0/1" value="0" leadInLength="0/1"  />
           <InterpolatingParam id="846" interp="linr"  time="0/1" value="0" leadInLength="0/1"  />
           <InterpolatingParam id="847" interp="linr"  time="0/1" value="0" leadInLength="0/1"  />
          </VectorParam>
         </Transformer>
         <Parameters>
          <VectorParam id="848"  name="sourceCrop">
           <InterpolatingParam id="849" interp="linr"  time="0/1" value="0" leadInLength="0/1"  />
           <InterpolatingParam id="850" interp="linr"  time="0/1" value="0" leadInLength="0/1"  />
           <InterpolatingParam id="851" interp="linr"  time="0/1" value="0" leadInLength="0/1"  />
           <InterpolatingParam id="852" interp="linr"  time="0/1" value="0" leadInLength="0/1"  />
          </VectorParam>
          <VectorParam id="853"  name="geometryCrop">
           <InterpolatingParam id="854" interp="linr"  time="-9999999/1" value="0" leadInLength="0/1"  />
           <InterpolatingParam id="855" interp="linr"  time="-9999999/1" value="0" leadInLength="0/1"  />
           <InterpolatingParam id="856" interp="linr"  time="-9999999/1" value="0" leadInLength="0/1"  />
           <InterpolatingParam id="857" interp="linr"  time="-9999999/1" value="0" leadInLength="0/1"  />
          </VectorParam>
          <InterpolatingParam id="858" interp="linr"  time="-9999999/1" value="1" leadInLength="0/1"  name="opacity"/>
         </Parameters>
         <Attributes>
          <Attribute id="859" value="" name="ident"/>
         </Attributes>
         <MetaData>
          <entry key="WinSubProjectDisplayName" val=""/>
         </MetaData>
         <ExtraData>
          <Entry key="ZoomPanBin">
           <ZoomPanBin id="860"  >
            <ZoomPanKeyframes>
             <ZoomPanKeyframe id="861" timeRangeEnd="-9999999/1" timeRangeDuration="0/1" interpolaterName="linr"  />
            </ZoomPanKeyframes>
           </ZoomPanBin>
          </Entry>
         </ExtraData>
        </IMFile>
        <IMFile id="862" start="382" duration="122" scalar="1/1" mediaStart="0/1" mediaDuration="1/1" trackNumber="0" src="21" trimStartSum="0/1" >
         <Transformer>
          <VectorParam id="863"  name="translation">
           <InterpolatingParam id="864" interp="linr"  time="-9999999/1" value="-111.99999999997709" leadInLength="0/1"  />
           <InterpolatingParam id="865" interp="linr"  time="-9999999/1" value="-25.00000000000302" leadInLength="0/1"  />
           <InterpolatingParam id="866" interp="linr"  time="-9999999/1" value="0" leadInLength="0/1"  />
          </VectorParam>
          <VectorParam id="867"  name="rotation">
           <InterpolatingParam id="868" interp="linr"  time="-9999999/1" value="0" leadInLength="0/1"  />
           <InterpolatingParam id="869" interp="linr"  time="-9999999/1" value="0" leadInLength="0/1"  />
           <InterpolatingParam id="870" interp="linr"  time="-9999999/1" value="0" leadInLength="0/1"  />
          </VectorParam>
          <VectorParam id="871"  name="shear">
           <InterpolatingParam id="872" interp="linr"  time="-9999999/1" value="0" leadInLength="0/1"  />
           <InterpolatingParam id="873" interp="linr"  time="-9999999/1" value="0" leadInLength="0/1"  />
           <InterpolatingParam id="874" interp="linr"  time="-9999999/1" value="0" leadInLength="0/1"  />
          </VectorParam>
          <VectorParam id="875"  name="scale">
           <InterpolatingParam id="876" interp="linr"  time="-9999999/1" value="1" leadInLength="0/1"  />
           <InterpolatingParam id="877" interp="linr"  time="-9999999/1" value="1" leadInLength="0/1"  />
           <InterpolatingParam id="878" interp="linr"  time="-9999999/1" value="1" leadInLength="0/1"  />
          </VectorParam>
          <VectorParam id="879"  name="anchor">
           <InterpolatingParam id="880" interp="linr"  time="0/1" value="0" leadInLength="0/1"  />
           <InterpolatingParam id="881" interp="linr"  time="0/1" value="0" leadInLength="0/1"  />
           <InterpolatingParam id="882" interp="linr"  time="0/1" value="0" leadInLength="0/1"  />
          </VectorParam>
         </Transformer>
         <Parameters>
          <VectorParam id="883"  name="sourceCrop">
           <InterpolatingParam id="884" interp="linr"  time="0/1" value="0" leadInLength="0/1"  />
           <InterpolatingParam id="885" interp="linr"  time="0/1" value="0" leadInLength="0/1"  />
           <InterpolatingParam id="886" interp="linr"  time="0/1" value="0" leadInLength="0/1"  />
           <InterpolatingParam id="887" interp="linr"  time="0/1" value="0" leadInLength="0/1"  />
          </VectorParam>
          <VectorParam id="888"  name="geometryCrop">
           <InterpolatingParam id="889" interp="linr"  time="-9999999/1" value="0" leadInLength="0/1"  />
           <InterpolatingParam id="890" interp="linr"  time="-9999999/1" value="0" leadInLength="0/1"  />
           <InterpolatingParam id="891" interp="linr"  time="-9999999/1" value="0" leadInLength="0/1"  />
           <InterpolatingParam id="892" interp="linr"  time="-9999999/1" value="0" leadInLength="0/1"  />
          </VectorParam>
          <InterpolatingParam id="893" interp="linr"  time="-9999999/1" value="1" leadInLength="0/1"  name="opacity"/>
         </Parameters>
         <Attributes>
          <Attribute id="894" value="" name="ident"/>
         </Attributes>
         <MetaData>
          <entry key="WinSubProjectDisplayName" val=""/>
         </MetaData>
         <ExtraData>
          <Entry key="ZoomPanBin">
           <ZoomPanBin id="895"  >
            <ZoomPanKeyframes>
             <ZoomPanKeyframe id="896" timeRangeEnd="-9999999/1" timeRangeDuration="0/1" interpolaterName="linr"  />
            </ZoomPanKeyframes>
           </ZoomPanBin>
          </Entry>
         </ExtraData>
        </IMFile>
       </Medias>
      </GenericTrack>
      <GenericTrack id="897"  >
       <Attributes>
        <Attribute id="898" value="" name="ident"/>
       </Attributes>
       <MetaData>
        <entry key="IsLocked" val="False"/>
        <entry key="WinTrackHeight" val="65"/>
       </MetaData>
       <Medias>
        <IMFile id="899" start="113" duration="2" scalar="1/1" mediaStart="0/1" mediaDuration="1/1" trackNumber="0" src="8" trimStartSum="0/1" >
         <Transformer>
          <VectorParam id="900"  name="translation">
           <InterpolatingParam id="901" interp="linr"  time="-9999999/1" value="-80.000000000020492" leadInLength="0/1"  />
           <InterpolatingParam id="902" interp="linr"  time="-9999999/1" value="12.500000000033314" leadInLength="0/1"  />
           <InterpolatingParam id="903" interp="linr"  time="-9999999/1" value="0" leadInLength="0/1"  />
          </VectorParam>
          <VectorParam id="904"  name="rotation">
           <InterpolatingParam id="905" interp="linr"  time="-9999999/1" value="0" leadInLength="0/1"  />
           <InterpolatingParam id="906" interp="linr"  time="-9999999/1" value="0" leadInLength="0/1"  />
           <InterpolatingParam id="907" interp="linr"  time="-9999999/1" value="0" leadInLength="0/1"  />
          </VectorParam>
          <VectorParam id="908"  name="shear">
           <InterpolatingParam id="909" interp="linr"  time="-9999999/1" value="0" leadInLength="0/1"  />
           <InterpolatingParam id="910" interp="linr"  time="-9999999/1" value="0" leadInLength="0/1"  />
           <InterpolatingParam id="911" interp="linr"  time="-9999999/1" value="0" leadInLength="0/1"  />
          </VectorParam>
          <VectorParam id="912"  name="scale">
           <InterpolatingParam id="913" interp="linr"  time="-9999999/1" value="1" leadInLength="0/1"  />
           <InterpolatingParam id="914" interp="linr"  time="-9999999/1" value="1" leadInLength="0/1"  />
           <InterpolatingParam id="915" interp="linr"  time="-9999999/1" value="1" leadInLength="0/1"  />
          </VectorParam>
          <VectorParam id="916"  name="anchor">
           <InterpolatingParam id="917" interp="linr"  time="0/1" value="0" leadInLength="0/1"  />
           <InterpolatingParam id="918" interp="linr"  time="0/1" value="0" leadInLength="0/1"  />
           <InterpolatingParam id="919" interp="linr"  time="0/1" value="0" leadInLength="0/1"  />
          </VectorParam>
         </Transformer>
         <Parameters>
          <VectorParam id="920"  name="sourceCrop">
           <InterpolatingParam id="921" interp="linr"  time="0/1" value="0" leadInLength="0/1"  />
           <InterpolatingParam id="922" interp="linr"  time="0/1" value="0" leadInLength="0/1"  />
           <InterpolatingParam id="923" interp="linr"  time="0/1" value="0" leadInLength="0/1"  />
           <InterpolatingParam id="924" interp="linr"  time="0/1" value="0" leadInLength="0/1"  />
          </VectorParam>
          <VectorParam id="925"  name="geometryCrop">
           <InterpolatingParam id="926" interp="linr"  time="-9999999/1" value="0" leadInLength="0/1"  />
           <InterpolatingParam id="927" interp="linr"  time="-9999999/1" value="0" leadInLength="0/1"  />
           <InterpolatingParam id="928" interp="linr"  time="-9999999/1" value="0" leadInLength="0/1"  />
           <InterpolatingParam id="929" interp="linr"  time="-9999999/1" value="0" leadInLength="0/1"  />
          </VectorParam>
          <InterpolatingParam id="930" interp="linr"  time="-9999999/1" value="1" leadInLength="0/1"  name="opacity"/>
         </Parameters>
         <Attributes>
          <Attribute id="931" value="" name="ident"/>
         </Attributes>
         <MetaData>
          <entry key="WinSubProjectDisplayName" val=""/>
         </MetaData>
         <ExtraData>
          <Entry key="ZoomPanBin">
           <ZoomPanBin id="932"  >
            <ZoomPanKeyframes>
             <ZoomPanKeyframe id="933" timeRangeEnd="-9999999/1" timeRangeDuration="0/1" interpolaterName="linr"  />
            </ZoomPanKeyframes>
           </ZoomPanBin>
          </Entry>
         </ExtraData>
        </IMFile>
        <IMFile id="934" start="117" duration="2" scalar="1/1" mediaStart="0/1" mediaDuration="1/1" trackNumber="0" src="8" trimStartSum="0/1" >
         <Transformer>
          <VectorParam id="935"  name="translation">
           <InterpolatingParam id="936" interp="linr"  time="-9999999/1" value="-80.000000000020492" leadInLength="0/1"  />
           <InterpolatingParam id="937" interp="linr"  time="-9999999/1" value="12.500000000033314" leadInLength="0/1"  />
           <InterpolatingParam id="938" interp="linr"  time="-9999999/1" value="0" leadInLength="0/1"  />
          </VectorParam>
          <VectorParam id="939"  name="rotation">
           <InterpolatingParam id="940" interp="linr"  time="-9999999/1" value="0" leadInLength="0/1"  />
           <InterpolatingParam id="941" interp="linr"  time="-9999999/1" value="0" leadInLength="0/1"  />
           <InterpolatingParam id="942" interp="linr"  time="-9999999/1" value="0" leadInLength="0/1"  />
          </VectorParam>
          <VectorParam id="943"  name="shear">
           <InterpolatingParam id="944" interp="linr"  time="-9999999/1" value="0" leadInLength="0/1"  />
           <InterpolatingParam id="945" interp="linr"  time="-9999999/1" value="0" leadInLength="0/1"  />
           <InterpolatingParam id="946" interp="linr"  time="-9999999/1" value="0" leadInLength="0/1"  />
          </VectorParam>
          <VectorParam id="947"  name="scale">
           <InterpolatingParam id="948" interp="linr"  time="-9999999/1" value="1" leadInLength="0/1"  />
           <InterpolatingParam id="949" interp="linr"  time="-9999999/1" value="1" leadInLength="0/1"  />
           <InterpolatingParam id="950" interp="linr"  time="-9999999/1" value="1" leadInLength="0/1"  />
          </VectorParam>
          <VectorParam id="951"  name="anchor">
           <InterpolatingParam id="952" interp="linr"  time="0/1" value="0" leadInLength="0/1"  />
           <InterpolatingParam id="953" interp="linr"  time="0/1" value="0" leadInLength="0/1"  />
           <InterpolatingParam id="954" interp="linr"  time="0/1" value="0" leadInLength="0/1"  />
          </VectorParam>
         </Transformer>
         <Parameters>
          <VectorParam id="955"  name="sourceCrop">
           <InterpolatingParam id="956" interp="linr"  time="0/1" value="0" leadInLength="0/1"  />
           <InterpolatingParam id="957" interp="linr"  time="0/1" value="0" leadInLength="0/1"  />
           <InterpolatingParam id="958" interp="linr"  time="0/1" value="0" leadInLength="0/1"  />
           <InterpolatingParam id="959" interp="linr"  time="0/1" value="0" leadInLength="0/1"  />
          </VectorParam>
          <VectorParam id="960"  name="geometryCrop">
           <InterpolatingParam id="961" interp="linr"  time="-9999999/1" value="0" leadInLength="0/1"  />
           <InterpolatingParam id="962" interp="linr"  time="-9999999/1" value="0" leadInLength="0/1"  />
           <InterpolatingParam id="963" interp="linr"  time="-9999999/1" value="0" leadInLength="0/1"  />
           <InterpolatingParam id="964" interp="linr"  time="-9999999/1" value="0" leadInLength="0/1"  />
          </VectorParam>
          <InterpolatingParam id="965" interp="linr"  time="-9999999/1" value="1" leadInLength="0/1"  name="opacity"/>
         </Parameters>
         <Attributes>
          <Attribute id="966" value="" name="ident"/>
         </Attributes>
         <MetaData>
          <entry key="WinSubProjectDisplayName" val=""/>
         </MetaData>
         <ExtraData>
          <Entry key="ZoomPanBin">
           <ZoomPanBin id="967"  >
            <ZoomPanKeyframes>
             <ZoomPanKeyframe id="968" timeRangeEnd="-9999999/1" timeRangeDuration="0/1" interpolaterName="linr"  />
            </ZoomPanKeyframes>
           </ZoomPanBin>
          </Entry>
         </ExtraData>
        </IMFile>
        <IMFile id="969" start="124" duration="2" scalar="1/1" mediaStart="0/1" mediaDuration="1/1" trackNumber="0" src="8" trimStartSum="0/1" >
         <Transformer>
          <VectorParam id="970"  name="translation">
           <InterpolatingParam id="971" interp="linr"  >
            <Keyframes>
            <Keyframe id="972"  time="-9999999/1" value="-80.000000000020492" leadInLength="0/1"  />
            <Keyframe id="973"  time="0/1" value="-72.938547486025641" leadInLength="1/1"  interpolater="leadin-linr"  />
            </Keyframes>
           </InterpolatingParam>
           <InterpolatingParam id="974" interp="linr"  >
            <Keyframes>
            <Keyframe id="975"  time="-9999999/1" value="12.500000000033314" leadInLength="0/1"  />
            <Keyframe id="976"  time="0/1" value="5.959031657348806" leadInLength="1/1"  interpolater="leadin-linr"  />
            </Keyframes>
           </InterpolatingParam>
           <InterpolatingParam id="977" interp="linr"  >
            <Keyframes>
            <Keyframe id="978"  time="-9999999/1" value="0" leadInLength="0/1"  />
            <Keyframe id="979"  time="0/1" value="0" leadInLength="1/1"  interpolater="leadin-linr"  />
            </Keyframes>
           </InterpolatingParam>
          </VectorParam>
          <VectorParam id="980"  name="rotation">
           <InterpolatingParam id="981" interp="linr"  >
            <Keyframes>
            <Keyframe id="982"  time="-9999999/1" value="0" leadInLength="0/1"  />
            <Keyframe id="983"  time="0/1" value="0" leadInLength="1/1"  interpolater="leadin-linr"  />
            </Keyframes>
           </InterpolatingParam>
           <InterpolatingParam id="984" interp="linr"  >
            <Keyframes>
            <Keyframe id="985"  time="-9999999/1" value="0" leadInLength="0/1"  />
            <Keyframe id="986"  time="0/1" value="0" leadInLength="1/1"  interpolater="leadin-linr"  />
            </Keyframes>
           </InterpolatingParam>
           <InterpolatingParam id="987" interp="linr"  >
            <Keyframes>
            <Keyframe id="988"  time="-9999999/1" value="0" leadInLength="0/1"  />
            <Keyframe id="989"  time="0/1" value="0" leadInLength="1/1"  interpolater="leadin-linr"  />
            </Keyframes>
           </InterpolatingParam>
          </VectorParam>
          <VectorParam id="990"  name="shear">
           <InterpolatingParam id="991" interp="linr"  >
            <Keyframes>
            <Keyframe id="992"  time="-9999999/1" value="0" leadInLength="0/1"  />
            <Keyframe id="993"  time="0/1" value="0" leadInLength="1/1"  interpolater="leadin-linr"  />
            </Keyframes>
           </InterpolatingParam>
           <InterpolatingParam id="994" interp="linr"  >
            <Keyframes>
            <Keyframe id="995"  time="-9999999/1" value="0" leadInLength="0/1"  />
            <Keyframe id="996"  time="0/1" value="0" leadInLength="1/1"  interpolater="leadin-linr"  />
            </Keyframes>
           </InterpolatingParam>
           <InterpolatingParam id="997" interp="linr"  >
            <Keyframes>
            <Keyframe id="998"  time="-9999999/1" value="0" leadInLength="0/1"  />
            <Keyframe id="999"  time="0/1" value="0" leadInLength="1/1"  interpolater="leadin-linr"  />
            </Keyframes>
           </InterpolatingParam>
          </VectorParam>
          <VectorParam id="1000"  name="scale">
           <InterpolatingParam id="1001" interp="linr"  >
            <Keyframes>
            <Keyframe id="1002"  time="-9999999/1" value="1" leadInLength="0/1"  />
            <Keyframe id="1003"  time="0/1" value="0.95344506517696237" leadInLength="1/1"  interpolater="leadin-linr"  />
            </Keyframes>
           </InterpolatingParam>
           <InterpolatingParam id="1004" interp="linr"  >
            <Keyframes>
            <Keyframe id="1005"  time="-9999999/1" value="1" leadInLength="0/1"  />
            <Keyframe id="1006"  time="0/1" value="0.95344506517696248" leadInLength="1/1"  interpolater="leadin-linr"  />
            </Keyframes>
           </InterpolatingParam>
           <InterpolatingParam id="1007" interp="linr"  >
            <Keyframes>
            <Keyframe id="1008"  time="-9999999/1" value="1" leadInLength="0/1"  />
            <Keyframe id="1009"  time="0/1" value="1" leadInLength="1/1"  interpolater="leadin-linr"  />
            </Keyframes>
           </InterpolatingParam>
          </VectorParam>
          <VectorParam id="1010"  name="anchor">
           <InterpolatingParam id="1011" interp="linr"  time="0/1" value="0" leadInLength="0/1"  />
           <InterpolatingParam id="1012" interp="linr"  time="0/1" value="0" leadInLength="0/1"  />
           <InterpolatingParam id="1013" interp="linr"  time="0/1" value="0" leadInLength="0/1"  />
          </VectorParam>
         </Transformer>
         <Parameters>
          <VectorParam id="1014"  name="sourceCrop">
           <InterpolatingParam id="1015" interp="linr"  time="0/1" value="0" leadInLength="0/1"  />
           <InterpolatingParam id="1016" interp="linr"  time="0/1" value="0" leadInLength="0/1"  />
           <InterpolatingParam id="1017" interp="linr"  time="0/1" value="0" leadInLength="0/1"  />
           <InterpolatingParam id="1018" interp="linr"  time="0/1" value="0" leadInLength="0/1"  />
          </VectorParam>
          <VectorParam id="1019"  name="geometryCrop">
           <InterpolatingParam id="1020" interp="linr"  >
            <Keyframes>
            <Keyframe id="1021"  time="-9999999/1" value="0" leadInLength="0/1"  />
            <Keyframe id="1022"  time="0/1" value="0" leadInLength="1/1"  interpolater="leadin-linr"  />
            </Keyframes>
           </InterpolatingParam>
           <InterpolatingParam id="1023" interp="linr"  >
            <Keyframes>
            <Keyframe id="1024"  time="-9999999/1" value="0" leadInLength="0/1"  />
            <Keyframe id="1025"  time="0/1" value="0" leadInLength="1/1"  interpolater="leadin-linr"  />
            </Keyframes>
           </InterpolatingParam>
           <InterpolatingParam id="1026" interp="linr"  >
            <Keyframes>
            <Keyframe id="1027"  time="-9999999/1" value="0" leadInLength="0/1"  />
            <Keyframe id="1028"  time="0/1" value="0" leadInLength="1/1"  interpolater="leadin-linr"  />
            </Keyframes>
           </InterpolatingParam>
           <InterpolatingParam id="1029" interp="linr"  >
            <Keyframes>
            <Keyframe id="1030"  time="-9999999/1" value="0" leadInLength="0/1"  />
            <Keyframe id="1031"  time="0/1" value="0" leadInLength="1/1"  interpolater="leadin-linr"  />
            </Keyframes>
           </InterpolatingParam>
          </VectorParam>
          <InterpolatingParam id="1032" interp="linr"  name="opacity">
           <Keyframes>
           <Keyframe id="1033"  time="-9999999/1" value="1" leadInLength="0/1"  />
           <Keyframe id="1034"  time="0/1" value="1" leadInLength="1/1"  interpolater="leadin-linr"  />
           </Keyframes>
          </InterpolatingParam>
         </Parameters>
         <Attributes>
          <Attribute id="1035" value="" name="ident"/>
         </Attributes>
         <MetaData>
          <entry key="WinSubProjectDisplayName" val=""/>
         </MetaData>
         <ExtraData>
          <Entry key="ZoomPanBin">
           <ZoomPanBin id="1036"  >
            <ZoomPanKeyframes>
             <ZoomPanKeyframe id="1037" timeRangeEnd="-9999999/1" timeRangeDuration="0/1" interpolaterName="linr"  />
             <ZoomPanKeyframe id="1038" timeRangeEnd="0/1" timeRangeDuration="1/1" interpolaterName="linr"  />
            </ZoomPanKeyframes>
           </ZoomPanBin>
          </Entry>
         </ExtraData>
        </IMFile>
        <IMFile id="1039" start="128" duration="2" scalar="1/1" mediaStart="0/1" mediaDuration="1/1" trackNumber="0" src="8" trimStartSum="0/1" >
         <Transformer>
          <VectorParam id="1040"  name="translation">
           <InterpolatingParam id="1041" interp="linr"  time="-9999999/1" value="-80.000000000020492" leadInLength="0/1"  />
           <InterpolatingParam id="1042" interp="linr"  time="-9999999/1" value="12.500000000033314" leadInLength="0/1"  />
           <InterpolatingParam id="1043" interp="linr"  time="-9999999/1" value="0" leadInLength="0/1"  />
          </VectorParam>
          <VectorParam id="1044"  name="rotation">
           <InterpolatingParam id="1045" interp="linr"  time="-9999999/1" value="0" leadInLength="0/1"  />
           <InterpolatingParam id="1046" interp="linr"  time="-9999999/1" value="0" leadInLength="0/1"  />
           <InterpolatingParam id="1047" interp="linr"  time="-9999999/1" value="0" leadInLength="0/1"  />
          </VectorParam>
          <VectorParam id="1048"  name="shear">
           <InterpolatingParam id="1049" interp="linr"  time="-9999999/1" value="0" leadInLength="0/1"  />
           <InterpolatingParam id="1050" interp="linr"  time="-9999999/1" value="0" leadInLength="0/1"  />
           <InterpolatingParam id="1051" interp="linr"  time="-9999999/1" value="0" leadInLength="0/1"  />
          </VectorParam>
          <VectorParam id="1052"  name="scale">
           <InterpolatingParam id="1053" interp="linr"  time="-9999999/1" value="1" leadInLength="0/1"  />
           <InterpolatingParam id="1054" interp="linr"  time="-9999999/1" value="1" leadInLength="0/1"  />
           <InterpolatingParam id="1055" interp="linr"  time="-9999999/1" value="1" leadInLength="0/1"  />
          </VectorParam>
          <VectorParam id="1056"  name="anchor">
           <InterpolatingParam id="1057" interp="linr"  time="0/1" value="0" leadInLength="0/1"  />
           <InterpolatingParam id="1058" interp="linr"  time="0/1" value="0" leadInLength="0/1"  />
           <InterpolatingParam id="1059" interp="linr"  time="0/1" value="0" leadInLength="0/1"  />
          </VectorParam>
         </Transformer>
         <Parameters>
          <VectorParam id="1060"  name="sourceCrop">
           <InterpolatingParam id="1061" interp="linr"  time="0/1" value="0" leadInLength="0/1"  />
           <InterpolatingParam id="1062" interp="linr"  time="0/1" value="0" leadInLength="0/1"  />
           <InterpolatingParam id="1063" interp="linr"  time="0/1" value="0" leadInLength="0/1"  />
           <InterpolatingParam id="1064" interp="linr"  time="0/1" value="0" leadInLength="0/1"  />
          </VectorParam>
          <VectorParam id="1065"  name="geometryCrop">
           <InterpolatingParam id="1066" interp="linr"  time="-9999999/1" value="0" leadInLength="0/1"  />
           <InterpolatingParam id="1067" interp="linr"  time="-9999999/1" value="0" leadInLength="0/1"  />
           <InterpolatingParam id="1068" interp="linr"  time="-9999999/1" value="0" leadInLength="0/1"  />
           <InterpolatingParam id="1069" interp="linr"  time="-9999999/1" value="0" leadInLength="0/1"  />
          </VectorParam>
          <InterpolatingParam id="1070" interp="linr"  time="-9999999/1" value="1" leadInLength="0/1"  name="opacity"/>
         </Parameters>
         <Attributes>
          <Attribute id="1071" value="" name="ident"/>
         </Attributes>
         <MetaData>
          <entry key="WinSubProjectDisplayName" val=""/>
         </MetaData>
         <ExtraData>
          <Entry key="ZoomPanBin">
           <ZoomPanBin id="1072"  >
            <ZoomPanKeyframes>
             <ZoomPanKeyframe id="1073" timeRangeEnd="-9999999/1" timeRangeDuration="0/1" interpolaterName="linr"  />
            </ZoomPanKeyframes>
           </ZoomPanBin>
          </Entry>
         </ExtraData>
        </IMFile>
       </Medias>
      </GenericTrack>
      <GenericTrack id="1074"  >
       <Attributes>
        <Attribute id="1075" value="" name="ident"/>
       </Attributes>
       <MetaData>
        <entry key="IsLocked" val="False"/>
        <entry key="WinTrackHeight" val="62"/>
       </MetaData>
       <Medias>
        <IMFile id="1076" start="130" duration="47" scalar="1/1" mediaStart="0/1" mediaDuration="1/1" trackNumber="0" src="4" trimStartSum="0/1" >
         <Transformer>
          <VectorParam id="1077"  name="translation">
           <InterpolatingParam id="1078" interp="linr"  time="-9999999/1" value="-0.49999999999999989" leadInLength="0/1"  />
           <InterpolatingParam id="1079" interp="linr"  time="-9999999/1" value="0" leadInLength="0/1"  />
           <InterpolatingParam id="1080" interp="linr"  time="-9999999/1" value="0" leadInLength="0/1"  />
          </VectorParam>
          <VectorParam id="1081"  name="rotation">
           <InterpolatingParam id="1082" interp="linr"  time="-9999999/1" value="0" leadInLength="0/1"  />
           <InterpolatingParam id="1083" interp="linr"  time="-9999999/1" value="0" leadInLength="0/1"  />
           <InterpolatingParam id="1084" interp="linr"  time="-9999999/1" value="0" leadInLength="0/1"  />
          </VectorParam>
          <VectorParam id="1085"  name="shear">
           <InterpolatingParam id="1086" interp="linr"  time="-9999999/1" value="0" leadInLength="0/1"  />
           <InterpolatingParam id="1087" interp="linr"  time="-9999999/1" value="0" leadInLength="0/1"  />
           <InterpolatingParam id="1088" interp="linr"  time="-9999999/1" value="0" leadInLength="0/1"  />
          </VectorParam>
          <VectorParam id="1089"  name="scale">
           <InterpolatingParam id="1090" interp="linr"  time="-9999999/1" value="1.0131443370748361" leadInLength="0/1"  />
           <InterpolatingParam id="1091" interp="linr"  time="-9999999/1" value="1.0131443370748359" leadInLength="0/1"  />
           <InterpolatingParam id="1092" interp="linr"  time="-9999999/1" value="0.99999999999999978" leadInLength="0/1"  />
          </VectorParam>
          <VectorParam id="1093"  name="anchor">
           <InterpolatingParam id="1094" interp="linr"  time="0/1" value="0" leadInLength="0/1"  />
           <InterpolatingParam id="1095" interp="linr"  time="0/1" value="0" leadInLength="0/1"  />
           <InterpolatingParam id="1096" interp="linr"  time="0/1" value="0" leadInLength="0/1"  />
          </VectorParam>
         </Transformer>
         <Parameters>
          <VectorParam id="1097"  name="sourceCrop">
           <InterpolatingParam id="1098" interp="linr"  time="0/1" value="0" leadInLength="0/1"  />
           <InterpolatingParam id="1099" interp="linr"  time="0/1" value="0" leadInLength="0/1"  />
           <InterpolatingParam id="1100" interp="linr"  time="0/1" value="0" leadInLength="0/1"  />
           <InterpolatingParam id="1101" interp="linr"  time="0/1" value="0" leadInLength="0/1"  />
          </VectorParam>
          <VectorParam id="1102"  name="geometryCrop">
           <InterpolatingParam id="1103" interp="linr"  time="-9999999/1" value="0" leadInLength="0/1"  />
           <InterpolatingParam id="1104" interp="linr"  time="-9999999/1" value="0" leadInLength="0/1"  />
           <InterpolatingParam id="1105" interp="linr"  time="-9999999/1" value="0" leadInLength="0/1"  />
           <InterpolatingParam id="1106" interp="linr"  time="-9999999/1" value="0" leadInLength="0/1"  />
          </VectorParam>
          <InterpolatingParam id="1107" interp="linr"  time="-9999999/1" value="1" leadInLength="0/1"  name="opacity"/>
         </Parameters>
         <Attributes>
          <Attribute id="1108" value="" name="ident"/>
         </Attributes>
         <MetaData>
          <entry key="WinSubProjectDisplayName" val=""/>
         </MetaData>
         <ExtraData>
          <Entry key="ZoomPanBin">
           <ZoomPanBin id="1109"  >
            <ZoomPanKeyframes>
             <ZoomPanKeyframe id="1110" timeRangeEnd="-9999999/1" timeRangeDuration="0/1" interpolaterName="linr"  />
            </ZoomPanKeyframes>
           </ZoomPanBin>
          </Entry>
         </ExtraData>
        </IMFile>
        <UnifiedMedia id="1111"  >
         <AudioTransition id="1112" start="177" duration="21" >
          <Parameters>
           <InterpolatingParam id="1113" interp="linr"  time="0/1" value="1" leadInLength="0/1"  name="volume"/>
           <Parameter id="1114"  name="captions"/>
          </Parameters>
          <Effects>
           <GenericEffect id="1115" name = "AudioTransition" >
            <Parameters>
            <Parameter id="1116"   name="audioEdgeModType">
             <Keyframes>
             <Keyframe id="1117"  time="0/1" value="0" leadInLength="0/1"  />
             </Keyframes>
            </Parameter>
            <Parameter id="1118"   name="audioTransitionType">
             <Keyframes>
             <Keyframe id="1119"  time="0/1" value="" leadInLength="0/1"  />
             </Keyframes>
            </Parameter>
            </Parameters>
            <MetaData>
            </MetaData>
           </GenericEffect>
          </Effects>
          <Attributes>
           <Attribute id="1120" value="" name="ident"/>
           <Attribute id="1121" value="0" name="sampleRate"/>
           <Attribute id="1122" value="0" name="bitDepth"/>
           <Attribute id="1123" value="1" name="gain"/>
          </Attributes>
         </AudioTransition>
         <ImageTransition id="1124" start="177" duration="21" >
          <Transformer>
           <VectorParam id="1125"  name="translation">
            <InterpolatingParam id="1126" interp="linr"  time="0/1" value="0" leadInLength="0/1"  />
            <InterpolatingParam id="1127" interp="linr"  time="0/1" value="0" leadInLength="0/1"  />
            <InterpolatingParam id="1128" interp="linr"  time="0/1" value="0" leadInLength="0/1"  />
           </VectorParam>
           <VectorParam id="1129"  name="rotation">
            <InterpolatingParam id="1130" interp="linr"  time="0/1" value="0" leadInLength="0/1"  />
            <InterpolatingParam id="1131" interp="linr"  time="0/1" value="0" leadInLength="0/1"  />
            <InterpolatingParam id="1132" interp="linr"  time="0/1" value="0" leadInLength="0/1"  />
           </VectorParam>
           <VectorParam id="1133"  name="shear">
            <InterpolatingParam id="1134" interp="linr"  time="0/1" value="0" leadInLength="0/1"  />
            <InterpolatingParam id="1135" interp="linr"  time="0/1" value="0" leadInLength="0/1"  />
            <InterpolatingParam id="1136" interp="linr"  time="0/1" value="0" leadInLength="0/1"  />
           </VectorParam>
           <VectorParam id="1137"  name="scale">
            <InterpolatingParam id="1138" interp="linr"  time="0/1" value="1" leadInLength="0/1"  />
            <InterpolatingParam id="1139" interp="linr"  time="0/1" value="1" leadInLength="0/1"  />
            <InterpolatingParam id="1140" interp="linr"  time="0/1" value="1" leadInLength="0/1"  />
           </VectorParam>
           <VectorParam id="1141"  name="anchor">
            <InterpolatingParam id="1142" interp="linr"  time="0/1" value="0" leadInLength="0/1"  />
            <InterpolatingParam id="1143" interp="linr"  time="0/1" value="0" leadInLength="0/1"  />
            <InterpolatingParam id="1144" interp="linr"  time="0/1" value="0" leadInLength="0/1"  />
           </VectorParam>
          </Transformer>
          <Parameters>
           <VectorParam id="1145"  name="sourceCrop">
            <InterpolatingParam id="1146" interp="linr"  time="0/1" value="0" leadInLength="0/1"  />
            <InterpolatingParam id="1147" interp="linr"  time="0/1" value="0" leadInLength="0/1"  />
            <InterpolatingParam id="1148" interp="linr"  time="0/1" value="0" leadInLength="0/1"  />
            <InterpolatingParam id="1149" interp="linr"  time="0/1" value="0" leadInLength="0/1"  />
           </VectorParam>
           <VectorParam id="1150"  name="geometryCrop">
            <InterpolatingParam id="1151" interp="linr"  time="0/1" value="0" leadInLength="0/1"  />
            <InterpolatingParam id="1152" interp="linr"  time="0/1" value="0" leadInLength="0/1"  />
            <InterpolatingParam id="1153" interp="linr"  time="0/1" value="0" leadInLength="0/1"  />
            <InterpolatingParam id="1154" interp="linr"  time="0/1" value="0" leadInLength="0/1"  />
           </VectorParam>
           <InterpolatingParam id="1155" interp="linr"  time="0/1" value="1" leadInLength="0/1"  name="opacity"/>
          </Parameters>
          <Effects>
           <GenericEffect id="1156" name = "VisualTransition" >
            <Parameters>
            <InterpolatingParam id="1157" interp="linr"  time="0/1" value="0.5" leadInLength="0/1"   name="leftFramePercentage"/>
            <InterpolatingParam id="1158" interp="linr"  time="0/1" value="0.5" leadInLength="0/1"   name="rightFramePercentage"/>
            <Parameter id="1159"   name="visualEdgeModType">
             <Keyframes>
             <Keyframe id="1160"  time="0/1" value="2" leadInLength="0/1"  />
             </Keyframes>
            </Parameter>
            <Parameter id="1161"   name="visualTransitionType">
             <Keyframes>
             <Keyframe id="1162"  time="0/1" value="Glow" leadInLength="0/1"  />
             </Keyframes>
            </Parameter>
            </Parameters>
            <MetaData>
            </MetaData>
           </GenericEffect>
          </Effects>
          <Attributes>
           <Attribute id="1163" value="" name="ident"/>
          </Attributes>
          <ExtraData>
           <Entry key="ZoomPanBin">
            <ZoomPanBin id="1164"  >
             <ZoomPanKeyframes>
             </ZoomPanKeyframes>
            </ZoomPanBin>
           </Entry>
          </ExtraData>
         </ImageTransition>
         <MetaData>
          <entry key="WinSubProjectDisplayName" val=""/>
         </MetaData>
        </UnifiedMedia>
        <IMFile id="1165" start="238" duration="3" scalar="1/1" mediaStart="0/1" mediaDuration="1/1" trackNumber="0" src="4" trimStartSum="65/1" >
         <Transformer>
          <VectorParam id="1166"  name="translation">
           <InterpolatingParam id="1167" interp="linr"  time="-9999999/1" value="-0.5" leadInLength="0/1"  />
           <InterpolatingParam id="1168" interp="linr"  time="-9999999/1" value="0" leadInLength="0/1"  />
           <InterpolatingParam id="1169" interp="linr"  time="-9999999/1" value="0" leadInLength="0/1"  />
          </VectorParam>
          <VectorParam id="1170"  name="rotation">
           <InterpolatingParam id="1171" interp="linr"  time="-9999999/1" value="0" leadInLength="0/1"  />
           <InterpolatingParam id="1172" interp="linr"  time="-9999999/1" value="0" leadInLength="0/1"  />
           <InterpolatingParam id="1173" interp="linr"  time="-9999999/1" value="0" leadInLength="0/1"  />
          </VectorParam>
          <VectorParam id="1174"  name="shear">
           <InterpolatingParam id="1175" interp="linr"  time="-9999999/1" value="0" leadInLength="0/1"  />
           <InterpolatingParam id="1176" interp="linr"  time="-9999999/1" value="0" leadInLength="0/1"  />
           <InterpolatingParam id="1177" interp="linr"  time="-9999999/1" value="0" leadInLength="0/1"  />
          </VectorParam>
          <VectorParam id="1178"  name="scale">
           <InterpolatingParam id="1179" interp="linr"  time="-9999999/1" value="1" leadInLength="0/1"  />
           <InterpolatingParam id="1180" interp="linr"  time="-9999999/1" value="1" leadInLength="0/1"  />
           <InterpolatingParam id="1181" interp="linr"  time="-9999999/1" value="1" leadInLength="0/1"  />
          </VectorParam>
          <VectorParam id="1182"  name="anchor">
           <InterpolatingParam id="1183" interp="linr"  time="0/1" value="0" leadInLength="0/1"  />
           <InterpolatingParam id="1184" interp="linr"  time="0/1" value="0" leadInLength="0/1"  />
           <InterpolatingParam id="1185" interp="linr"  time="0/1" value="0" leadInLength="0/1"  />
          </VectorParam>
         </Transformer>
         <Parameters>
          <VectorParam id="1186"  name="sourceCrop">
           <InterpolatingParam id="1187" interp="linr"  time="0/1" value="0" leadInLength="0/1"  />
           <InterpolatingParam id="1188" interp="linr"  time="0/1" value="0" leadInLength="0/1"  />
           <InterpolatingParam id="1189" interp="linr"  time="0/1" value="0" leadInLength="0/1"  />
           <InterpolatingParam id="1190" interp="linr"  time="0/1" value="0" leadInLength="0/1"  />
          </VectorParam>
          <VectorParam id="1191"  name="geometryCrop">
           <InterpolatingParam id="1192" interp="linr"  time="-9999999/1" value="0" leadInLength="0/1"  />
           <InterpolatingParam id="1193" interp="linr"  time="-9999999/1" value="0" leadInLength="0/1"  />
           <InterpolatingParam id="1194" interp="linr"  time="-9999999/1" value="0" leadInLength="0/1"  />
           <InterpolatingParam id="1195" interp="linr"  time="-9999999/1" value="0" leadInLength="0/1"  />
          </VectorParam>
          <InterpolatingParam id="1196" interp="linr"  time="-9999999/1" value="1" leadInLength="0/1"  name="opacity"/>
         </Parameters>
         <Attributes>
          <Attribute id="1197" value="" name="ident"/>
         </Attributes>
         <MetaData>
          <entry key="WinSubProjectDisplayName" val=""/>
         </MetaData>
         <ExtraData>
          <Entry key="ZoomPanBin">
           <ZoomPanBin id="1198"  >
            <ZoomPanKeyframes>
             <ZoomPanKeyframe id="1199" timeRangeEnd="-9999999/1" timeRangeDuration="0/1" interpolaterName="linr"  />
            </ZoomPanKeyframes>
           </ZoomPanBin>
          </Entry>
         </ExtraData>
        </IMFile>
        <IMFile id="1200" start="245" duration="3" scalar="1/1" mediaStart="0/1" mediaDuration="1/1" trackNumber="0" src="4" trimStartSum="65/1" >
         <Transformer>
          <VectorParam id="1201"  name="translation">
           <InterpolatingParam id="1202" interp="linr"  time="-9999999/1" value="-0.5" leadInLength="0/1"  />
           <InterpolatingParam id="1203" interp="linr"  time="-9999999/1" value="0" leadInLength="0/1"  />
           <InterpolatingParam id="1204" interp="linr"  time="-9999999/1" value="0" leadInLength="0/1"  />
          </VectorParam>
          <VectorParam id="1205"  name="rotation">
           <InterpolatingParam id="1206" interp="linr"  time="-9999999/1" value="0" leadInLength="0/1"  />
           <InterpolatingParam id="1207" interp="linr"  time="-9999999/1" value="0" leadInLength="0/1"  />
           <InterpolatingParam id="1208" interp="linr"  time="-9999999/1" value="0" leadInLength="0/1"  />
          </VectorParam>
          <VectorParam id="1209"  name="shear">
           <InterpolatingParam id="1210" interp="linr"  time="-9999999/1" value="0" leadInLength="0/1"  />
           <InterpolatingParam id="1211" interp="linr"  time="-9999999/1" value="0" leadInLength="0/1"  />
           <InterpolatingParam id="1212" interp="linr"  time="-9999999/1" value="0" leadInLength="0/1"  />
          </VectorParam>
          <VectorParam id="1213"  name="scale">
           <InterpolatingParam id="1214" interp="linr"  time="-9999999/1" value="1" leadInLength="0/1"  />
           <InterpolatingParam id="1215" interp="linr"  time="-9999999/1" value="1" leadInLength="0/1"  />
           <InterpolatingParam id="1216" interp="linr"  time="-9999999/1" value="1" leadInLength="0/1"  />
          </VectorParam>
          <VectorParam id="1217"  name="anchor">
           <InterpolatingParam id="1218" interp="linr"  time="0/1" value="0" leadInLength="0/1"  />
           <InterpolatingParam id="1219" interp="linr"  time="0/1" value="0" leadInLength="0/1"  />
           <InterpolatingParam id="1220" interp="linr"  time="0/1" value="0" leadInLength="0/1"  />
          </VectorParam>
         </Transformer>
         <Parameters>
          <VectorParam id="1221"  name="sourceCrop">
           <InterpolatingParam id="1222" interp="linr"  time="0/1" value="0" leadInLength="0/1"  />
           <InterpolatingParam id="1223" interp="linr"  time="0/1" value="0" leadInLength="0/1"  />
           <InterpolatingParam id="1224" interp="linr"  time="0/1" value="0" leadInLength="0/1"  />
           <InterpolatingParam id="1225" interp="linr"  time="0/1" value="0" leadInLength="0/1"  />
          </VectorParam>
          <VectorParam id="1226"  name="geometryCrop">
           <InterpolatingParam id="1227" interp="linr"  time="-9999999/1" value="0" leadInLength="0/1"  />
           <InterpolatingParam id="1228" interp="linr"  time="-9999999/1" value="0" leadInLength="0/1"  />
           <InterpolatingParam id="1229" interp="linr"  time="-9999999/1" value="0" leadInLength="0/1"  />
           <InterpolatingParam id="1230" interp="linr"  time="-9999999/1" value="0" leadInLength="0/1"  />
          </VectorParam>
          <InterpolatingParam id="1231" interp="linr"  time="-9999999/1" value="1" leadInLength="0/1"  name="opacity"/>
         </Parameters>
         <Attributes>
          <Attribute id="1232" value="" name="ident"/>
         </Attributes>
         <MetaData>
          <entry key="WinSubProjectDisplayName" val=""/>
         </MetaData>
         <ExtraData>
          <Entry key="ZoomPanBin">
           <ZoomPanBin id="1233"  >
            <ZoomPanKeyframes>
             <ZoomPanKeyframe id="1234" timeRangeEnd="-9999999/1" timeRangeDuration="0/1" interpolaterName="linr"  />
            </ZoomPanKeyframes>
           </ZoomPanBin>
          </Entry>
         </ExtraData>
        </IMFile>
        <IMFile id="1235" start="252" duration="13" scalar="1/1" mediaStart="0/1" mediaDuration="1/1" trackNumber="0" src="4" trimStartSum="65/1" >
         <Transformer>
          <VectorParam id="1236"  name="translation">
           <InterpolatingParam id="1237" interp="linr"  time="-9999999/1" value="-0.5" leadInLength="0/1"  />
           <InterpolatingParam id="1238" interp="linr"  time="-9999999/1" value="0" leadInLength="0/1"  />
           <InterpolatingParam id="1239" interp="linr"  time="-9999999/1" value="0" leadInLength="0/1"  />
          </VectorParam>
          <VectorParam id="1240"  name="rotation">
           <InterpolatingParam id="1241" interp="linr"  time="-9999999/1" value="0" leadInLength="0/1"  />
           <InterpolatingParam id="1242" interp="linr"  time="-9999999/1" value="0" leadInLength="0/1"  />
           <InterpolatingParam id="1243" interp="linr"  time="-9999999/1" value="0" leadInLength="0/1"  />
          </VectorParam>
          <VectorParam id="1244"  name="shear">
           <InterpolatingParam id="1245" interp="linr"  time="-9999999/1" value="0" leadInLength="0/1"  />
           <InterpolatingParam id="1246" interp="linr"  time="-9999999/1" value="0" leadInLength="0/1"  />
           <InterpolatingParam id="1247" interp="linr"  time="-9999999/1" value="0" leadInLength="0/1"  />
          </VectorParam>
          <VectorParam id="1248"  name="scale">
           <InterpolatingParam id="1249" interp="linr"  time="-9999999/1" value="1" leadInLength="0/1"  />
           <InterpolatingParam id="1250" interp="linr"  time="-9999999/1" value="1" leadInLength="0/1"  />
           <InterpolatingParam id="1251" interp="linr"  time="-9999999/1" value="1" leadInLength="0/1"  />
          </VectorParam>
          <VectorParam id="1252"  name="anchor">
           <InterpolatingParam id="1253" interp="linr"  time="0/1" value="0" leadInLength="0/1"  />
           <InterpolatingParam id="1254" interp="linr"  time="0/1" value="0" leadInLength="0/1"  />
           <InterpolatingParam id="1255" interp="linr"  time="0/1" value="0" leadInLength="0/1"  />
          </VectorParam>
         </Transformer>
         <Parameters>
          <VectorParam id="1256"  name="sourceCrop">
           <InterpolatingParam id="1257" interp="linr"  time="0/1" value="0" leadInLength="0/1"  />
           <InterpolatingParam id="1258" interp="linr"  time="0/1" value="0" leadInLength="0/1"  />
           <InterpolatingParam id="1259" interp="linr"  time="0/1" value="0" leadInLength="0/1"  />
           <InterpolatingParam id="1260" interp="linr"  time="0/1" value="0" leadInLength="0/1"  />
          </VectorParam>
          <VectorParam id="1261"  name="geometryCrop">
           <InterpolatingParam id="1262" interp="linr"  time="-9999999/1" value="0" leadInLength="0/1"  />
           <InterpolatingParam id="1263" interp="linr"  time="-9999999/1" value="0" leadInLength="0/1"  />
           <InterpolatingParam id="1264" interp="linr"  time="-9999999/1" value="0" leadInLength="0/1"  />
           <InterpolatingParam id="1265" interp="linr"  time="-9999999/1" value="0" leadInLength="0/1"  />
          </VectorParam>
          <InterpolatingParam id="1266" interp="linr"  time="-9999999/1" value="1" leadInLength="0/1"  name="opacity"/>
         </Parameters>
         <Attributes>
          <Attribute id="1267" value="" name="ident"/>
         </Attributes>
         <MetaData>
          <entry key="WinSubProjectDisplayName" val=""/>
         </MetaData>
         <ExtraData>
          <Entry key="ZoomPanBin">
           <ZoomPanBin id="1268"  >
            <ZoomPanKeyframes>
             <ZoomPanKeyframe id="1269" timeRangeEnd="-9999999/1" timeRangeDuration="0/1" interpolaterName="linr"  />
            </ZoomPanKeyframes>
           </ZoomPanBin>
          </Entry>
         </ExtraData>
        </IMFile>
        <UnifiedMedia id="1270"  >
         <AudioTransition id="1271" start="265" duration="12" >
          <Parameters>
           <InterpolatingParam id="1272" interp="linr"  time="0/1" value="1" leadInLength="0/1"  name="volume"/>
           <Parameter id="1273"  name="captions"/>
          </Parameters>
          <Effects>
           <GenericEffect id="1274" name = "AudioTransition" >
            <Parameters>
            <Parameter id="1275"   name="audioEdgeModType">
             <Keyframes>
             <Keyframe id="1276"  time="0/1" value="0" leadInLength="0/1"  />
             </Keyframes>
            </Parameter>
            <Parameter id="1277"   name="audioTransitionType">
             <Keyframes>
             <Keyframe id="1278"  time="0/1" value="" leadInLength="0/1"  />
             </Keyframes>
            </Parameter>
            </Parameters>
            <MetaData>
            </MetaData>
           </GenericEffect>
          </Effects>
          <Attributes>
           <Attribute id="1279" value="" name="ident"/>
           <Attribute id="1280" value="0" name="sampleRate"/>
           <Attribute id="1281" value="0" name="bitDepth"/>
           <Attribute id="1282" value="1" name="gain"/>
          </Attributes>
         </AudioTransition>
         <ImageTransition id="1283" start="265" duration="12" >
          <Transformer>
           <VectorParam id="1284"  name="translation">
            <InterpolatingParam id="1285" interp="linr"  time="0/1" value="0" leadInLength="0/1"  />
            <InterpolatingParam id="1286" interp="linr"  time="0/1" value="0" leadInLength="0/1"  />
            <InterpolatingParam id="1287" interp="linr"  time="0/1" value="0" leadInLength="0/1"  />
           </VectorParam>
           <VectorParam id="1288"  name="rotation">
            <InterpolatingParam id="1289" interp="linr"  time="0/1" value="0" leadInLength="0/1"  />
            <InterpolatingParam id="1290" interp="linr"  time="0/1" value="0" leadInLength="0/1"  />
            <InterpolatingParam id="1291" interp="linr"  time="0/1" value="0" leadInLength="0/1"  />
           </VectorParam>
           <VectorParam id="1292"  name="shear">
            <InterpolatingParam id="1293" interp="linr"  time="0/1" value="0" leadInLength="0/1"  />
            <InterpolatingParam id="1294" interp="linr"  time="0/1" value="0" leadInLength="0/1"  />
            <InterpolatingParam id="1295" interp="linr"  time="0/1" value="0" leadInLength="0/1"  />
           </VectorParam>
           <VectorParam id="1296"  name="scale">
            <InterpolatingParam id="1297" interp="linr"  time="0/1" value="1" leadInLength="0/1"  />
            <InterpolatingParam id="1298" interp="linr"  time="0/1" value="1" leadInLength="0/1"  />
            <InterpolatingParam id="1299" interp="linr"  time="0/1" value="1" leadInLength="0/1"  />
           </VectorParam>
           <VectorParam id="1300"  name="anchor">
            <InterpolatingParam id="1301" interp="linr"  time="0/1" value="0" leadInLength="0/1"  />
            <InterpolatingParam id="1302" interp="linr"  time="0/1" value="0" leadInLength="0/1"  />
            <InterpolatingParam id="1303" interp="linr"  time="0/1" value="0" leadInLength="0/1"  />
           </VectorParam>
          </Transformer>
          <Parameters>
           <VectorParam id="1304"  name="sourceCrop">
            <InterpolatingParam id="1305" interp="linr"  time="0/1" value="0" leadInLength="0/1"  />
            <InterpolatingParam id="1306" interp="linr"  time="0/1" value="0" leadInLength="0/1"  />
            <InterpolatingParam id="1307" interp="linr"  time="0/1" value="0" leadInLength="0/1"  />
            <InterpolatingParam id="1308" interp="linr"  time="0/1" value="0" leadInLength="0/1"  />
           </VectorParam>
           <VectorParam id="1309"  name="geometryCrop">
            <InterpolatingParam id="1310" interp="linr"  time="0/1" value="0" leadInLength="0/1"  />
            <InterpolatingParam id="1311" interp="linr"  time="0/1" value="0" leadInLength="0/1"  />
            <InterpolatingParam id="1312" interp="linr"  time="0/1" value="0" leadInLength="0/1"  />
            <InterpolatingParam id="1313" interp="linr"  time="0/1" value="0" leadInLength="0/1"  />
           </VectorParam>
           <InterpolatingParam id="1314" interp="linr"  time="0/1" value="1" leadInLength="0/1"  name="opacity"/>
          </Parameters>
          <Effects>
           <GenericEffect id="1315" name = "VisualTransition" >
            <Parameters>
            <InterpolatingParam id="1316" interp="linr"  time="0/1" value="0.5" leadInLength="0/1"   name="leftFramePercentage"/>
            <InterpolatingParam id="1317" interp="linr"  time="0/1" value="0.5" leadInLength="0/1"   name="rightFramePercentage"/>
            <Parameter id="1318"   name="visualEdgeModType">
             <Keyframes>
             <Keyframe id="1319"  time="0/1" value="2" leadInLength="0/1"  />
             </Keyframes>
            </Parameter>
            <Parameter id="1320"   name="visualTransitionType">
             <Keyframes>
             <Keyframe id="1321"  time="0/1" value="Fade" leadInLength="0/1"  />
             </Keyframes>
            </Parameter>
            </Parameters>
            <MetaData>
            </MetaData>
           </GenericEffect>
          </Effects>
          <Attributes>
           <Attribute id="1322" value="" name="ident"/>
          </Attributes>
          <ExtraData>
           <Entry key="ZoomPanBin">
            <ZoomPanBin id="1323"  >
             <ZoomPanKeyframes>
             </ZoomPanKeyframes>
            </ZoomPanBin>
           </Entry>
          </ExtraData>
         </ImageTransition>
         <MetaData>
          <entry key="WinSubProjectDisplayName" val=""/>
         </MetaData>
        </UnifiedMedia>
       </Medias>
      </GenericTrack>
      <GenericTrack id="1324"  >
       <Attributes>
        <Attribute id="1325" value="" name="ident"/>
       </Attributes>
       <MetaData>
        <entry key="IsLocked" val="False"/>
        <entry key="WinTrackHeight" val="62"/>
       </MetaData>
       <Medias>
        <IMFile id="1326" start="136" duration="4" scalar="1/1" mediaStart="0/1" mediaDuration="1/1" trackNumber="0" src="15" trimStartSum="0/1" >
         <Transformer>
          <VectorParam id="1327"  name="translation">
           <InterpolatingParam id="1328" interp="linr"  >
            <Keyframes>
            <Keyframe id="1329"  time="-9999999/1" value="-142.00000000004334" leadInLength="0/1"  />
            <Keyframe id="1330"  time="2/1" value="-142.00000000004334" leadInLength="3/1"  interpolater="leadin-linr"  />
            </Keyframes>
           </InterpolatingParam>
           <InterpolatingParam id="1331" interp="linr"  >
            <Keyframes>
            <Keyframe id="1332"  time="-9999999/1" value="25.000000000057156" leadInLength="0/1"  />
            <Keyframe id="1333"  time="2/1" value="82.000000000041496" leadInLength="3/1"  interpolater="leadin-linr"  />
            </Keyframes>
           </InterpolatingParam>
           <InterpolatingParam id="1334" interp="linr"  >
            <Keyframes>
            <Keyframe id="1335"  time="-9999999/1" value="0" leadInLength="0/1"  />
            <Keyframe id="1336"  time="2/1" value="0" leadInLength="3/1"  interpolater="leadin-linr"  />
            </Keyframes>
           </InterpolatingParam>
          </VectorParam>
          <VectorParam id="1337"  name="rotation">
           <InterpolatingParam id="1338" interp="linr"  >
            <Keyframes>
            <Keyframe id="1339"  time="-9999999/1" value="0" leadInLength="0/1"  />
            <Keyframe id="1340"  time="2/1" value="0" leadInLength="3/1"  interpolater="leadin-linr"  />
            </Keyframes>
           </InterpolatingParam>
           <InterpolatingParam id="1341" interp="linr"  >
            <Keyframes>
            <Keyframe id="1342"  time="-9999999/1" value="0" leadInLength="0/1"  />
            <Keyframe id="1343"  time="2/1" value="0" leadInLength="3/1"  interpolater="leadin-linr"  />
            </Keyframes>
           </InterpolatingParam>
           <InterpolatingParam id="1344" interp="linr"  >
            <Keyframes>
            <Keyframe id="1345"  time="-9999999/1" value="0" leadInLength="0/1"  />
            <Keyframe id="1346"  time="2/1" value="0" leadInLength="3/1"  interpolater="leadin-linr"  />
            </Keyframes>
           </InterpolatingParam>
          </VectorParam>
          <VectorParam id="1347"  name="shear">
           <InterpolatingParam id="1348" interp="linr"  >
            <Keyframes>
            <Keyframe id="1349"  time="-9999999/1" value="0" leadInLength="0/1"  />
            <Keyframe id="1350"  time="2/1" value="0" leadInLength="3/1"  interpolater="leadin-linr"  />
            </Keyframes>
           </InterpolatingParam>
           <InterpolatingParam id="1351" interp="linr"  >
            <Keyframes>
            <Keyframe id="1352"  time="-9999999/1" value="0" leadInLength="0/1"  />
            <Keyframe id="1353"  time="2/1" value="0" leadInLength="3/1"  interpolater="leadin-linr"  />
            </Keyframes>
           </InterpolatingParam>
           <InterpolatingParam id="1354" interp="linr"  >
            <Keyframes>
            <Keyframe id="1355"  time="-9999999/1" value="0" leadInLength="0/1"  />
            <Keyframe id="1356"  time="2/1" value="0" leadInLength="3/1"  interpolater="leadin-linr"  />
            </Keyframes>
           </InterpolatingParam>
          </VectorParam>
          <VectorParam id="1357"  name="scale">
           <InterpolatingParam id="1358" interp="linr"  >
            <Keyframes>
            <Keyframe id="1359"  time="-9999999/1" value="0.19262603461249059" leadInLength="0/1"  />
            <Keyframe id="1360"  time="2/1" value="0.19262603461249059" leadInLength="3/1"  interpolater="leadin-linr"  />
            </Keyframes>
           </InterpolatingParam>
           <InterpolatingParam id="1361" interp="linr"  >
            <Keyframes>
            <Keyframe id="1362"  time="-9999999/1" value="0.21444695259597418" leadInLength="0/1"  />
            <Keyframe id="1363"  time="2/1" value="0.22874341610238297" leadInLength="3/1"  interpolater="leadin-linr"  />
            </Keyframes>
           </InterpolatingParam>
           <InterpolatingParam id="1364" interp="linr"  >
            <Keyframes>
            <Keyframe id="1365"  time="-9999999/1" value="1" leadInLength="0/1"  />
            <Keyframe id="1366"  time="2/1" value="1" leadInLength="3/1"  interpolater="leadin-linr"  />
            </Keyframes>
           </InterpolatingParam>
          </VectorParam>
          <VectorParam id="1367"  name="anchor">
           <InterpolatingParam id="1368" interp="linr"  time="0/1" value="0" leadInLength="0/1"  />
           <InterpolatingParam id="1369" interp="linr"  time="0/1" value="0" leadInLength="0/1"  />
           <InterpolatingParam id="1370" interp="linr"  time="0/1" value="0" leadInLength="0/1"  />
          </VectorParam>
         </Transformer>
         <Parameters>
          <VectorParam id="1371"  name="sourceCrop">
           <InterpolatingParam id="1372" interp="linr"  time="0/1" value="0" leadInLength="0/1"  />
           <InterpolatingParam id="1373" interp="linr"  time="0/1" value="0" leadInLength="0/1"  />
           <InterpolatingParam id="1374" interp="linr"  time="0/1" value="0" leadInLength="0/1"  />
           <InterpolatingParam id="1375" interp="linr"  time="0/1" value="0" leadInLength="0/1"  />
          </VectorParam>
          <VectorParam id="1376"  name="geometryCrop">
           <InterpolatingParam id="1377" interp="linr"  >
            <Keyframes>
            <Keyframe id="1378"  time="-9999999/1" value="0" leadInLength="0/1"  />
            <Keyframe id="1379"  time="2/1" value="0" leadInLength="3/1"  interpolater="leadin-linr"  />
            </Keyframes>
           </InterpolatingParam>
           <InterpolatingParam id="1380" interp="linr"  >
            <Keyframes>
            <Keyframe id="1381"  time="-9999999/1" value="0" leadInLength="0/1"  />
            <Keyframe id="1382"  time="2/1" value="0" leadInLength="3/1"  interpolater="leadin-linr"  />
            </Keyframes>
           </InterpolatingParam>
           <InterpolatingParam id="1383" interp="linr"  >
            <Keyframes>
            <Keyframe id="1384"  time="-9999999/1" value="0" leadInLength="0/1"  />
            <Keyframe id="1385"  time="2/1" value="0" leadInLength="3/1"  interpolater="leadin-linr"  />
            </Keyframes>
           </InterpolatingParam>
           <InterpolatingParam id="1386" interp="linr"  >
            <Keyframes>
            <Keyframe id="1387"  time="-9999999/1" value="0" leadInLength="0/1"  />
            <Keyframe id="1388"  time="2/1" value="0" leadInLength="3/1"  interpolater="leadin-linr"  />
            </Keyframes>
           </InterpolatingParam>
          </VectorParam>
          <InterpolatingParam id="1389" interp="linr"  name="opacity">
           <Keyframes>
           <Keyframe id="1390"  time="-9999999/1" value="1" leadInLength="0/1"  />
           <Keyframe id="1391"  time="2/1" value="1" leadInLength="3/1"  interpolater="leadin-linr"  />
           </Keyframes>
          </InterpolatingParam>
         </Parameters>
         <Attributes>
          <Attribute id="1392" value="" name="ident"/>
         </Attributes>
         <MetaData>
          <entry key="WinSubProjectDisplayName" val=""/>
         </MetaData>
         <ExtraData>
          <Entry key="ZoomPanBin">
           <ZoomPanBin id="1393"  >
            <ZoomPanKeyframes>
             <ZoomPanKeyframe id="1394" timeRangeEnd="-9999999/1" timeRangeDuration="0/1" interpolaterName="linr"  />
             <ZoomPanKeyframe id="1395" timeRangeEnd="2/1" timeRangeDuration="3/1" interpolaterName="linr"  />
            </ZoomPanKeyframes>
           </ZoomPanBin>
          </Entry>
         </ExtraData>
        </IMFile>
        <IMFile id="1396" start="154" duration="4" scalar="1/1" mediaStart="0/1" mediaDuration="1/1" trackNumber="0" src="15" trimStartSum="0/1" >
         <Transformer>
          <VectorParam id="1397"  name="translation">
           <InterpolatingParam id="1398" interp="linr"  >
            <Keyframes>
            <Keyframe id="1399"  time="-9999999/1" value="127.5000000000019" leadInLength="0/1"  />
            <Keyframe id="1400"  time="3/1" value="127.5000000000019" leadInLength="4/1"  interpolater="leadin-linr"  />
            </Keyframes>
           </InterpolatingParam>
           <InterpolatingParam id="1401" interp="linr"  >
            <Keyframes>
            <Keyframe id="1402"  time="-9999999/1" value="-7.5000000000008207" leadInLength="0/1"  />
            <Keyframe id="1403"  time="3/1" value="-52.000000000029814" leadInLength="4/1"  interpolater="leadin-linr"  />
            </Keyframes>
           </InterpolatingParam>
           <InterpolatingParam id="1404" interp="linr"  >
            <Keyframes>
            <Keyframe id="1405"  time="-9999999/1" value="0" leadInLength="0/1"  />
            <Keyframe id="1406"  time="3/1" value="0" leadInLength="4/1"  interpolater="leadin-linr"  />
            </Keyframes>
           </InterpolatingParam>
          </VectorParam>
          <VectorParam id="1407"  name="rotation">
           <InterpolatingParam id="1408" interp="linr"  >
            <Keyframes>
            <Keyframe id="1409"  time="-9999999/1" value="0" leadInLength="0/1"  />
            <Keyframe id="1410"  time="3/1" value="0" leadInLength="4/1"  interpolater="leadin-linr"  />
            </Keyframes>
           </InterpolatingParam>
           <InterpolatingParam id="1411" interp="linr"  >
            <Keyframes>
            <Keyframe id="1412"  time="-9999999/1" value="0" leadInLength="0/1"  />
            <Keyframe id="1413"  time="3/1" value="0" leadInLength="4/1"  interpolater="leadin-linr"  />
            </Keyframes>
           </InterpolatingParam>
           <InterpolatingParam id="1414" interp="linr"  >
            <Keyframes>
            <Keyframe id="1415"  time="-9999999/1" value="0" leadInLength="0/1"  />
            <Keyframe id="1416"  time="3/1" value="0" leadInLength="4/1"  interpolater="leadin-linr"  />
            </Keyframes>
           </InterpolatingParam>
          </VectorParam>
          <VectorParam id="1417"  name="shear">
           <InterpolatingParam id="1418" interp="linr"  >
            <Keyframes>
            <Keyframe id="1419"  time="-9999999/1" value="0" leadInLength="0/1"  />
            <Keyframe id="1420"  time="3/1" value="0" leadInLength="4/1"  interpolater="leadin-linr"  />
            </Keyframes>
           </InterpolatingParam>
           <InterpolatingParam id="1421" interp="linr"  >
            <Keyframes>
            <Keyframe id="1422"  time="-9999999/1" value="0" leadInLength="0/1"  />
            <Keyframe id="1423"  time="3/1" value="0" leadInLength="4/1"  interpolater="leadin-linr"  />
            </Keyframes>
           </InterpolatingParam>
           <InterpolatingParam id="1424" interp="linr"  >
            <Keyframes>
            <Keyframe id="1425"  time="-9999999/1" value="0" leadInLength="0/1"  />
            <Keyframe id="1426"  time="3/1" value="0" leadInLength="4/1"  interpolater="leadin-linr"  />
            </Keyframes>
           </InterpolatingParam>
          </VectorParam>
          <VectorParam id="1427"  name="scale">
           <InterpolatingParam id="1428" interp="linr"  >
            <Keyframes>
            <Keyframe id="1429"  time="-9999999/1" value="0.19262603461249059" leadInLength="0/1"  />
            <Keyframe id="1430"  time="3/1" value="0.19262603461249059" leadInLength="4/1"  interpolater="leadin-linr"  />
            </Keyframes>
           </InterpolatingParam>
           <InterpolatingParam id="1431" interp="linr"  >
            <Keyframes>
            <Keyframe id="1432"  time="-9999999/1" value="0.19262603461249059" leadInLength="0/1"  />
            <Keyframe id="1433"  time="3/1" value="0.25959367945828288" leadInLength="4/1"  interpolater="leadin-linr"  />
            </Keyframes>
           </InterpolatingParam>
           <InterpolatingParam id="1434" interp="linr"  >
            <Keyframes>
            <Keyframe id="1435"  time="-9999999/1" value="1" leadInLength="0/1"  />
            <Keyframe id="1436"  time="3/1" value="1" leadInLength="4/1"  interpolater="leadin-linr"  />
            </Keyframes>
           </InterpolatingParam>
          </VectorParam>
          <VectorParam id="1437"  name="anchor">
           <InterpolatingParam id="1438" interp="linr"  time="0/1" value="0" leadInLength="0/1"  />
           <InterpolatingParam id="1439" interp="linr"  time="0/1" value="0" leadInLength="0/1"  />
           <InterpolatingParam id="1440" interp="linr"  time="0/1" value="0" leadInLength="0/1"  />
          </VectorParam>
         </Transformer>
         <Parameters>
          <VectorParam id="1441"  name="sourceCrop">
           <InterpolatingParam id="1442" interp="linr"  time="0/1" value="0" leadInLength="0/1"  />
           <InterpolatingParam id="1443" interp="linr"  time="0/1" value="0" leadInLength="0/1"  />
           <InterpolatingParam id="1444" interp="linr"  time="0/1" value="0" leadInLength="0/1"  />
           <InterpolatingParam id="1445" interp="linr"  time="0/1" value="0" leadInLength="0/1"  />
          </VectorParam>
          <VectorParam id="1446"  name="geometryCrop">
           <InterpolatingParam id="1447" interp="linr"  >
            <Keyframes>
            <Keyframe id="1448"  time="-9999999/1" value="0" leadInLength="0/1"  />
            <Keyframe id="1449"  time="3/1" value="0" leadInLength="4/1"  interpolater="leadin-linr"  />
            </Keyframes>
           </InterpolatingParam>
           <InterpolatingParam id="1450" interp="linr"  >
            <Keyframes>
            <Keyframe id="1451"  time="-9999999/1" value="0" leadInLength="0/1"  />
            <Keyframe id="1452"  time="3/1" value="0" leadInLength="4/1"  interpolater="leadin-linr"  />
            </Keyframes>
           </InterpolatingParam>
           <InterpolatingParam id="1453" interp="linr"  >
            <Keyframes>
            <Keyframe id="1454"  time="-9999999/1" value="0" leadInLength="0/1"  />
            <Keyframe id="1455"  time="3/1" value="0" leadInLength="4/1"  interpolater="leadin-linr"  />
            </Keyframes>
           </InterpolatingParam>
           <InterpolatingParam id="1456" interp="linr"  >
            <Keyframes>
            <Keyframe id="1457"  time="-9999999/1" value="0" leadInLength="0/1"  />
            <Keyframe id="1458"  time="3/1" value="0" leadInLength="4/1"  interpolater="leadin-linr"  />
            </Keyframes>
           </InterpolatingParam>
          </VectorParam>
          <InterpolatingParam id="1459" interp="linr"  name="opacity">
           <Keyframes>
           <Keyframe id="1460"  time="-9999999/1" value="1" leadInLength="0/1"  />
           <Keyframe id="1461"  time="3/1" value="1" leadInLength="4/1"  interpolater="leadin-linr"  />
           </Keyframes>
          </InterpolatingParam>
         </Parameters>
         <Effects>
          <GenericEffect id="1462" name = "Colorize" >
           <Parameters>
           <InterpolatingParam id="1463" interp="linr"  time="0/1" value="0.75" leadInLength="0/1"   name="amount"/>
           <InterpolatingParam id="1464" interp="linr"  time="0/1" value="255" leadInLength="0/1"   name="color-alpha"/>
           <InterpolatingParam id="1465" interp="linr"  time="0/1" value="0" leadInLength="0/1"   name="color-blue"/>
           <InterpolatingParam id="1466" interp="linr"  time="0/1" value="127" leadInLength="0/1"   name="color-green"/>
           <InterpolatingParam id="1467" interp="linr"  time="0/1" value="255" leadInLength="0/1"   name="color-red"/>
           <Parameter id="1468"   name="enabled">
            <Keyframes>
            <Keyframe id="1469"  time="0/1" value="0" leadInLength="0/1"  />
            </Keyframes>
           </Parameter>
           <Parameter id="1470"   name="mode">
            <Keyframes>
            <Keyframe id="1471"  time="0/1" value="0" leadInLength="0/1"  />
            </Keyframes>
           </Parameter>
           </Parameters>
          </GenericEffect>
         </Effects>
         <Attributes>
          <Attribute id="1472" value="" name="ident"/>
         </Attributes>
         <MetaData>
          <entry key="WinSubProjectDisplayName" val=""/>
         </MetaData>
         <ExtraData>
          <Entry key="ZoomPanBin">
           <ZoomPanBin id="1473"  >
            <ZoomPanKeyframes>
             <ZoomPanKeyframe id="1474" timeRangeEnd="-9999999/1" timeRangeDuration="0/1" interpolaterName="linr"  />
             <ZoomPanKeyframe id="1475" timeRangeEnd="3/1" timeRangeDuration="4/1" interpolaterName="linr"  />
            </ZoomPanKeyframes>
           </ZoomPanBin>
          </Entry>
         </ExtraData>
        </IMFile>
       </Medias>
      </GenericTrack>
      <GenericTrack id="1476"  >
       <Attributes>
        <Attribute id="1477" value="" name="ident"/>
       </Attributes>
       <MetaData>
        <entry key="IsLocked" val="False"/>
        <entry key="WinTrackHeight" val="62"/>
       </MetaData>
       <Medias>
        <IMFile id="1478" start="131" duration="3" scalar="1/1" mediaStart="0/1" mediaDuration="1/1" trackNumber="0" src="10" trimStartSum="0/1" >
         <Transformer>
          <VectorParam id="1479"  name="translation">
           <InterpolatingParam id="1480" interp="linr"  time="-9999999/1" value="-133.49999999997698" leadInLength="0/1"  />
           <InterpolatingParam id="1481" interp="linr"  time="-9999999/1" value="17.499999999996984" leadInLength="0/1"  />
           <InterpolatingParam id="1482" interp="linr"  time="-9999999/1" value="0" leadInLength="0/1"  />
          </VectorParam>
          <VectorParam id="1483"  name="rotation">
           <InterpolatingParam id="1484" interp="linr"  time="-9999999/1" value="0" leadInLength="0/1"  />
           <InterpolatingParam id="1485" interp="linr"  time="-9999999/1" value="0" leadInLength="0/1"  />
           <InterpolatingParam id="1486" interp="linr"  time="-9999999/1" value="0" leadInLength="0/1"  />
          </VectorParam>
          <VectorParam id="1487"  name="shear">
           <InterpolatingParam id="1488" interp="linr"  time="-9999999/1" value="0" leadInLength="0/1"  />
           <InterpolatingParam id="1489" interp="linr"  time="-9999999/1" value="0" leadInLength="0/1"  />
           <InterpolatingParam id="1490" interp="linr"  time="-9999999/1" value="0" leadInLength="0/1"  />
          </VectorParam>
          <VectorParam id="1491"  name="scale">
           <InterpolatingParam id="1492" interp="linr"  time="-9999999/1" value="0.23813953488372094" leadInLength="0/1"  />
           <InterpolatingParam id="1493" interp="linr"  time="-9999999/1" value="0.23813953488372094" leadInLength="0/1"  />
           <InterpolatingParam id="1494" interp="linr"  time="-9999999/1" value="1" leadInLength="0/1"  />
          </VectorParam>
          <VectorParam id="1495"  name="anchor">
           <InterpolatingParam id="1496" interp="linr"  time="0/1" value="0" leadInLength="0/1"  />
           <InterpolatingParam id="1497" interp="linr"  time="0/1" value="0" leadInLength="0/1"  />
           <InterpolatingParam id="1498" interp="linr"  time="0/1" value="0" leadInLength="0/1"  />
          </VectorParam>
         </Transformer>
         <Parameters>
          <VectorParam id="1499"  name="sourceCrop">
           <InterpolatingParam id="1500" interp="linr"  time="0/1" value="0" leadInLength="0/1"  />
           <InterpolatingParam id="1501" interp="linr"  time="0/1" value="0" leadInLength="0/1"  />
           <InterpolatingParam id="1502" interp="linr"  time="0/1" value="0" leadInLength="0/1"  />
           <InterpolatingParam id="1503" interp="linr"  time="0/1" value="0" leadInLength="0/1"  />
          </VectorParam>
          <VectorParam id="1504"  name="geometryCrop">
           <InterpolatingParam id="1505" interp="linr"  time="-9999999/1" value="0" leadInLength="0/1"  />
           <InterpolatingParam id="1506" interp="linr"  time="-9999999/1" value="0" leadInLength="0/1"  />
           <InterpolatingParam id="1507" interp="linr"  time="-9999999/1" value="0" leadInLength="0/1"  />
           <InterpolatingParam id="1508" interp="linr"  time="-9999999/1" value="0" leadInLength="0/1"  />
          </VectorParam>
          <InterpolatingParam id="1509" interp="linr"  time="-9999999/1" value="1" leadInLength="0/1"  name="opacity"/>
         </Parameters>
         <Attributes>
          <Attribute id="1510" value="" name="ident"/>
         </Attributes>
         <MetaData>
          <entry key="WinSubProjectDisplayName" val=""/>
         </MetaData>
         <ExtraData>
          <Entry key="ZoomPanBin">
           <ZoomPanBin id="1511"  >
            <ZoomPanKeyframes>
             <ZoomPanKeyframe id="1512" timeRangeEnd="-9999999/1" timeRangeDuration="0/1" interpolaterName="linr"  />
            </ZoomPanKeyframes>
           </ZoomPanBin>
          </Entry>
         </ExtraData>
        </IMFile>
        <IMFile id="1513" start="134" duration="2" scalar="1/1" mediaStart="0/1" mediaDuration="1/1" trackNumber="0" src="11" trimStartSum="0/1" >
         <Transformer>
          <VectorParam id="1514"  name="translation">
           <InterpolatingParam id="1515" interp="linr"  time="-9999999/1" value="-141.99999999999915" leadInLength="0/1"  />
           <InterpolatingParam id="1516" interp="linr"  time="-9999999/1" value="5.5000000000005302" leadInLength="0/1"  />
           <InterpolatingParam id="1517" interp="linr"  time="-9999999/1" value="0" leadInLength="0/1"  />
          </VectorParam>
          <VectorParam id="1518"  name="rotation">
           <InterpolatingParam id="1519" interp="linr"  time="-9999999/1" value="0" leadInLength="0/1"  />
           <InterpolatingParam id="1520" interp="linr"  time="-9999999/1" value="0" leadInLength="0/1"  />
           <InterpolatingParam id="1521" interp="linr"  time="-9999999/1" value="0" leadInLength="0/1"  />
          </VectorParam>
          <VectorParam id="1522"  name="shear">
           <InterpolatingParam id="1523" interp="linr"  time="-9999999/1" value="0" leadInLength="0/1"  />
           <InterpolatingParam id="1524" interp="linr"  time="-9999999/1" value="0" leadInLength="0/1"  />
           <InterpolatingParam id="1525" interp="linr"  time="-9999999/1" value="0" leadInLength="0/1"  />
          </VectorParam>
          <VectorParam id="1526"  name="scale">
           <InterpolatingParam id="1527" interp="linr"  time="-9999999/1" value="0.22033898305102134" leadInLength="0/1"  />
           <InterpolatingParam id="1528" interp="linr"  time="-9999999/1" value="0.22033898305102137" leadInLength="0/1"  />
           <InterpolatingParam id="1529" interp="linr"  time="-9999999/1" value="0.99999999999999967" leadInLength="0/1"  />
          </VectorParam>
          <VectorParam id="1530"  name="anchor">
           <InterpolatingParam id="1531" interp="linr"  time="0/1" value="0" leadInLength="0/1"  />
           <InterpolatingParam id="1532" interp="linr"  time="0/1" value="0" leadInLength="0/1"  />
           <InterpolatingParam id="1533" interp="linr"  time="0/1" value="0" leadInLength="0/1"  />
          </VectorParam>
         </Transformer>
         <Parameters>
          <VectorParam id="1534"  name="sourceCrop">
           <InterpolatingParam id="1535" interp="linr"  time="0/1" value="0" leadInLength="0/1"  />
           <InterpolatingParam id="1536" interp="linr"  time="0/1" value="0" leadInLength="0/1"  />
           <InterpolatingParam id="1537" interp="linr"  time="0/1" value="0" leadInLength="0/1"  />
           <InterpolatingParam id="1538" interp="linr"  time="0/1" value="0" leadInLength="0/1"  />
          </VectorParam>
          <VectorParam id="1539"  name="geometryCrop">
           <InterpolatingParam id="1540" interp="linr"  time="-9999999/1" value="0" leadInLength="0/1"  />
           <InterpolatingParam id="1541" interp="linr"  time="-9999999/1" value="0" leadInLength="0/1"  />
           <InterpolatingParam id="1542" interp="linr"  time="-9999999/1" value="0" leadInLength="0/1"  />
           <InterpolatingParam id="1543" interp="linr"  time="-9999999/1" value="0" leadInLength="0/1"  />
          </VectorParam>
          <InterpolatingParam id="1544" interp="linr"  time="-9999999/1" value="1" leadInLength="0/1"  name="opacity"/>
         </Parameters>
         <Attributes>
          <Attribute id="1545" value="" name="ident"/>
         </Attributes>
         <MetaData>
          <entry key="WinSubProjectDisplayName" val=""/>
         </MetaData>
         <ExtraData>
          <Entry key="ZoomPanBin">
           <ZoomPanBin id="1546"  >
            <ZoomPanKeyframes>
             <ZoomPanKeyframe id="1547" timeRangeEnd="-9999999/1" timeRangeDuration="0/1" interpolaterName="linr"  />
            </ZoomPanKeyframes>
           </ZoomPanBin>
          </Entry>
         </ExtraData>
        </IMFile>
        <IMFile id="1548" start="136" duration="2" scalar="1/1" mediaStart="0/1" mediaDuration="1/1" trackNumber="0" src="12" trimStartSum="0/1" >
         <Transformer>
          <VectorParam id="1549"  name="translation">
           <InterpolatingParam id="1550" interp="linr"  time="-9999999/1" value="-142.00000000001569" leadInLength="0/1"  />
           <InterpolatingParam id="1551" interp="linr"  time="-9999999/1" value="3.9999999999757012" leadInLength="0/1"  />
           <InterpolatingParam id="1552" interp="linr"  time="-9999999/1" value="-1.5509636485369253e-025" leadInLength="0/1"  />
          </VectorParam>
          <VectorParam id="1553"  name="rotation">
           <InterpolatingParam id="1554" interp="linr"  time="-9999999/1" value="0" leadInLength="0/1"  />
           <InterpolatingParam id="1555" interp="linr"  time="-9999999/1" value="0" leadInLength="0/1"  />
           <InterpolatingParam id="1556" interp="linr"  time="-9999999/1" value="0" leadInLength="0/1"  />
          </VectorParam>
          <VectorParam id="1557"  name="shear">
           <InterpolatingParam id="1558" interp="linr"  time="-9999999/1" value="0" leadInLength="0/1"  />
           <InterpolatingParam id="1559" interp="linr"  time="-9999999/1" value="0" leadInLength="0/1"  />
           <InterpolatingParam id="1560" interp="linr"  time="-9999999/1" value="0" leadInLength="0/1"  />
          </VectorParam>
          <VectorParam id="1561"  name="scale">
           <InterpolatingParam id="1562" interp="linr"  time="-9999999/1" value="0.23290432988744908" leadInLength="0/1"  />
           <InterpolatingParam id="1563" interp="linr"  time="-9999999/1" value="0.23290432988744883" leadInLength="0/1"  />
           <InterpolatingParam id="1564" interp="linr"  time="-9999999/1" value="0.999999999999998" leadInLength="0/1"  />
          </VectorParam>
          <VectorParam id="1565"  name="anchor">
           <InterpolatingParam id="1566" interp="linr"  time="0/1" value="0" leadInLength="0/1"  />
           <InterpolatingParam id="1567" interp="linr"  time="0/1" value="0" leadInLength="0/1"  />
           <InterpolatingParam id="1568" interp="linr"  time="0/1" value="0" leadInLength="0/1"  />
          </VectorParam>
         </Transformer>
         <Parameters>
          <VectorParam id="1569"  name="sourceCrop">
           <InterpolatingParam id="1570" interp="linr"  time="0/1" value="0" leadInLength="0/1"  />
           <InterpolatingParam id="1571" interp="linr"  time="0/1" value="0" leadInLength="0/1"  />
           <InterpolatingParam id="1572" interp="linr"  time="0/1" value="0" leadInLength="0/1"  />
           <InterpolatingParam id="1573" interp="linr"  time="0/1" value="0" leadInLength="0/1"  />
          </VectorParam>
          <VectorParam id="1574"  name="geometryCrop">
           <InterpolatingParam id="1575" interp="linr"  time="-9999999/1" value="0" leadInLength="0/1"  />
           <InterpolatingParam id="1576" interp="linr"  time="-9999999/1" value="0" leadInLength="0/1"  />
           <InterpolatingParam id="1577" interp="linr"  time="-9999999/1" value="0" leadInLength="0/1"  />
           <InterpolatingParam id="1578" interp="linr"  time="-9999999/1" value="0" leadInLength="0/1"  />
          </VectorParam>
          <InterpolatingParam id="1579" interp="linr"  time="-9999999/1" value="1" leadInLength="0/1"  name="opacity"/>
         </Parameters>
         <Attributes>
          <Attribute id="1580" value="" name="ident"/>
         </Attributes>
         <MetaData>
          <entry key="WinSubProjectDisplayName" val=""/>
         </MetaData>
         <ExtraData>
          <Entry key="ZoomPanBin">
           <ZoomPanBin id="1581"  >
            <ZoomPanKeyframes>
             <ZoomPanKeyframe id="1582" timeRangeEnd="-9999999/1" timeRangeDuration="0/1" interpolaterName="linr"  />
            </ZoomPanKeyframes>
           </ZoomPanBin>
          </Entry>
         </ExtraData>
        </IMFile>
        <IMFile id="1583" start="138" duration="2" scalar="1/1" mediaStart="0/1" mediaDuration="1/1" trackNumber="0" src="13" trimStartSum="0/1" >
         <Transformer>
          <VectorParam id="1584"  name="translation">
           <InterpolatingParam id="1585" interp="linr"  time="-9999999/1" value="-142.16830278617914" leadInLength="0/1"  />
           <InterpolatingParam id="1586" interp="linr"  time="-9999999/1" value="1.5000000001228895" leadInLength="0/1"  />
           <InterpolatingParam id="1587" interp="linr"  time="-9999999/1" value="0" leadInLength="0/1"  />
          </VectorParam>
          <VectorParam id="1588"  name="rotation">
           <InterpolatingParam id="1589" interp="linr"  time="-9999999/1" value="0" leadInLength="0/1"  />
           <InterpolatingParam id="1590" interp="linr"  time="-9999999/1" value="0" leadInLength="0/1"  />
           <InterpolatingParam id="1591" interp="linr"  time="-9999999/1" value="0" leadInLength="0/1"  />
          </VectorParam>
          <VectorParam id="1592"  name="shear">
           <InterpolatingParam id="1593" interp="linr"  time="-9999999/1" value="0" leadInLength="0/1"  />
           <InterpolatingParam id="1594" interp="linr"  time="-9999999/1" value="0" leadInLength="0/1"  />
           <InterpolatingParam id="1595" interp="linr"  time="-9999999/1" value="0" leadInLength="0/1"  />
          </VectorParam>
          <VectorParam id="1596"  name="scale">
           <InterpolatingParam id="1597" interp="linr"  time="-9999999/1" value="0.24570410483637367" leadInLength="0/1"  />
           <InterpolatingParam id="1598" interp="linr"  time="-9999999/1" value="0.24570410483637342" leadInLength="0/1"  />
           <InterpolatingParam id="1599" interp="linr"  time="-9999999/1" value="0.99999999999999867" leadInLength="0/1"  />
          </VectorParam>
          <VectorParam id="1600"  name="anchor">
           <InterpolatingParam id="1601" interp="linr"  time="0/1" value="0" leadInLength="0/1"  />
           <InterpolatingParam id="1602" interp="linr"  time="0/1" value="0" leadInLength="0/1"  />
           <InterpolatingParam id="1603" interp="linr"  time="0/1" value="0" leadInLength="0/1"  />
          </VectorParam>
         </Transformer>
         <Parameters>
          <VectorParam id="1604"  name="sourceCrop">
           <InterpolatingParam id="1605" interp="linr"  time="0/1" value="0" leadInLength="0/1"  />
           <InterpolatingParam id="1606" interp="linr"  time="0/1" value="0" leadInLength="0/1"  />
           <InterpolatingParam id="1607" interp="linr"  time="0/1" value="0" leadInLength="0/1"  />
           <InterpolatingParam id="1608" interp="linr"  time="0/1" value="0" leadInLength="0/1"  />
          </VectorParam>
          <VectorParam id="1609"  name="geometryCrop">
           <InterpolatingParam id="1610" interp="linr"  time="-9999999/1" value="0" leadInLength="0/1"  />
           <InterpolatingParam id="1611" interp="linr"  time="-9999999/1" value="0" leadInLength="0/1"  />
           <InterpolatingParam id="1612" interp="linr"  time="-9999999/1" value="0" leadInLength="0/1"  />
           <InterpolatingParam id="1613" interp="linr"  time="-9999999/1" value="0" leadInLength="0/1"  />
          </VectorParam>
          <InterpolatingParam id="1614" interp="linr"  time="-9999999/1" value="1" leadInLength="0/1"  name="opacity"/>
         </Parameters>
         <Attributes>
          <Attribute id="1615" value="" name="ident"/>
         </Attributes>
         <MetaData>
          <entry key="WinSubProjectDisplayName" val=""/>
         </MetaData>
         <ExtraData>
          <Entry key="ZoomPanBin">
           <ZoomPanBin id="1616"  >
            <ZoomPanKeyframes>
             <ZoomPanKeyframe id="1617" timeRangeEnd="-9999999/1" timeRangeDuration="0/1" interpolaterName="linr"  />
            </ZoomPanKeyframes>
           </ZoomPanBin>
          </Entry>
         </ExtraData>
        </IMFile>
        <IMFile id="1618" start="140" duration="2" scalar="1/1" mediaStart="0/1" mediaDuration="1/1" trackNumber="0" src="14" trimStartSum="0/1" >
         <Transformer>
          <VectorParam id="1619"  name="translation">
           <InterpolatingParam id="1620" interp="linr"  time="-9999999/1" value="-142.16830278618187" leadInLength="0/1"  />
           <InterpolatingParam id="1621" interp="linr"  time="-9999999/1" value="-2.5000000000239462" leadInLength="0/1"  />
           <InterpolatingParam id="1622" interp="linr"  time="-9999999/1" value="0" leadInLength="0/1"  />
          </VectorParam>
          <VectorParam id="1623"  name="rotation">
           <InterpolatingParam id="1624" interp="linr"  time="-9999999/1" value="0" leadInLength="0/1"  />
           <InterpolatingParam id="1625" interp="linr"  time="-9999999/1" value="0" leadInLength="0/1"  />
           <InterpolatingParam id="1626" interp="linr"  time="-9999999/1" value="0" leadInLength="0/1"  />
          </VectorParam>
          <VectorParam id="1627"  name="shear">
           <InterpolatingParam id="1628" interp="linr"  time="-9999999/1" value="0" leadInLength="0/1"  />
           <InterpolatingParam id="1629" interp="linr"  time="-9999999/1" value="0" leadInLength="0/1"  />
           <InterpolatingParam id="1630" interp="linr"  time="-9999999/1" value="0" leadInLength="0/1"  />
          </VectorParam>
          <VectorParam id="1631"  name="scale">
           <InterpolatingParam id="1632" interp="linr"  time="-9999999/1" value="0.26659751037314222" leadInLength="0/1"  />
           <InterpolatingParam id="1633" interp="linr"  time="-9999999/1" value="0.26659751037314228" leadInLength="0/1"  />
           <InterpolatingParam id="1634" interp="linr"  time="-9999999/1" value="0.99999999999999933" leadInLength="0/1"  />
          </VectorParam>
          <VectorParam id="1635"  name="anchor">
           <InterpolatingParam id="1636" interp="linr"  time="0/1" value="0" leadInLength="0/1"  />
           <InterpolatingParam id="1637" interp="linr"  time="0/1" value="0" leadInLength="0/1"  />
           <InterpolatingParam id="1638" interp="linr"  time="0/1" value="0" leadInLength="0/1"  />
          </VectorParam>
         </Transformer>
         <Parameters>
          <VectorParam id="1639"  name="sourceCrop">
           <InterpolatingParam id="1640" interp="linr"  time="0/1" value="0" leadInLength="0/1"  />
           <InterpolatingParam id="1641" interp="linr"  time="0/1" value="0" leadInLength="0/1"  />
           <InterpolatingParam id="1642" interp="linr"  time="0/1" value="0" leadInLength="0/1"  />
           <InterpolatingParam id="1643" interp="linr"  time="0/1" value="0" leadInLength="0/1"  />
          </VectorParam>
          <VectorParam id="1644"  name="geometryCrop">
           <InterpolatingParam id="1645" interp="linr"  time="-9999999/1" value="0" leadInLength="0/1"  />
           <InterpolatingParam id="1646" interp="linr"  time="-9999999/1" value="0" leadInLength="0/1"  />
           <InterpolatingParam id="1647" interp="linr"  time="-9999999/1" value="0" leadInLength="0/1"  />
           <InterpolatingParam id="1648" interp="linr"  time="-9999999/1" value="0" leadInLength="0/1"  />
          </VectorParam>
          <InterpolatingParam id="1649" interp="linr"  time="-9999999/1" value="1" leadInLength="0/1"  name="opacity"/>
         </Parameters>
         <Attributes>
          <Attribute id="1650" value="" name="ident"/>
         </Attributes>
         <MetaData>
          <entry key="WinSubProjectDisplayName" val=""/>
         </MetaData>
         <ExtraData>
          <Entry key="ZoomPanBin">
           <ZoomPanBin id="1651"  >
            <ZoomPanKeyframes>
             <ZoomPanKeyframe id="1652" timeRangeEnd="-9999999/1" timeRangeDuration="0/1" interpolaterName="linr"  />
            </ZoomPanKeyframes>
           </ZoomPanBin>
          </Entry>
         </ExtraData>
        </IMFile>
       </Medias>
      </GenericTrack>
      <GenericTrack id="1653"  >
       <Attributes>
        <Attribute id="1654" value="" name="ident"/>
       </Attributes>
       <MetaData>
        <entry key="IsLocked" val="False"/>
        <entry key="WinTrackHeight" val="62"/>
       </MetaData>
       <Medias>
       </Medias>
      </GenericTrack>
     </Tracks>
    </GenericMixer>
   <CaptionAttributes id="1655"  >
    <Attribute id="1656" value="1" name="captionsEnabled"/>
    <Attribute id="1657" value="Arial" name="captionsFontName"/>
    <Attribute id="1658" value="9" name="captionsFontSize"/>
    <Attribute id="1659" value="(0,0,0,255)" name="captionsBackgroundColor"/>
    <Attribute id="1660" value="(255,255,255,255)" name="captionsForegroundColor"/>
    <Attribute id="1661" value="en" name="lang"/>
    <Attribute id="1662" value="0" name="captionsAlignment"/>
    <Attribute id="1663" value="1" name="captionsDefaultFontSize"/>
    <Attribute id="1664" value="0.5" name="captionsOpacity"/>
    <Attribute id="1665" value="1" name="captionsBackgroundEnabled"/>
    <Attribute id="1666" value="1" name="captionsBackgroundOnlyAroundText"/>
   </CaptionAttributes>
   <Parameters>
    <VectorParam id="1667"  name="eyePosition">
     <InterpolatingParam id="1668" interp="linr"  time="0/1" value="0" leadInLength="0/1"  />
     <InterpolatingParam id="1669" interp="linr"  time="0/1" value="0" leadInLength="0/1"  />
     <InterpolatingParam id="1670" interp="linr"  time="0/1" value="3000" leadInLength="0/1"  />
    </VectorParam>
    <VectorParam id="1671"  name="eyeLookAtPosition">
     <InterpolatingParam id="1672" interp="linr"  time="0/1" value="0" leadInLength="0/1"  />
     <InterpolatingParam id="1673" interp="linr"  time="0/1" value="0" leadInLength="0/1"  />
     <InterpolatingParam id="1674" interp="linr"  time="0/1" value="0" leadInLength="0/1"  />
    </VectorParam>
    <VectorParam id="1675"  name="eyeUpVector">
     <InterpolatingParam id="1676" interp="linr"  time="0/1" value="0" leadInLength="0/1"  />
     <InterpolatingParam id="1677" interp="linr"  time="0/1" value="1" leadInLength="0/1"  />
     <InterpolatingParam id="1678" interp="linr"  time="0/1" value="0" leadInLength="0/1"  />
    </VectorParam>
    <InterpolatingParam id="1679" interp="linr"  time="0/1" value="0.0852816105" leadInLength="0/1"  name="fov"/>
    <InterpolatingParam id="1680" interp="linr"  time="0/1" value="1.5" leadInLength="0/1"  name="nearClipDistance"/>
    <InterpolatingParam id="1681" interp="linr"  time="0/1" value="6000" leadInLength="0/1"  name="farClipDistance"/>
   </Parameters>
  </Timeline>
 </Project>
</GoProject>
</CSMLData>

</Project_Data>
