<?xml version="1.0" encoding="utf-8"?>
<!-- Generator: Adobe Illustrator 16.0.3, SVG Export Plug-In . SVG Version: 6.00 Build 0)  -->
<!DOCTYPE svg PUBLIC "-//W3C//DTD SVG 1.1//EN" "http://www.w3.org/Graphics/SVG/1.1/DTD/svg11.dtd">
<svg version="1.1" xmlns="http://www.w3.org/2000/svg" xmlns:xlink="http://www.w3.org/1999/xlink" x="0px" y="0px" width="55px"
	 height="51.713px" viewBox="0 0 55 51.713" enable-background="new 0 0 55 51.713" xml:space="preserve">
<g id="Capa_6">
</g>
<g id="Capa_1">
	<g>
		<g>
			<g>
				<path d="M25.384,13.847c0.695-1.305,1.266-2.322,2.79-2.767c1.752-0.511,3.277,0.92,4.006,2.326
					c0.012,0.023,0.045,0.003,0.035-0.02c-0.631-1.376-1.755-2.239-3.263-2.407c-1.843-0.205-2.925,1.429-3.58,2.861
					C25.369,13.848,25.38,13.854,25.384,13.847L25.384,13.847z"/>
			</g>
		</g>
		<g>
			<g>
				<path d="M31.405,12.179c0.371,0.211,0.777,0.317,1.175,0.463c0.625,0.229,1.006,0.694,1.126,1.339
					c0.004,0.021,0.037,0.016,0.037-0.005c-0.019-1.274-1.47-1.369-2.332-1.807C31.405,12.166,31.399,12.175,31.405,12.179
					L31.405,12.179z"/>
			</g>
		</g>
		<g>
			<g>
				<path d="M34.108,14.729c0.02,0.102,0.044,0.202,0.072,0.302c0.01,0.046,0.021,0.091,0.031,0.136
					c0.151,0.32,0.021,0.475-0.39,0.464c-0.01-0.011-0.029,0.004-0.021,0.017c0.093,0.144,0.259,0.303,0.423,0.14
					c0.24-0.24-0.022-0.815-0.109-1.06C34.112,14.724,34.107,14.725,34.108,14.729L34.108,14.729z"/>
			</g>
		</g>
		<g>
			<g>
				<path d="M32.25,14.312c-0.217,2.008-2.33,2.111-3.732,1.358c-0.801-0.431-1.626-0.61-2.534-0.617c-0.018,0-0.017,0.026,0,0.027
					c1.211,0.07,2.093,0.462,3.166,0.959c0.523,0.242,1.133,0.138,1.685,0.091c0.918-0.077,1.389-0.918,1.422-1.818
					C32.259,14.307,32.251,14.307,32.25,14.312L32.25,14.312z"/>
			</g>
		</g>
		<g>
			<g>
				<path d="M26.557,15.099c-0.316,0.009-0.59,0.096-0.874,0.232c-0.216,0.104-0.64,0.661-0.702,0.287
					c-0.028-0.172-0.084-0.343-0.125-0.513c-0.106-0.448,0.076-0.698,0.37-1.015c0.35-0.377,0.712-0.723,1.089-1.072
					c0.012-0.012-0.004-0.033-0.018-0.023c-0.538,0.407-1.061,0.916-1.447,1.471c-0.254,0.365,0.025,1.096,0.133,1.468
					c0.005,0.02,0.034,0.03,0.048,0.013c0.403-0.476,0.905-0.761,1.524-0.84C26.562,15.105,26.562,15.099,26.557,15.099
					L26.557,15.099z"/>
			</g>
		</g>
		<g>
			<path d="M35.625,12.187c-0.039-0.008-0.08-0.01-0.12-0.016h0h0.002l-0.004,0.002c-0.436,0.005-0.783,0.329-1.05,0.645
				c-0.135,0.163-0.24,0.351-0.362,0.523l-0.286,0.571c-0.096,0.189-0.155,0.396-0.234,0.593c-0.074,0.2-0.154,0.396-0.209,0.603
				l-0.377,1.223c-0.125,0.407-0.245,0.818-0.414,1.212c-0.077,0.201-0.174,0.392-0.295,0.569c-0.096,0.194-0.275,0.329-0.418,0.485
				c-0.185,0.107-0.35,0.255-0.561,0.307c-0.199,0.083-0.405,0.14-0.62,0.159c-0.197,0.043-0.463,0.021-0.549,0.223
				c-0.106,0.181,0.083,0.435,0.282,0.405l0.001-0.001l0.624-0.101c0.211-0.022,0.397-0.132,0.597-0.193
				c0.207-0.053,0.358-0.214,0.539-0.314c0.172-0.118,0.294-0.296,0.444-0.44c0.242-0.343,0.429-0.72,0.575-1.116
				c0.141-0.397,0.265-0.801,0.382-1.208l0.375-1.214c0.163-0.397,0.334-0.779,0.5-1.17c0.064-0.204,0.224-0.359,0.338-0.538
				c0.122-0.176,0.239-0.354,0.43-0.464c0.083-0.068,0.169-0.132,0.283-0.147c0.101-0.004,0.215-0.014,0.278-0.102
				C35.935,12.526,35.836,12.237,35.625,12.187z M35.627,12.181c0.216,0.049,0.325,0.346,0.161,0.511
				c-0.067,0.095-0.188,0.107-0.292,0.111c-0.103,0.018-0.187,0.078-0.268,0.147c-0.185,0.109-0.299,0.288-0.416,0.463
				c-0.111,0.178-0.265,0.33-0.327,0.537l-0.478,1.172l-0.371,1.214c-0.118,0.406-0.243,0.812-0.386,1.211
				c-0.147,0.399-0.337,0.782-0.585,1.132c-0.153,0.148-0.279,0.33-0.456,0.45c-0.187,0.103-0.344,0.265-0.555,0.317
				c-0.204,0.061-0.396,0.17-0.609,0.189l-0.63,0.097l0-0.001c-0.236,0.021-0.439-0.246-0.32-0.462
				c0.112-0.231,0.382-0.191,0.577-0.235c0.214-0.018,0.418-0.071,0.616-0.152c0.211-0.048,0.373-0.197,0.554-0.305
				c0.14-0.156,0.314-0.289,0.408-0.482c0.118-0.177,0.212-0.367,0.287-0.567c0.164-0.392,0.279-0.803,0.399-1.212l0.369-1.226
				c0.058-0.205,0.142-0.404,0.219-0.603c0.083-0.197,0.145-0.403,0.244-0.593l0.295-0.57c0.125-0.174,0.233-0.359,0.372-0.522
				c0.272-0.314,0.627-0.638,1.069-0.637l-0.004,0.002l0.005-0.004h0C35.547,12.169,35.587,12.171,35.627,12.181z"/>
		</g>
		<g>
			<g>
				<path d="M35.246,12.211c0.049,0.199,0.098,0.398,0.146,0.597c-0.007,0.007,0.004,0.019,0.012,0.012
					c0.209-0.217,0.24-0.623-0.158-0.61C35.244,12.209,35.244,12.211,35.246,12.211L35.246,12.211z"/>
			</g>
		</g>
		<g>
			<g>
				<path d="M35.216,11.731c-0.037-0.04-0.058-0.102-0.111-0.119c-0.043-0.035-0.096-0.044-0.151-0.049
					c-0.107-0.002-0.203,0.06-0.3,0.116c-0.191,0.113-0.397,0.208-0.576,0.336c-0.372,0.236-0.732,0.508-1.03,0.839l-0.006-0.027
					l0.04,0.015l0.002,0.001l0.112,0.091l-0.004-0.004l0.125,0.118l-0.006-0.007c0.075,0.055,0.159,0.118,0.207,0.199l-0.043-0.002
					c0.277-0.298,0.596-0.553,0.936-0.776c0.166-0.118,0.361-0.187,0.539-0.282c0.086-0.046,0.189-0.082,0.237-0.168
					C35.249,11.938,35.243,11.821,35.216,11.731z M35.222,11.728c0.031,0.098,0.047,0.205-0.018,0.297
					c-0.049,0.096-0.155,0.136-0.239,0.188c-0.172,0.104-0.356,0.188-0.518,0.307c-0.337,0.217-0.65,0.472-0.931,0.758l-0.027,0.027
					l-0.017-0.029c-0.047-0.086-0.114-0.135-0.188-0.195l-0.007-0.007l-0.107-0.108l-0.004-0.004l-0.101-0.087l0.001,0.001
					l-0.038-0.017l-0.024-0.01l0.018-0.018c0.322-0.311,0.65-0.614,1.027-0.862c0.176-0.146,0.391-0.215,0.586-0.323
					c0.096-0.049,0.2-0.111,0.319-0.104c0.058,0.008,0.113,0.021,0.159,0.06C35.17,11.626,35.186,11.686,35.222,11.728z"/>
			</g>
		</g>
		<g>
			<g>
				<path d="M34.629,11.676c0.094,0.177,0.188,0.354,0.281,0.53c-0.005,0.009,0.008,0.017,0.014,0.008
					c0.164-0.23-0.031-0.519-0.294-0.544C34.627,11.67,34.626,11.675,34.629,11.676L34.629,11.676z"/>
			</g>
		</g>
		<g>
			<g>
				<path d="M31.499,15.999c0.546,0.093,1.253-1.281,1.733-0.681c0.023,0.028,0.062-0.012,0.04-0.039
					c-0.507-0.639-1.257,0.713-1.77,0.693C31.487,15.973,31.484,15.997,31.499,15.999L31.499,15.999z"/>
			</g>
		</g>
		<g>
			<g>
				<path d="M25.167,16.726c-0.06,0.076-0.11,0.104-0.063,0.212c0.196,0.453,0.005,1.516,0.519,1.825
					c1.896,1.143,3.22-1.596,5.256-1.282c0.01,0.001,0.019-0.003,0.022-0.013c0.32-0.925,0.637-0.72,0.688-1.499
					c0.002-0.034-0.053-0.035-0.054,0c-0.037,1.523-1.379,1.219-2.294,1.682c-0.384,0.193-0.721,0.41-1.068,0.662
					c-0.115,0.083-0.23,0.166-0.345,0.249c-0.711,0.556-1.514,0.434-2.408-0.366c-0.03-0.232-0.34-1.317-0.244-1.463
					C25.179,16.728,25.171,16.721,25.167,16.726L25.167,16.726z"/>
			</g>
		</g>
		<g>
			<g>
				<path d="M25.788,18.851c-0.057,0.393-0.072,0.976,0.477,1.059c0.012,0.002,0.018-0.013,0.008-0.02
					c-0.18-0.14-0.323-0.264-0.451-0.453c-0.104-0.153-0.015-0.413-0.019-0.584C25.804,18.844,25.79,18.841,25.788,18.851
					L25.788,18.851z"/>
			</g>
		</g>
		<g>
			<g>
				<path d="M25.941,18.947c0.249,0.157,0.422,0.372,0.73,0.361c0.255-0.008,0.524-0.31,0.694-0.465
					c0.01-0.01-0.005-0.024-0.016-0.016c-0.264,0.237-0.585,0.58-1.005,0.364c-0.144-0.074-0.251-0.186-0.403-0.247
					C25.94,18.944,25.939,18.946,25.941,18.947L25.941,18.947z"/>
			</g>
		</g>
		<g>
			<g>
				<path d="M28.949,19.036c0.03-0.103,0.168-0.206,0.221-0.308c0.006-0.012-0.009-0.024-0.019-0.015
					c-0.075,0.079-0.207,0.209-0.228,0.314C28.92,19.046,28.944,19.053,28.949,19.036L28.949,19.036z"/>
			</g>
		</g>
		<g>
			<g>
				<path d="M29.058,18.765c0.023-0.034,0.045-0.069,0.068-0.104c0.008-0.012-0.011-0.022-0.019-0.012
					c-0.023,0.035-0.047,0.069-0.07,0.104C29.029,18.766,29.05,18.778,29.058,18.765L29.058,18.765z"/>
			</g>
		</g>
		<g>
			<g>
				<path d="M29.083,18.601c0.022-0.033,0.044-0.065,0.066-0.098c0.006-0.009-0.008-0.016-0.014-0.008
					c-0.023,0.031-0.047,0.063-0.071,0.094C29.056,18.601,29.075,18.611,29.083,18.601L29.083,18.601z"/>
			</g>
		</g>
		<g>
			<g>
				<path d="M25.965,19.704c-0.468,0.242,0.16,1.075,0.25,1.387c0.009,0.029,0.056,0.017,0.047-0.014
					c-0.079-0.268-0.616-1.144-0.292-1.363C25.976,19.71,25.971,19.701,25.965,19.704L25.965,19.704z"/>
			</g>
		</g>
		<g>
			<g>
				<path d="M30.774,17.463c-0.255,1.964-2.823,2.771-4.56,2.38c-0.028-0.007-0.041,0.037-0.012,0.043
					c1.573,0.358,4.64-0.348,4.587-2.423C30.79,17.452,30.775,17.453,30.774,17.463L30.774,17.463z"/>
			</g>
		</g>
		<g>
			<g>
				<path d="M30.541,18.206c0.326,0.022,0.093,0.654,0.14,0.841c0.008,0.032,0.057,0.019,0.049-0.014
					c-0.053-0.213,0.212-0.853-0.188-0.839C30.534,18.195,30.534,18.205,30.541,18.206L30.541,18.206z"/>
			</g>
		</g>
		<g>
			<g>
				<path d="M25.032,22.486c0.049-0.439,0.198-0.914,0.574-1.196c0.376-0.297,0.889-0.279,1.313-0.14l0.642,0.208
					c0.205,0.068,0.479,0.097,0.558-0.149c0.095-0.201,0.125-0.426,0.158-0.649c0.021-0.242,0.327-0.393,0.537-0.259
					c0.1,0.062,0.175,0.172,0.177,0.293c-0.002,0.12-0.022,0.226-0.038,0.34c-0.037,0.224-0.097,0.445-0.202,0.65
					c-0.104,0.202-0.273,0.385-0.487,0.475c-0.215,0.097-0.458,0.1-0.682,0.061c-0.226-0.039-0.44-0.115-0.653-0.185
					c-0.212-0.064-0.431-0.148-0.641-0.133c-0.222,0.021-0.372,0.213-0.462,0.412c-0.091,0.201-0.144,0.424-0.168,0.644
					l-0.002,0.022l-0.018-0.012L25.032,22.486z M25.037,22.484l0.614,0.361l-0.02,0.012c0.019-0.228,0.066-0.45,0.154-0.661
					c0.083-0.204,0.247-0.424,0.49-0.454c0.244-0.025,0.459,0.063,0.674,0.128c0.214,0.07,0.425,0.146,0.644,0.184
					c0.433,0.105,0.911-0.088,1.104-0.498c0.104-0.194,0.167-0.411,0.208-0.63c0.039-0.213,0.104-0.473-0.11-0.593
					c-0.185-0.123-0.467,0.004-0.493,0.232c-0.04,0.22-0.064,0.447-0.158,0.657c-0.048,0.103-0.125,0.209-0.253,0.217
					c-0.117,0.011-0.229-0.016-0.339-0.042L26.905,21.2c-0.419-0.123-0.912-0.146-1.271,0.128
					C25.27,21.592,25.112,22.049,25.037,22.484z"/>
			</g>
		</g>
		<g>
			<g>
				<path d="M30.817,19.675c-0.006,0.603-0.354,0.898-0.816,1.23c-0.414,0.298-0.865,0.547-1.337,0.738
					c-0.028,0.012-0.016,0.059,0.013,0.047c0.523-0.21,1.034-0.488,1.477-0.84c0.437-0.346,0.734-0.604,0.677-1.176
					C30.83,19.666,30.817,19.666,30.817,19.675L30.817,19.675z"/>
			</g>
		</g>
		<g>
			<g>
				<path d="M30.208,22.517c0.283-0.576,0.515-1.09,0.691-1.709c0.098-0.344,0.439-0.191,0.495,0.092
					c0.008,0.042,0.037,0.265,0.049,0.347c0.051,0.334,0.097,0.677,0.196,1c0.005,0.018,0.037,0.016,0.034-0.005
					c-0.052-0.413-0.141-0.82-0.2-1.232c-0.03-0.206-0.068-0.545-0.314-0.612c-0.15-0.042-0.239,0.214-0.276,0.305
					c-0.106,0.257-0.154,0.548-0.234,0.813c-0.104,0.344-0.302,0.671-0.443,1C30.205,22.517,30.208,22.518,30.208,22.517
					L30.208,22.517z"/>
			</g>
		</g>
		<g>
			<g>
				<path d="M30.419,23.275c0.182-0.322,0.308-0.654,0.434-1.002c0.06-0.169,0.127-0.335,0.202-0.498
					c0.126,0.099,0.178,0.223,0.156,0.374c0.013,0.226-0.008,0.45,0.011,0.677c0.001,0.02,0.027,0.019,0.029,0
					c0.038-0.328,0.125-0.908-0.083-1.202c-0.007-0.01-0.02-0.019-0.033-0.014c-0.126,0.05-0.157,0.188-0.204,0.311
					c-0.174,0.45-0.31,0.913-0.526,1.347C30.4,23.276,30.414,23.284,30.419,23.275L30.419,23.275z"/>
			</g>
		</g>
		<g>
			<g>
				<path d="M26.97,25.04c0.6,0.426,1.58,1.367,2.378,1.264c1.045-0.137,1.733-0.668,2.456-1.408
					c0.837-0.858,1.173-1.865,1.186-3.048c0.016-1.474,0.87-2.709,0.782-4.214c-0.002-0.031-0.042-0.054-0.066-0.027
					c-0.419,0.478-0.824,0.931-1.316,1.334c-0.017,0.014,0.006,0.043,0.022,0.03c0.347-0.261,1.349-1.519,1.275-0.643
					c-0.076,0.911-0.717,1.671-0.766,2.54c-0.101,1.794-0.174,2.971-1.496,4.346c-1.415,1.473-3.098,0.735-4.454-0.178
					C26.97,25.034,26.968,25.038,26.97,25.04L26.97,25.04z"/>
			</g>
		</g>
		<g>
			<g>
				<path d="M33.691,18.734c1.261-0.268,1.106,2.114,1.186,2.759c0.013,0.107,0.071,0.334,0.131,0.428
					c0.034,0.064,0.073,0.126,0.118,0.184c0.051,0.048,0.103,0.096,0.154,0.145c0.218,0.165,0.021,0.344-0.594,0.537
					c-0.027-0.003-0.033,0.042-0.006,0.048c0.233,0.051,0.689,0.05,0.802-0.232c0.079-0.197,0.09-0.13-0.016-0.296
					c-0.369-0.58-0.526-0.595-0.557-1.231c-0.03-0.638-0.075-2.738-1.219-2.346C33.687,18.729,33.688,18.734,33.691,18.734
					L33.691,18.734z"/>
			</g>
		</g>
		<path fill="none" stroke="#000000" stroke-width="0.0686" stroke-miterlimit="10" d="M27.023,25.166"/>
		<g>
			<g>
				<path d="M33.719,21.314c0,1.333-0.699,2.335-1.621,3.222c-0.015,0.015,0.005,0.043,0.022,0.03
					c0.996-0.747,1.763-1.961,1.609-3.252C33.729,21.308,33.719,21.308,33.719,21.314L33.719,21.314z"/>
			</g>
		</g>
		<g>
			<g>
				<path d="M33.714,21.761c0.232,0.076,0.401,0.518,0.625,0.655c0.023,0.015,0.051-0.021,0.029-0.037
					c-0.153-0.125-0.445-0.631-0.652-0.637C33.706,21.742,33.705,21.758,33.714,21.761L33.714,21.761z"/>
			</g>
		</g>
		<path fill="none" stroke="#000000" stroke-width="0.0686" stroke-miterlimit="10" d="M27.682,25.574c0,0-0.537-0.944-0.229-1.067
			c0.042-0.018,0.712-0.223,0.712-0.223l0.188-0.613l-0.789,0.286l0.214-0.531l0.781-0.266l0.147-0.707c0,0-0.739,0.347-0.782,0.39
			c-0.043,0.041,0.261-0.556,0.261-0.556s1.096-0.123,1.713-0.537c0.814-0.547,0.938-0.809,0.938-0.809"/>
		<path fill="none" stroke="#000000" stroke-width="0.0686" stroke-miterlimit="10" d="M27.645,25.553"/>
		<path fill="none" stroke="#000000" stroke-width="0.0686" stroke-miterlimit="10" d="M27.4,22.073c0,0-0.609,2.177-0.566,2.52"/>
		<path fill="none" stroke="#000000" stroke-width="0.0686" stroke-miterlimit="10" d="M26.441,21.771c0,0-0.042,0.34,0,0.582
			c0.041,0.239,0.479,1.623,0.479,1.623l0.195-0.832c0,0-0.329-1.048-0.408-1.315"/>
		<g>
			<path d="M24.962,16.224c0.005,0.009,0.1-0.097,0.325-0.191c0.216-0.104,0.549-0.227,0.969-0.237
				c0.208-0.026,0.437,0.01,0.671,0.054c0.229,0.071,0.474,0.137,0.7,0.27c0.227,0.104,0.493,0.252,0.578,0.533
				c0.071,0.291-0.141,0.548-0.327,0.736c-0.406,0.383-0.897,0.669-1.427,0.771c-0.285,0.043-0.539-0.112-0.731-0.238
				c-0.204-0.133-0.364-0.297-0.498-0.458c-0.268-0.317-0.428-0.651-0.423-0.901C24.814,16.304,24.978,16.228,24.962,16.224z
				 M24.97,16.235c0.014,0.003-0.135,0.087-0.134,0.326c0.008,0.233,0.181,0.546,0.465,0.83c0.142,0.143,0.308,0.286,0.494,0.418
				c0.191,0.125,0.4,0.257,0.638,0.222c0.239-0.034,0.485-0.143,0.721-0.26c0.237-0.118,0.47-0.261,0.672-0.438
				c0.188-0.175,0.392-0.411,0.336-0.672c-0.077-0.25-0.339-0.381-0.568-0.474c-0.227-0.118-0.467-0.171-0.69-0.23
				c-0.229-0.022-0.443-0.074-0.646-0.064c-0.404-0.011-0.742,0.072-0.96,0.163C25.076,16.14,24.975,16.244,24.97,16.235z"/>
		</g>
		<g>
			<g>
				<path d="M25.042,15.87c-0.043,0.254,0.032,0.625,0.122,0.861c0.003,0.008,0.017,0.008,0.016-0.002
					c-0.032-0.275-0.151-0.582-0.117-0.856C25.064,15.861,25.043,15.858,25.042,15.87L25.042,15.87z"/>
			</g>
		</g>
		<g>
			<path d="M28.19,16.62c0,0,0.657-0.084,1.319-0.119c0.332-0.004,0.665-0.003,0.913,0.034c0.251,0.013,0.398,0.124,0.399,0.109
				l-0.004,0.006c-0.003,0.014-0.147-0.088-0.398-0.089c-0.246-0.026-0.577-0.012-0.906,0.008c-0.658,0.07-1.306,0.189-1.306,0.189
				L28.19,16.62z"/>
		</g>
		<g>
			<g>
				<path d="M25.165,16.719c0.217,0.428,0.879,0.802,1.368,0.771c1.042-0.066,1.914-0.81,2.695-1.441
					c0.007-0.006-0.002-0.019-0.01-0.013c-1.052,0.762-2.997,2.297-4.044,0.678C25.17,16.707,25.162,16.712,25.165,16.719
					L25.165,16.719z"/>
			</g>
		</g>
		<path d="M25.657,17.2c-0.034-0.1-0.058-0.229-0.063-0.369c-0.011-0.315,0.072-0.573,0.186-0.578
			c0.115-0.006,0.218,0.248,0.229,0.563c0.008,0.226-0.031,0.421-0.096,0.518"/>
		<path d="M25.657,17.2"/>
		<path d="M25.912,17.333"/>
		<g>
			<g>
				<path d="M30.842,19.687c0.061,0.267,0.122,0.531,0.175,0.801c0.002,0.015,0.027,0.011,0.026-0.004
					c-0.019-0.277-0.083-0.543-0.186-0.801C30.854,19.673,30.84,19.677,30.842,19.687L30.842,19.687z"/>
			</g>
		</g>
		<g>
			<g>
				<path d="M24.627,22.243c-0.075-0.013-0.123-0.083-0.192-0.104c-0.069-0.03-0.133-0.052-0.202-0.101
					c-0.02-0.115,0.046-0.147,0.068-0.225l0.102-0.196c0.142-0.258,0.319-0.498,0.521-0.713c0.205-0.21,0.442-0.399,0.724-0.497
					c0.071-0.021,0.143-0.044,0.218-0.047c0.036,0.009,0.078-0.035,0.108,0.017l0.049,0.1l0.099,0.208
					c0.016,0.061,0.091,0.135,0.058,0.246l0.01-0.001c-0.346,0.127-0.678,0.309-0.915,0.591c-0.121,0.138-0.219,0.296-0.308,0.46
					l-0.135,0.245c-0.032,0.03-0.025,0.107-0.088,0.098C24.702,22.285,24.672,22.265,24.627,22.243z M24.629,22.237
					c0.042,0.015,0.094,0.04,0.118,0.066c0.019,0.028,0.041-0.064,0.062-0.09l0.124-0.252c0.082-0.168,0.174-0.334,0.293-0.482
					c0.244-0.298,0.593-0.48,0.944-0.609l0.011-0.002c-0.089-0.023-0.071-0.084-0.113-0.158l-0.075-0.196
					c-0.031-0.07-0.033-0.149-0.123-0.114c-0.072,0-0.142,0.021-0.212,0.038c-0.282,0.079-0.51,0.282-0.704,0.495
					c-0.197,0.216-0.35,0.466-0.501,0.714l-0.107,0.19c-0.027,0.054-0.083,0.152-0.083,0.173c0.048,0.04,0.124,0.069,0.183,0.108
					C24.515,22.151,24.558,22.219,24.629,22.237z"/>
			</g>
		</g>
		<g>
			<g>
				<path d="M30.94,19.006c0.166-0.337,0.426-0.546,0.709-0.778c0.09-0.073,0.186-0.156,0.256-0.249
					c0.05-0.061,0.094-0.125,0.13-0.195c0.015-0.001,0.03-0.001,0.046-0.002c0.055,0.204,0.039,0.404-0.05,0.601
					c-0.011,0.022,0.022,0.043,0.035,0.02c0.131-0.239,0.078-0.483,0.018-0.74c-0.002-0.011-0.021-0.015-0.025-0.003
					c-0.24,0.566-0.93,0.758-1.122,1.347C30.937,19.006,30.939,19.007,30.94,19.006L30.94,19.006z"/>
			</g>
		</g>
		<polyline fill="none" stroke="#000000" stroke-width="0.0686" stroke-miterlimit="10" points="34.665,10.563 36.021,12.167 
			36.021,13.552 36.652,14.184 36.694,12.116 35.409,10.563 34.665,10.563 34.665,11.644 		"/>
		
			<line fill="none" stroke="#000000" stroke-width="0.0686" stroke-miterlimit="10" x1="36.021" y1="12.167" x2="36.694" y2="12.167"/>
		<polyline fill="none" stroke="#000000" stroke-width="0.0686" stroke-miterlimit="10" points="34.727,13.462 36.754,15.521 
			36.754,21.667 34.68,23.322 		"/>
		
			<line fill="none" stroke="#000000" stroke-width="0.0686" stroke-miterlimit="10" x1="34.611" y1="12.373" x2="34.611" y2="12.62"/>
		<path fill="none" stroke="#000000" stroke-width="0.0686" stroke-miterlimit="10" d="M35.322,12.854"/>
		<path fill="none" stroke="#000000" stroke-width="0.0686" stroke-miterlimit="10" d="M36.013,13.561"/>
		<polyline fill="none" stroke="#000000" stroke-width="0.0686" stroke-miterlimit="10" points="35.409,14.155 35.195,20.423 
			34.857,20.672 		"/>
		<polygon fill="none" stroke="#000000" stroke-width="0.0686" stroke-miterlimit="10" points="27.152,26.772 26.062,23.589 
			23.599,22.027 22.698,21.471 21.977,19.503 22.213,19.356 23.282,20.165 23.86,21.771 26.302,23.258 27.572,26.549 		"/>
		<polyline fill="none" stroke="#000000" stroke-width="0.0686" stroke-miterlimit="10" points="27.152,26.772 25.89,25.485 
			25.632,24.155 		"/>
		<polyline fill="none" stroke="#000000" stroke-width="0.0686" stroke-miterlimit="10" points="21.977,19.503 23.067,20.338 
			23.629,22.046 		"/>
		
			<line fill="none" stroke="#000000" stroke-width="0.0686" stroke-miterlimit="10" x1="23.067" y1="20.338" x2="23.282" y2="20.165"/>
		<g>
			<g>
				<path d="M22.257,19.382c0.672-0.648,1.763,0.732,1.544,1.404c-0.104,0.32,0.506,0.674,0.051,0.946
					c-0.025,0.015-0.002,0.054,0.023,0.039c0.302-0.17,0.251-0.193,0.137-0.494c-0.075-0.198-0.205-0.357-0.134-0.573
					c0.059-0.183-0.084-0.451-0.138-0.614c-0.126-0.386-0.527-0.693-0.819-0.955c-0.25-0.224-0.509,0.05-0.677,0.235
					C22.239,19.378,22.25,19.389,22.257,19.382L22.257,19.382z"/>
			</g>
		</g>
		<g>
			<g>
				<path d="M25.114,22.108c0.198,0.098,0.396,0.196,0.593,0.294c0.001,0.012,0.018,0.013,0.019,0
					c0.033-0.343-0.366-0.561-0.622-0.307C25.098,22.103,25.106,22.113,25.114,22.108L25.114,22.108z"/>
			</g>
		</g>
		<g>
			<g>
				<path d="M24.407,21.688c0.281-0.153,0.462-0.069,0.544,0.252c0,0.014,0.021,0.017,0.024,0.003
					c0.075-0.337-0.352-0.473-0.578-0.268C24.39,21.682,24.399,21.692,24.407,21.688L24.407,21.688z"/>
			</g>
		</g>
		<path fill="none" stroke="#000000" stroke-width="0.0686" stroke-miterlimit="10" d="M23.671,22.073c0,0,0.017,0.631,0.426,0.884
			c0.411,0.252,1.012,0.029,1.012,0.029"/>
		<path fill="none" stroke="#000000" stroke-width="0.0686" stroke-linejoin="round" stroke-miterlimit="10" d="M23.86,23.099
			l0.18-0.379c0,0,0.185,0.035,0.278,0.19L24.04,23.2L23.86,23.099z"/>
		<path fill="none" stroke="#000000" stroke-width="0.0686" stroke-linejoin="round" stroke-miterlimit="10" d="M23.473,22.718
			l0.304-0.291c0,0,0.159,0.099,0.191,0.277l-0.363,0.171L23.473,22.718z"/>
		<path fill="none" stroke="#000000" stroke-width="0.0686" stroke-linejoin="round" stroke-miterlimit="10" d="M24.416,23.354
			l-0.026-0.42c0,0,0.178-0.059,0.335,0.031l-0.104,0.389H24.416z"/>
		
			<ellipse fill="none" stroke="#000000" stroke-width="0.0686" stroke-miterlimit="10" cx="23.258" cy="24.046" rx="0.352" ry="0.398"/>
		
			<ellipse fill="none" stroke="#000000" stroke-width="0.0237" stroke-miterlimit="10" cx="23.258" cy="24.071" rx="0.122" ry="0.138"/>
		
			<line fill="none" stroke="#000000" stroke-width="0.0686" stroke-miterlimit="10" x1="23.651" y1="27.787" x2="23.112" y2="24.408"/>
		
			<line fill="none" stroke="#000000" stroke-width="0.0686" stroke-miterlimit="10" x1="23.52" y1="24.341" x2="24.032" y2="27.564"/>
		<g>
			<g>
				<path d="M23.565,23.828c0.249-0.027,0.184,0.254,0.019,0.358c-0.021,0.014-0.002,0.045,0.019,0.033
					c0.057-0.033,0.449-0.172,0.382-0.328c-0.081-0.188-0.252-0.114-0.421-0.077C23.556,23.816,23.557,23.829,23.565,23.828
					L23.565,23.828z"/>
			</g>
		</g>
		<path fill="none" stroke="#000000" stroke-width="0.0515" stroke-miterlimit="10" d="M23.909,23.799c0,0,0.039-0.086,0.027-0.082
			c-0.011,0.006,0.235,0,0.235,0l0.04,0.042h0.179v0.04l-0.189,0.056l-0.103-0.029l-0.129,0.069"/>
		<polyline fill="none" stroke="#000000" stroke-width="0.0515" stroke-miterlimit="10" points="23.968,23.915 24.15,23.915 
			24.39,23.799 24.39,23.895 24.125,24.071 23.909,24.022 		"/>
		
			<ellipse fill="none" stroke="#000000" stroke-width="0.0686" stroke-miterlimit="10" cx="20.789" cy="23.009" rx="0.353" ry="0.396"/>
		
			<ellipse fill="none" stroke="#000000" stroke-width="0.0237" stroke-miterlimit="10" cx="20.789" cy="23.033" rx="0.122" ry="0.138"/>
		
			<line fill="none" stroke="#000000" stroke-width="0.0686" stroke-miterlimit="10" x1="22.476" y1="26.544" x2="20.743" y2="23.425"/>
		<path fill="none" stroke="#000000" stroke-width="0.0686" stroke-miterlimit="10" d="M22.835,26.333l-1.731-3.109l1.148,0.099
			c0,0,0.112-0.102-0.042-0.188l-1.068-0.174"/>
		<g>
			<polygon fill="none" stroke="#000000" stroke-width="0.0515" stroke-miterlimit="10" points="23.653,29.065 23.688,28.203 
				24.541,27.68 24.76,28.392 			"/>
			<polyline fill="none" stroke="#000000" stroke-width="0.0515" stroke-miterlimit="10" points="23.688,28.203 23.438,27.93 
				24.326,27.409 24.541,27.68 			"/>
			<polyline fill="none" stroke="#000000" stroke-width="0.0515" stroke-miterlimit="10" points="23.438,27.93 23.391,28.791 
				23.653,29.088 			"/>
		</g>
		<polyline fill="none" stroke="#000000" stroke-width="0.0515" stroke-miterlimit="10" points="23.989,27.295 24.191,27.17 
			24.274,27.438 		"/>
		<polyline fill="none" stroke="#000000" stroke-width="0.0515" stroke-miterlimit="10" points="23.408,28.493 23.303,28.556 
			23.338,27.694 23.609,27.526 		"/>
		<polyline fill="none" stroke="#000000" stroke-width="0.0515" stroke-miterlimit="10" points="23.932,26.927 23.977,26.899 
			24.191,27.17 		"/>
		<polyline fill="none" stroke="#000000" stroke-width="0.0515" stroke-miterlimit="10" points="23.338,27.694 23.089,27.42 
			23.549,27.149 		"/>
		<polyline fill="none" stroke="#000000" stroke-width="0.0515" stroke-miterlimit="10" points="23.089,27.42 23.042,28.283 
			23.303,28.578 		"/>
		<g>
			<polygon fill="none" stroke="#000000" stroke-width="0.0515" stroke-miterlimit="10" points="22.424,27.837 22.458,26.974 
				23.313,26.451 23.531,27.162 			"/>
			<polyline fill="none" stroke="#000000" stroke-width="0.0515" stroke-miterlimit="10" points="22.458,26.974 22.209,26.699 
				23.098,26.182 23.313,26.451 			"/>
			<polyline fill="none" stroke="#000000" stroke-width="0.0515" stroke-miterlimit="10" points="22.209,26.699 22.162,27.563 
				22.424,27.857 			"/>
		</g>
		<polyline fill="none" stroke="#000000" stroke-width="0.0515" stroke-miterlimit="10" points="22.179,27.265 22.075,27.326 
			22.108,26.464 22.349,26.318 		"/>
		<polyline fill="none" stroke="#000000" stroke-width="0.0515" stroke-miterlimit="10" points="22.704,26.101 22.962,25.941 
			23.048,26.222 		"/>
		<polyline fill="none" stroke="#000000" stroke-width="0.0515" stroke-miterlimit="10" points="22.551,25.785 22.749,25.67 
			22.962,25.941 		"/>
		<polyline fill="none" stroke="#000000" stroke-width="0.0515" stroke-miterlimit="10" points="22.108,26.464 21.86,26.19 
			22.176,26.005 		"/>
		<polyline fill="none" stroke="#000000" stroke-width="0.0515" stroke-miterlimit="10" points="21.86,26.19 21.812,27.052 
			22.075,27.348 		"/>
		
			<ellipse fill="none" stroke="#000000" stroke-width="0.0237" stroke-miterlimit="10" cx="22.877" cy="27.17" rx="0.122" ry="0.139"/>
		
			<ellipse fill="none" stroke="#000000" stroke-width="0.0237" stroke-miterlimit="10" cx="24.132" cy="28.373" rx="0.122" ry="0.138"/>
		<polyline fill="none" stroke="#000000" stroke-width="0.0686" stroke-miterlimit="10" points="22.209,23.134 22.369,22.915 
			22.803,22.96 22.906,23.134 23.52,23.249 23.473,23.3 22.877,23.259 22.704,23.134 22.53,23.2 22.551,23.425 22.251,23.322 		"/>
		<polyline fill="none" stroke="#000000" stroke-width="0.0686" stroke-miterlimit="10" points="22.176,23.354 22.251,23.5 
			22.672,23.649 22.906,23.586 23.048,23.46 23.473,23.425 23.473,23.335 22.877,23.335 22.678,23.404 22.551,23.354 		"/>
		
			<line fill="none" stroke="#000000" stroke-width="0.0686" stroke-miterlimit="10" x1="23.704" y1="25.504" x2="25.668" y2="24.341"/>
		
			<line fill="none" stroke="#000000" stroke-width="0.0686" stroke-miterlimit="10" x1="22.964" y1="25.944" x2="23.323" y2="25.73"/>
		<polyline fill="none" stroke="#000000" stroke-width="0.0686" stroke-miterlimit="10" points="22.176,31.359 20.997,29.84 
			20.667,27.304 21.837,26.61 		"/>
		<path fill="none" stroke="#000000" stroke-width="0.0686" stroke-miterlimit="10" d="M27.572,26.549l1.079,0.978
			c0.892-0.788,3.872-3.003,4.576-3.577c0.704-0.576,0.566-1.417,1.125-1.535c0.558-0.121,0.25,1.603,0.25,1.603"/>
		
			<line fill="none" stroke="#000000" stroke-width="0.0686" stroke-miterlimit="10" x1="26.062" y1="23.589" x2="24.189" y2="24.501"/>
		<polyline fill="none" stroke="#000000" stroke-width="0.0686" stroke-miterlimit="10" points="22.157,37.601 39.52,29.065 
			39.909,24.922 		"/>
		<polyline fill="none" stroke="#000000" stroke-width="0.0686" stroke-miterlimit="10" points="16.897,34.487 14.417,35.972 
			14.257,37.755 15.791,40.731 18.379,39.459 		"/>
		<path fill="none" stroke="#000000" stroke-width="0.0686" stroke-miterlimit="10" d="M16.897,34.487"/>
		<polyline fill="none" stroke="#000000" stroke-width="0.0686" stroke-miterlimit="10" points="36.013,13.561 37.26,14.878 
			37.26,22.301 20.336,32.43 		"/>
		<path fill="none" stroke="#000000" stroke-width="0.0686" stroke-miterlimit="10" d="M39.909,24.922"/>
		
			<line fill="none" stroke="#000000" stroke-width="0.0686" stroke-miterlimit="10" x1="18.162" y1="31.46" x2="13.028" y2="35.898"/>
		<path fill="none" stroke="#000000" stroke-width="0.0686" stroke-miterlimit="10" d="M18.542,31.598l1.376,5.063
			c0,0,0.346,0.19,0.451-0.172l-1.382-5.086"/>
		
			<line fill="none" stroke="#000000" stroke-width="0.0686" stroke-miterlimit="10" x1="12.734" y1="35.517" x2="17.908" y2="31.043"/>
		<path fill="none" stroke="#000000" stroke-width="0.0686" stroke-miterlimit="10" d="M12.396,36.899l-0.997,3.486
			c-0.03,0.105-0.126,0.174-0.23,0.174c-0.023,0-0.044-0.003-0.067-0.009c-0.127-0.036-0.201-0.17-0.164-0.297l1.018-3.559"/>
		<g>
			<path fill="none" stroke="#000000" stroke-width="0.1279" stroke-miterlimit="10" d="M18.162,31.46
				c-0.124-0.101-0.215-0.246-0.254-0.417"/>
			<path fill="none" stroke="#000000" stroke-width="0.1279" stroke-miterlimit="10" d="M17.908,31.043
				c-0.014-0.06-0.021-0.122-0.021-0.185c0-0.41,0.293-0.742,0.656-0.742c0.363,0,0.657,0.332,0.657,0.742
				c0,0.408-0.294,0.738-0.657,0.738c-0.142,0-0.273-0.051-0.381-0.137"/>
			
				<ellipse fill="none" stroke="#000000" stroke-width="0.0442" stroke-miterlimit="10" cx="18.544" cy="30.903" rx="0.227" ry="0.258"/>
		</g>
		<g>
			
				<ellipse transform="matrix(0.9975 0.0706 -0.0706 0.9975 1.5593 -1.0584)" fill="none" stroke="#000000" stroke-width="0.1279" stroke-miterlimit="10" cx="15.744" cy="21.517" rx="0.657" ry="0.74"/>
			
				<ellipse transform="matrix(0.9973 0.0732 -0.0732 0.9973 1.6197 -1.0938)" fill="none" stroke="#000000" stroke-width="0.0442" stroke-miterlimit="10" cx="15.741" cy="21.563" rx="0.227" ry="0.255"/>
		</g>
		<g>
			
				<ellipse transform="matrix(0.9974 0.0714 -0.0714 0.9974 1.8933 -0.6199)" fill="none" stroke="#000000" stroke-width="0.1279" stroke-miterlimit="10" cx="9.621" cy="26.181" rx="0.657" ry="0.74"/>
			
				<ellipse transform="matrix(0.9975 0.0711 -0.0711 0.9975 1.889 -0.6174)" fill="none" stroke="#000000" stroke-width="0.0442" stroke-miterlimit="10" cx="9.617" cy="26.228" rx="0.227" ry="0.256"/>
		</g>
		<g>
			
				<ellipse fill="none" stroke="#000000" stroke-width="0.1279" stroke-miterlimit="10" cx="12.416" cy="36.165" rx="0.657" ry="0.74"/>
			
				<ellipse fill="none" stroke="#000000" stroke-width="0.0442" stroke-miterlimit="10" cx="12.416" cy="36.213" rx="0.227" ry="0.256"/>
		</g>
		
			<line fill="none" stroke="#000000" stroke-width="0.0686" stroke-miterlimit="10" x1="15.284" y1="22.053" x2="10.246" y2="25.938"/>
		<path fill="none" stroke="#000000" stroke-width="0.0686" stroke-miterlimit="10" d="M16.157,22.083l0.678,5.455
			c0.014,0.114-0.066,0.218-0.179,0.232c-0.113,0.014-0.216-0.066-0.23-0.18l-0.662-5.334"/>
		
			<line fill="none" stroke="#000000" stroke-width="0.0686" stroke-miterlimit="10" x1="10.025" y1="25.589" x2="15.1" y2="21.675"/>
		<path fill="none" stroke="#000000" stroke-width="0.0686" stroke-miterlimit="10" d="M9.685,26.916l-0.607,3.766
			c-0.017,0.102-0.104,0.173-0.203,0.173c-0.011,0-0.022-0.001-0.033-0.003c-0.112-0.018-0.188-0.123-0.171-0.235l0.613-3.796"/>
		<g>
			<path d="M14.523,36.163c0.517,0.712,0.93,1.489,1.423,2.216l-0.028-0.007c0.734-0.43,1.482-0.836,2.243-1.219l0.003,0.006
				c-0.729,0.44-1.47,0.857-2.225,1.25l-0.019,0.01l-0.01-0.017c-0.445-0.757-0.971-1.464-1.393-2.235L14.523,36.163z"/>
		</g>
		
			<ellipse fill="none" stroke="#000000" stroke-width="0.0686" stroke-miterlimit="10" cx="20.789" cy="23.009" rx="0.353" ry="0.396"/>
		
			<ellipse fill="none" stroke="#000000" stroke-width="0.0237" stroke-miterlimit="10" cx="20.789" cy="23.033" rx="0.122" ry="0.138"/>
		
			<ellipse fill="none" stroke="#000000" stroke-width="0.0686" stroke-miterlimit="10" cx="20.789" cy="23.009" rx="0.353" ry="0.396"/>
		
			<ellipse fill="none" stroke="#000000" stroke-width="0.0237" stroke-miterlimit="10" cx="20.789" cy="23.033" rx="0.122" ry="0.138"/>
		<polyline fill="none" stroke="#000000" stroke-width="0.0686" stroke-miterlimit="10" points="20.336,36.37 20.615,36.265 
			20.877,36.506 20.479,36.65 20.022,36.838 19.672,36.999 19.456,36.744 19.888,36.553 		"/>
		<path fill="none" stroke="#000000" stroke-width="0.0686" stroke-miterlimit="10" d="M20.877,36.506c0,0,0.384,0.985-0.35,1.18
			c-0.735,0.195-0.854-0.687-0.854-0.687"/>
		<path fill="none" stroke="#000000" stroke-width="0.0686" stroke-miterlimit="10" d="M19.456,36.744c0,0-0.056,1.213,1.029,0.952"
			/>
		
			<ellipse fill="none" stroke="#000000" stroke-width="0.0442" stroke-miterlimit="10" cx="20.324" cy="37.11" rx="0.227" ry="0.257"/>
		<path fill="none" stroke="#000000" stroke-width="0.0442" stroke-miterlimit="10" d="M14.257,37.945l-0.115,1.665
			c0,0-0.033,0.685,0.583,1.406c0.618,0.721,0.962,1.133,1.906,1.133s19.153-0.807,19.153-0.807s4.125-0.407,4.125-4.837
			c0-4.431-0.618-7.008-0.8-7.238"/>
		<path fill="none" stroke="#000000" stroke-width="0.0442" stroke-miterlimit="10" d="M17.687,39.799c0,0-0.144,0.839,0.558,0.839
			c0.703,0,16.972-1.063,18.946-2.145c1.152-0.63,1.288-1.56,0.191-8.377"/>
		
			<ellipse fill="none" stroke="#000000" stroke-width="0.1235" stroke-miterlimit="10" cx="35.607" cy="37.367" rx="0.634" ry="0.715"/>
		<polyline fill="none" stroke="#000000" stroke-width="0.0686" stroke-miterlimit="10" points="18.959,33.135 16.854,34.41 
			18.313,37.071 18.382,39.55 22.157,37.679 22.157,34.898 20.27,32.342 19.387,32.877 		"/>
		<g>
			<defs>
				<polygon id="SVGID_1_" points="22.157,34.898 39.909,24.922 37.26,22.301 20.369,32.477 				"/>
			</defs>
			<clipPath id="SVGID_2_">
				<use xlink:href="#SVGID_1_"  overflow="visible"/>
			</clipPath>
			<path clip-path="url(#SVGID_2_)" fill="none" stroke="#000000" stroke-width="0.2059" stroke-miterlimit="10" d="M23.86,29.964
				c0.03,0.018,2.107,3.176,2.107,3.176"/>
			<path clip-path="url(#SVGID_2_)" fill="none" stroke="#000000" stroke-width="0.2059" stroke-miterlimit="10" d="M26.876,26.949
				c0.031,0.017,2.695,4.094,2.695,4.094"/>
			<path clip-path="url(#SVGID_2_)" fill="none" stroke="#000000" stroke-width="0.2059" stroke-miterlimit="10" d="M30.702,25.326
				c0.033,0.014,2.962,3.905,2.962,3.905"/>
			<path clip-path="url(#SVGID_2_)" fill="none" stroke="#000000" stroke-width="0.2059" stroke-miterlimit="10" d="M34.363,23.214
				c0.031,0.015,2.962,3.907,2.962,3.907"/>
		</g>
		<polyline fill="none" stroke="#000000" stroke-width="0.0686" stroke-miterlimit="10" points="22.157,34.898 39.909,24.922 
			37.26,22.301 		"/>
		
			<line fill="none" stroke="#000000" stroke-width="0.2059" stroke-miterlimit="10" x1="25.784" y1="32.859" x2="25.784" y2="35.817"/>
		
			<line fill="none" stroke="#000000" stroke-width="0.2059" stroke-miterlimit="10" x1="29.45" y1="30.858" x2="29.45" y2="34.017"/>
		
			<line fill="none" stroke="#000000" stroke-width="0.2059" stroke-miterlimit="10" x1="33.241" y1="28.669" x2="33.241" y2="32.152"/>
		
			<line fill="none" stroke="#000000" stroke-width="0.2059" stroke-miterlimit="10" x1="36.904" y1="26.61" x2="36.783" y2="30.412"/>
		<path fill="none" stroke="#000000" stroke-width="0.0515" stroke-miterlimit="10" d="M23.726,22.402c0,0-11.494,7.745-11.757,8.02
			c-0.262,0.274-0.209,2.048-0.209,2.392s0.976,1.935,0.976,1.935l8.262-4.908"/>
		<g>
			<path d="M12.731,34.487l-0.108-1.937v-0.003c0.028-0.206,0.126-0.4,0.296-0.529c0.165-0.121,0.34-0.217,0.51-0.327l1.035-0.624
				l2.069-1.252l4.117-2.54l0.024-0.015l0.018,0.021l2.783,3.367l-0.005,0.004l-2.829-3.328l0.042,0.007l-4.138,2.505l-2.058,1.271
				l-1.028,0.637c-0.17,0.105-0.353,0.201-0.512,0.316c-0.158,0.113-0.256,0.298-0.286,0.49V32.55l0.075,1.938H12.731z"/>
		</g>
		<path fill="none" stroke="#000000" stroke-width="0.0686" stroke-miterlimit="10" d="M11.839,33.096c0,0,0.021,0.928,0.064,1.355
			c0.043,0.431-0.15,2.907,2.448,2.261"/>
		<path fill="none" stroke="#000000" stroke-width="0.0686" stroke-miterlimit="10" d="M13.232,34.451c0,0-0.403,2.139,1.167,1.714"
			/>
	</g>
</g>
<g id="Capa_3">
</g>
</svg>
